<?xml version="1.0" encoding="utf-8" standalone="no"?>
<!DOCTYPE svg PUBLIC "-//W3C//DTD SVG 1.1//EN"
  "http://www.w3.org/Graphics/SVG/1.1/DTD/svg11.dtd">
<svg xmlns:xlink="http://www.w3.org/1999/xlink" width="722.79pt" height="419.1975pt" viewBox="0 0 722.79 419.1975" xmlns="http://www.w3.org/2000/svg" version="1.1">
 <metadata>
  <rdf:RDF xmlns:dc="http://purl.org/dc/elements/1.1/" xmlns:cc="http://creativecommons.org/ns#" xmlns:rdf="http://www.w3.org/1999/02/22-rdf-syntax-ns#">
   <cc:Work>
    <dc:type rdf:resource="http://purl.org/dc/dcmitype/StillImage"/>
    <dc:date>2025-06-08T10:34:03.805897</dc:date>
    <dc:format>image/svg+xml</dc:format>
    <dc:creator>
     <cc:Agent>
      <dc:title>Matplotlib v3.7.5, https://matplotlib.org/</dc:title>
     </cc:Agent>
    </dc:creator>
   </cc:Work>
  </rdf:RDF>
 </metadata>
 <defs>
  <style type="text/css">*{stroke-linejoin: round; stroke-linecap: butt}</style>
 </defs>
 <g id="figure_1">
  <g id="patch_1">
   <path d="M 0 419.1975 
L 722.79 419.1975 
L 722.79 0 
L 0 0 
z
" style="fill: #ffffff"/>
  </g>
  <g id="axes_1">
   <g id="patch_2">
    <path d="M 62.025 369.2325 
L 612.655 369.2325 
L 612.655 24.6525 
L 62.025 24.6525 
z
" style="fill: #ffffff"/>
   </g>
   <g id="matplotlib.axis_1">
    <g id="xtick_1">
     <g id="line2d_1">
      <path d="M 173.488563 369.2325 
L 173.488563 24.6525 
" clip-path="url(#pc6cae1cfe9)" style="fill: none; stroke: #cccccc; stroke-linecap: round"/>
     </g>
     <g id="text_1">
      <!-- 2009 -->
      <g style="fill: #262626" transform="translate(155.693563 390.185) scale(0.16 -0.16)">
       <defs>
        <path id="ArialMT-32" d="M 3222 541 
L 3222 0 
L 194 0 
Q 188 203 259 391 
Q 375 700 629 1000 
Q 884 1300 1366 1694 
Q 2113 2306 2375 2664 
Q 2638 3022 2638 3341 
Q 2638 3675 2398 3904 
Q 2159 4134 1775 4134 
Q 1369 4134 1125 3890 
Q 881 3647 878 3216 
L 300 3275 
Q 359 3922 746 4261 
Q 1134 4600 1788 4600 
Q 2447 4600 2831 4234 
Q 3216 3869 3216 3328 
Q 3216 3053 3103 2787 
Q 2991 2522 2730 2228 
Q 2469 1934 1863 1422 
Q 1356 997 1212 845 
Q 1069 694 975 541 
L 3222 541 
z
" transform="scale(0.015625)"/>
        <path id="ArialMT-30" d="M 266 2259 
Q 266 3072 433 3567 
Q 600 4063 929 4331 
Q 1259 4600 1759 4600 
Q 2128 4600 2406 4451 
Q 2684 4303 2865 4023 
Q 3047 3744 3150 3342 
Q 3253 2941 3253 2259 
Q 3253 1453 3087 958 
Q 2922 463 2592 192 
Q 2263 -78 1759 -78 
Q 1097 -78 719 397 
Q 266 969 266 2259 
z
M 844 2259 
Q 844 1131 1108 757 
Q 1372 384 1759 384 
Q 2147 384 2411 759 
Q 2675 1134 2675 2259 
Q 2675 3391 2411 3762 
Q 2147 4134 1753 4134 
Q 1366 4134 1134 3806 
Q 844 3388 844 2259 
z
" transform="scale(0.015625)"/>
        <path id="ArialMT-39" d="M 350 1059 
L 891 1109 
Q 959 728 1153 556 
Q 1347 384 1650 384 
Q 1909 384 2104 503 
Q 2300 622 2425 820 
Q 2550 1019 2634 1356 
Q 2719 1694 2719 2044 
Q 2719 2081 2716 2156 
Q 2547 1888 2255 1720 
Q 1963 1553 1622 1553 
Q 1053 1553 659 1965 
Q 266 2378 266 3053 
Q 266 3750 677 4175 
Q 1088 4600 1706 4600 
Q 2153 4600 2523 4359 
Q 2894 4119 3086 3673 
Q 3278 3228 3278 2384 
Q 3278 1506 3087 986 
Q 2897 466 2520 194 
Q 2144 -78 1638 -78 
Q 1100 -78 759 220 
Q 419 519 350 1059 
z
M 2653 3081 
Q 2653 3566 2395 3850 
Q 2138 4134 1775 4134 
Q 1400 4134 1122 3828 
Q 844 3522 844 3034 
Q 844 2597 1108 2323 
Q 1372 2050 1759 2050 
Q 2150 2050 2401 2323 
Q 2653 2597 2653 3081 
z
" transform="scale(0.015625)"/>
       </defs>
       <use xlink:href="#ArialMT-32"/>
       <use xlink:href="#ArialMT-30" x="55.615234"/>
       <use xlink:href="#ArialMT-30" x="111.230469"/>
       <use xlink:href="#ArialMT-39" x="166.845703"/>
      </g>
     </g>
    </g>
    <g id="xtick_2">
     <g id="line2d_2">
      <path d="M 307.244838 369.2325 
L 307.244838 24.6525 
" clip-path="url(#pc6cae1cfe9)" style="fill: none; stroke: #cccccc; stroke-linecap: round"/>
     </g>
     <g id="text_2">
      <!-- 2014 -->
      <g style="fill: #262626" transform="translate(289.449838 390.185) scale(0.16 -0.16)">
       <defs>
        <path id="ArialMT-31" d="M 2384 0 
L 1822 0 
L 1822 3584 
Q 1619 3391 1289 3197 
Q 959 3003 697 2906 
L 697 3450 
Q 1169 3672 1522 3987 
Q 1875 4303 2022 4600 
L 2384 4600 
L 2384 0 
z
" transform="scale(0.015625)"/>
        <path id="ArialMT-34" d="M 2069 0 
L 2069 1097 
L 81 1097 
L 81 1613 
L 2172 4581 
L 2631 4581 
L 2631 1613 
L 3250 1613 
L 3250 1097 
L 2631 1097 
L 2631 0 
L 2069 0 
z
M 2069 1613 
L 2069 3678 
L 634 1613 
L 2069 1613 
z
" transform="scale(0.015625)"/>
       </defs>
       <use xlink:href="#ArialMT-32"/>
       <use xlink:href="#ArialMT-30" x="55.615234"/>
       <use xlink:href="#ArialMT-31" x="111.230469"/>
       <use xlink:href="#ArialMT-34" x="166.845703"/>
      </g>
     </g>
    </g>
    <g id="xtick_3">
     <g id="line2d_3">
      <path d="M 441.001113 369.2325 
L 441.001113 24.6525 
" clip-path="url(#pc6cae1cfe9)" style="fill: none; stroke: #cccccc; stroke-linecap: round"/>
     </g>
     <g id="text_3">
      <!-- 2019 -->
      <g style="fill: #262626" transform="translate(423.206113 390.185) scale(0.16 -0.16)">
       <use xlink:href="#ArialMT-32"/>
       <use xlink:href="#ArialMT-30" x="55.615234"/>
       <use xlink:href="#ArialMT-31" x="111.230469"/>
       <use xlink:href="#ArialMT-39" x="166.845703"/>
      </g>
     </g>
    </g>
    <g id="xtick_4">
     <g id="line2d_4">
      <path d="M 574.757389 369.2325 
L 574.757389 24.6525 
" clip-path="url(#pc6cae1cfe9)" style="fill: none; stroke: #cccccc; stroke-linecap: round"/>
     </g>
     <g id="text_4">
      <!-- 2024 -->
      <g style="fill: #262626" transform="translate(556.962389 390.185) scale(0.16 -0.16)">
       <use xlink:href="#ArialMT-32"/>
       <use xlink:href="#ArialMT-30" x="55.615234"/>
       <use xlink:href="#ArialMT-32" x="111.230469"/>
       <use xlink:href="#ArialMT-34" x="166.845703"/>
      </g>
     </g>
    </g>
    <g id="xtick_5"/>
    <g id="xtick_6"/>
    <g id="xtick_7"/>
    <g id="xtick_8"/>
    <g id="xtick_9"/>
    <g id="xtick_10"/>
    <g id="xtick_11"/>
    <g id="xtick_12"/>
    <g id="xtick_13"/>
    <g id="xtick_14"/>
    <g id="xtick_15"/>
    <g id="xtick_16"/>
    <g id="xtick_17"/>
    <g id="xtick_18"/>
    <g id="xtick_19"/>
    <g id="xtick_20"/>
    <g id="xtick_21"/>
    <g id="text_5">
     <!-- Date -->
     <g style="fill: #262626" transform="translate(320.4425 408.8175) scale(0.16 -0.16)">
      <defs>
       <path id="ArialMT-44" d="M 494 0 
L 494 4581 
L 2072 4581 
Q 2606 4581 2888 4516 
Q 3281 4425 3559 4188 
Q 3922 3881 4101 3404 
Q 4281 2928 4281 2316 
Q 4281 1794 4159 1391 
Q 4038 988 3847 723 
Q 3656 459 3429 307 
Q 3203 156 2883 78 
Q 2563 0 2147 0 
L 494 0 
z
M 1100 541 
L 2078 541 
Q 2531 541 2789 625 
Q 3047 709 3200 863 
Q 3416 1078 3536 1442 
Q 3656 1806 3656 2325 
Q 3656 3044 3420 3430 
Q 3184 3816 2847 3947 
Q 2603 4041 2063 4041 
L 1100 4041 
L 1100 541 
z
" transform="scale(0.015625)"/>
       <path id="ArialMT-61" d="M 2588 409 
Q 2275 144 1986 34 
Q 1697 -75 1366 -75 
Q 819 -75 525 192 
Q 231 459 231 875 
Q 231 1119 342 1320 
Q 453 1522 633 1644 
Q 813 1766 1038 1828 
Q 1203 1872 1538 1913 
Q 2219 1994 2541 2106 
Q 2544 2222 2544 2253 
Q 2544 2597 2384 2738 
Q 2169 2928 1744 2928 
Q 1347 2928 1158 2789 
Q 969 2650 878 2297 
L 328 2372 
Q 403 2725 575 2942 
Q 747 3159 1072 3276 
Q 1397 3394 1825 3394 
Q 2250 3394 2515 3294 
Q 2781 3194 2906 3042 
Q 3031 2891 3081 2659 
Q 3109 2516 3109 2141 
L 3109 1391 
Q 3109 606 3145 398 
Q 3181 191 3288 0 
L 2700 0 
Q 2613 175 2588 409 
z
M 2541 1666 
Q 2234 1541 1622 1453 
Q 1275 1403 1131 1340 
Q 988 1278 909 1158 
Q 831 1038 831 891 
Q 831 666 1001 516 
Q 1172 366 1500 366 
Q 1825 366 2078 508 
Q 2331 650 2450 897 
Q 2541 1088 2541 1459 
L 2541 1666 
z
" transform="scale(0.015625)"/>
       <path id="ArialMT-74" d="M 1650 503 
L 1731 6 
Q 1494 -44 1306 -44 
Q 1000 -44 831 53 
Q 663 150 594 308 
Q 525 466 525 972 
L 525 2881 
L 113 2881 
L 113 3319 
L 525 3319 
L 525 4141 
L 1084 4478 
L 1084 3319 
L 1650 3319 
L 1650 2881 
L 1084 2881 
L 1084 941 
Q 1084 700 1114 631 
Q 1144 563 1211 522 
Q 1278 481 1403 481 
Q 1497 481 1650 503 
z
" transform="scale(0.015625)"/>
       <path id="ArialMT-65" d="M 2694 1069 
L 3275 997 
Q 3138 488 2766 206 
Q 2394 -75 1816 -75 
Q 1088 -75 661 373 
Q 234 822 234 1631 
Q 234 2469 665 2931 
Q 1097 3394 1784 3394 
Q 2450 3394 2872 2941 
Q 3294 2488 3294 1666 
Q 3294 1616 3291 1516 
L 816 1516 
Q 847 969 1125 678 
Q 1403 388 1819 388 
Q 2128 388 2347 550 
Q 2566 713 2694 1069 
z
M 847 1978 
L 2700 1978 
Q 2663 2397 2488 2606 
Q 2219 2931 1791 2931 
Q 1403 2931 1139 2672 
Q 875 2413 847 1978 
z
" transform="scale(0.015625)"/>
      </defs>
      <use xlink:href="#ArialMT-44"/>
      <use xlink:href="#ArialMT-61" x="72.216797"/>
      <use xlink:href="#ArialMT-74" x="127.832031"/>
      <use xlink:href="#ArialMT-65" x="155.615234"/>
     </g>
    </g>
   </g>
   <g id="matplotlib.axis_2">
    <g id="ytick_1">
     <g id="line2d_5">
      <path d="M 62.025 368.351312 
L 612.655 368.351312 
" clip-path="url(#pc6cae1cfe9)" style="fill: none; stroke: #cccccc; stroke-linecap: round"/>
     </g>
     <g id="text_6">
      <!-- 0 -->
      <g style="fill: #262626" transform="translate(43.6275 374.077562) scale(0.16 -0.16)">
       <use xlink:href="#ArialMT-30"/>
      </g>
     </g>
    </g>
    <g id="ytick_2">
     <g id="line2d_6">
      <path d="M 62.025 306.448365 
L 612.655 306.448365 
" clip-path="url(#pc6cae1cfe9)" style="fill: none; stroke: #cccccc; stroke-linecap: round"/>
     </g>
     <g id="text_7">
      <!-- 100 -->
      <g style="fill: #262626" transform="translate(25.8325 312.174615) scale(0.16 -0.16)">
       <use xlink:href="#ArialMT-31"/>
       <use xlink:href="#ArialMT-30" x="55.615234"/>
       <use xlink:href="#ArialMT-30" x="111.230469"/>
      </g>
     </g>
    </g>
    <g id="ytick_3">
     <g id="line2d_7">
      <path d="M 62.025 244.545418 
L 612.655 244.545418 
" clip-path="url(#pc6cae1cfe9)" style="fill: none; stroke: #cccccc; stroke-linecap: round"/>
     </g>
     <g id="text_8">
      <!-- 200 -->
      <g style="fill: #262626" transform="translate(25.8325 250.271668) scale(0.16 -0.16)">
       <use xlink:href="#ArialMT-32"/>
       <use xlink:href="#ArialMT-30" x="55.615234"/>
       <use xlink:href="#ArialMT-30" x="111.230469"/>
      </g>
     </g>
    </g>
    <g id="ytick_4">
     <g id="line2d_8">
      <path d="M 62.025 182.642472 
L 612.655 182.642472 
" clip-path="url(#pc6cae1cfe9)" style="fill: none; stroke: #cccccc; stroke-linecap: round"/>
     </g>
     <g id="text_9">
      <!-- 300 -->
      <g style="fill: #262626" transform="translate(25.8325 188.368722) scale(0.16 -0.16)">
       <defs>
        <path id="ArialMT-33" d="M 269 1209 
L 831 1284 
Q 928 806 1161 595 
Q 1394 384 1728 384 
Q 2125 384 2398 659 
Q 2672 934 2672 1341 
Q 2672 1728 2419 1979 
Q 2166 2231 1775 2231 
Q 1616 2231 1378 2169 
L 1441 2663 
Q 1497 2656 1531 2656 
Q 1891 2656 2178 2843 
Q 2466 3031 2466 3422 
Q 2466 3731 2256 3934 
Q 2047 4138 1716 4138 
Q 1388 4138 1169 3931 
Q 950 3725 888 3313 
L 325 3413 
Q 428 3978 793 4289 
Q 1159 4600 1703 4600 
Q 2078 4600 2393 4439 
Q 2709 4278 2876 4000 
Q 3044 3722 3044 3409 
Q 3044 3113 2884 2869 
Q 2725 2625 2413 2481 
Q 2819 2388 3044 2092 
Q 3269 1797 3269 1353 
Q 3269 753 2831 336 
Q 2394 -81 1725 -81 
Q 1122 -81 723 278 
Q 325 638 269 1209 
z
" transform="scale(0.015625)"/>
       </defs>
       <use xlink:href="#ArialMT-33"/>
       <use xlink:href="#ArialMT-30" x="55.615234"/>
       <use xlink:href="#ArialMT-30" x="111.230469"/>
      </g>
     </g>
    </g>
    <g id="ytick_5">
     <g id="line2d_9">
      <path d="M 62.025 120.739525 
L 612.655 120.739525 
" clip-path="url(#pc6cae1cfe9)" style="fill: none; stroke: #cccccc; stroke-linecap: round"/>
     </g>
     <g id="text_10">
      <!-- 400 -->
      <g style="fill: #262626" transform="translate(25.8325 126.465775) scale(0.16 -0.16)">
       <use xlink:href="#ArialMT-34"/>
       <use xlink:href="#ArialMT-30" x="55.615234"/>
       <use xlink:href="#ArialMT-30" x="111.230469"/>
      </g>
     </g>
    </g>
    <g id="ytick_6">
     <g id="line2d_10">
      <path d="M 62.025 58.836578 
L 612.655 58.836578 
" clip-path="url(#pc6cae1cfe9)" style="fill: none; stroke: #cccccc; stroke-linecap: round"/>
     </g>
     <g id="text_11">
      <!-- 500 -->
      <g style="fill: #262626" transform="translate(25.8325 64.562828) scale(0.16 -0.16)">
       <defs>
        <path id="ArialMT-35" d="M 266 1200 
L 856 1250 
Q 922 819 1161 601 
Q 1400 384 1738 384 
Q 2144 384 2425 690 
Q 2706 997 2706 1503 
Q 2706 1984 2436 2262 
Q 2166 2541 1728 2541 
Q 1456 2541 1237 2417 
Q 1019 2294 894 2097 
L 366 2166 
L 809 4519 
L 3088 4519 
L 3088 3981 
L 1259 3981 
L 1013 2750 
Q 1425 3038 1878 3038 
Q 2478 3038 2890 2622 
Q 3303 2206 3303 1553 
Q 3303 931 2941 478 
Q 2500 -78 1738 -78 
Q 1113 -78 717 272 
Q 322 622 266 1200 
z
" transform="scale(0.015625)"/>
       </defs>
       <use xlink:href="#ArialMT-35"/>
       <use xlink:href="#ArialMT-30" x="55.615234"/>
       <use xlink:href="#ArialMT-30" x="111.230469"/>
      </g>
     </g>
    </g>
    <g id="text_12">
     <!-- Price -->
     <g style="fill: #262626" transform="translate(18.6525 215.16875) rotate(-90) scale(0.16 -0.16)">
      <defs>
       <path id="ArialMT-50" d="M 494 0 
L 494 4581 
L 2222 4581 
Q 2678 4581 2919 4538 
Q 3256 4481 3484 4323 
Q 3713 4166 3852 3881 
Q 3991 3597 3991 3256 
Q 3991 2672 3619 2267 
Q 3247 1863 2275 1863 
L 1100 1863 
L 1100 0 
L 494 0 
z
M 1100 2403 
L 2284 2403 
Q 2872 2403 3119 2622 
Q 3366 2841 3366 3238 
Q 3366 3525 3220 3729 
Q 3075 3934 2838 4000 
Q 2684 4041 2272 4041 
L 1100 4041 
L 1100 2403 
z
" transform="scale(0.015625)"/>
       <path id="ArialMT-72" d="M 416 0 
L 416 3319 
L 922 3319 
L 922 2816 
Q 1116 3169 1280 3281 
Q 1444 3394 1641 3394 
Q 1925 3394 2219 3213 
L 2025 2691 
Q 1819 2813 1613 2813 
Q 1428 2813 1281 2702 
Q 1134 2591 1072 2394 
Q 978 2094 978 1738 
L 978 0 
L 416 0 
z
" transform="scale(0.015625)"/>
       <path id="ArialMT-69" d="M 425 3934 
L 425 4581 
L 988 4581 
L 988 3934 
L 425 3934 
z
M 425 0 
L 425 3319 
L 988 3319 
L 988 0 
L 425 0 
z
" transform="scale(0.015625)"/>
       <path id="ArialMT-63" d="M 2588 1216 
L 3141 1144 
Q 3050 572 2676 248 
Q 2303 -75 1759 -75 
Q 1078 -75 664 370 
Q 250 816 250 1647 
Q 250 2184 428 2587 
Q 606 2991 970 3192 
Q 1334 3394 1763 3394 
Q 2303 3394 2647 3120 
Q 2991 2847 3088 2344 
L 2541 2259 
Q 2463 2594 2264 2762 
Q 2066 2931 1784 2931 
Q 1359 2931 1093 2626 
Q 828 2322 828 1663 
Q 828 994 1084 691 
Q 1341 388 1753 388 
Q 2084 388 2306 591 
Q 2528 794 2588 1216 
z
" transform="scale(0.015625)"/>
      </defs>
      <use xlink:href="#ArialMT-50"/>
      <use xlink:href="#ArialMT-72" x="66.699219"/>
      <use xlink:href="#ArialMT-69" x="100"/>
      <use xlink:href="#ArialMT-63" x="122.216797"/>
      <use xlink:href="#ArialMT-65" x="172.216797"/>
     </g>
    </g>
   </g>
   <g id="line2d_11">
    <path d="M 62.025 335.29369 
L 66.483543 334.867396 
L 68.712814 334.99175 
L 70.942085 335.316763 
L 73.171356 334.747606 
L 77.629899 334.172631 
L 79.85917 334.526552 
L 82.088441 334.126903 
L 86.546984 334.783377 
L 88.776255 334.657639 
L 91.005526 334.275516 
L 95.464069 334.241091 
L 97.69334 334.53699 
L 104.381154 334.708591 
L 111.068968 333.348126 
L 113.298239 333.10811 
L 115.52751 332.733848 
L 117.756781 332.947747 
L 119.986053 332.972577 
L 122.215324 332.397531 
L 124.444595 332.467682 
L 126.673866 332.256064 
L 128.903138 332.587155 
L 131.132409 332.721918 
L 140.049494 331.278036 
L 142.278765 330.609427 
L 144.508036 330.612919 
L 146.737308 329.740069 
L 148.966579 329.801843 
L 153.425121 329.625399 
L 155.654393 330.115372 
L 157.883664 330.186085 
L 160.112935 330.035715 
L 162.342206 329.751465 
L 164.571478 330.430725 
L 166.800749 331.295688 
L 169.03002 330.175041 
L 171.259291 327.631587 
L 173.488563 328.440516 
L 175.717834 328.861707 
L 177.947105 328.426121 
L 184.634919 327.765569 
L 191.322733 326.254687 
L 193.552004 326.161302 
L 195.781275 325.618603 
L 198.010547 326.422526 
L 200.239818 325.829255 
L 204.69836 325.747758 
L 209.156903 324.867462 
L 211.386174 324.098337 
L 213.615445 323.72011 
L 215.844717 323.145815 
L 220.303259 323.073645 
L 224.761802 323.754936 
L 226.991073 323.792874 
L 229.220344 323.66345 
L 231.449615 323.763135 
L 233.678887 323.064209 
L 235.908158 322.502727 
L 238.137429 322.706843 
L 242.595972 321.231297 
L 244.825243 320.868188 
L 247.054514 320.808099 
L 249.283785 320.965364 
L 251.513057 320.322499 
L 253.742328 319.973964 
L 255.971599 319.980524 
L 258.20087 320.257678 
L 262.659413 319.29871 
L 264.888684 319.308396 
L 267.117955 318.640377 
L 269.347227 318.640348 
L 271.576498 318.50784 
L 273.805769 318.531369 
L 276.03504 318.396519 
L 278.264312 318.519047 
L 280.493583 318.828572 
L 282.722854 318.535969 
L 284.952126 318.486876 
L 287.181397 318.003906 
L 289.410668 319.011411 
L 291.639939 319.783809 
L 293.869211 319.6531 
L 296.098482 320.055499 
L 298.327753 319.514311 
L 300.557024 319.107662 
L 302.786296 319.231112 
L 305.015567 319.504563 
L 307.244838 318.751901 
L 309.474109 318.565185 
L 311.703381 318.638917 
L 313.932652 318.23045 
L 316.161923 317.639469 
L 320.620466 317.795851 
L 322.849737 317.214605 
L 325.079008 317.529045 
L 327.308279 316.988287 
L 329.537551 316.650775 
L 331.766822 316.57445 
L 333.996093 315.511858 
L 336.225364 315.984636 
L 338.454636 315.788407 
L 342.913178 316.187235 
L 345.142449 316.748911 
L 347.371721 316.304021 
L 349.600992 316.47877 
L 351.830263 316.057892 
L 354.059534 316.022041 
L 358.518077 316.325557 
L 360.747348 315.680123 
L 365.205891 314.748079 
L 367.435162 314.611443 
L 369.664433 314.604122 
L 371.893704 313.564058 
L 374.122976 313.265756 
L 376.352247 313.384426 
L 378.581518 313.356037 
L 380.810789 313.80547 
L 383.040061 315.204846 
L 387.498603 314.956327 
L 389.727874 314.611504 
L 391.957146 314.641192 
L 394.186417 314.154047 
L 396.415688 313.781662 
L 398.64496 313.791613 
L 400.874231 313.609397 
L 403.103502 313.094091 
L 405.332773 313.409972 
L 407.562045 313.356202 
L 409.791316 313.437742 
L 412.020587 313.176811 
L 416.47913 314.347843 
L 418.708401 313.985414 
L 420.937672 314.497014 
L 423.166943 314.140578 
L 427.625486 314.100788 
L 429.854757 313.792648 
L 434.3133 314.479978 
L 436.542571 314.064328 
L 438.771842 312.988819 
L 441.001113 312.484521 
L 443.230385 312.54809 
L 445.459656 311.363607 
L 447.688927 311.477828 
L 449.918198 310.391032 
L 452.14747 309.754296 
L 454.376741 309.647735 
L 456.606012 308.014178 
L 458.835283 308.383503 
L 461.064555 308.258683 
L 465.523097 308.307536 
L 467.752368 307.089247 
L 469.98164 306.118429 
L 472.210911 306.446292 
L 474.440182 305.382108 
L 478.898725 304.540775 
L 481.127996 303.690059 
L 483.357267 304.222594 
L 485.586538 304.285025 
L 487.81581 304.642713 
L 490.045081 303.873904 
L 492.274352 303.818614 
L 494.503623 304.29909 
L 496.732895 305.271495 
L 498.962166 305.99461 
L 501.191437 305.538126 
L 503.420709 305.4101 
L 505.64998 304.889008 
L 507.879251 304.18041 
L 510.108522 304.308975 
L 512.337794 304.896385 
L 514.567065 304.901915 
L 516.796336 304.730057 
L 519.025607 304.958292 
L 521.254879 306.225268 
L 523.48415 306.937026 
L 525.713421 308.6641 
L 527.942692 310.93571 
L 530.171964 310.499047 
L 532.401235 311.397488 
L 534.630506 309.951961 
L 536.859777 311.728624 
L 539.089049 314.075644 
L 541.31832 314.769563 
L 543.547591 312.728913 
L 545.776862 313.213082 
L 548.006134 311.376868 
L 550.235405 312.895619 
L 552.464676 311.430898 
L 554.693947 311.103318 
L 556.923219 311.758401 
L 559.15249 311.966772 
L 561.381761 311.975448 
L 563.611032 312.33135 
L 565.840304 313.782054 
L 568.069575 314.639142 
L 570.298846 312.172191 
L 572.528117 310.094873 
L 574.757389 310.182925 
L 576.98666 311.04067 
L 579.215931 310.523445 
L 581.445202 311.956557 
L 583.674474 311.015015 
L 585.903745 310.507303 
L 588.133016 309.107955 
L 592.591559 307.441002 
L 594.82083 308.975173 
L 597.050101 308.315508 
L 599.279372 309.332152 
L 601.508644 309.027615 
L 603.737915 307.700323 
L 605.967186 307.716263 
L 608.196457 307.454892 
L 612.655 308.132126 
L 612.655 308.132126 
" clip-path="url(#pc6cae1cfe9)" style="fill: none; stroke: #4c72b0; stroke-width: 1.5; stroke-linecap: round"/>
   </g>
   <g id="line2d_12">
    <path d="M 62.025 340.420703 
L 64.254271 341.237821 
L 66.483543 342.215887 
L 68.712814 341.40496 
L 70.942085 341.84447 
L 73.171356 341.516385 
L 75.400628 342.568733 
L 77.629899 341.460672 
L 79.85917 341.84447 
L 82.088441 341.485432 
L 84.317713 339.442635 
L 86.546984 339.628343 
L 91.005526 336.421771 
L 93.234798 333.25234 
L 95.464069 333.64233 
L 97.69334 332.3857 
L 99.922611 328.058686 
L 102.151883 328.591047 
L 104.381154 330.448138 
L 106.610425 329.253411 
L 108.839696 329.791965 
L 111.068968 331.537628 
L 113.298239 331.060975 
L 115.52751 328.492005 
L 117.756781 329.22246 
L 122.215324 327.198231 
L 124.444595 327.656316 
L 126.673866 326.820627 
L 128.903138 327.78012 
L 131.132409 328.56629 
L 133.36168 327.625362 
L 135.590951 327.173473 
L 137.820223 322.846454 
L 140.049494 319.683213 
L 142.278765 320.487953 
L 144.508036 317.306142 
L 146.737308 311.772017 
L 148.966579 308.813057 
L 151.19585 312.384855 
L 153.425121 314.712407 
L 155.654393 314.217187 
L 157.883664 311.772017 
L 160.112935 312.589136 
L 162.342206 317.770414 
L 164.571478 315.690475 
L 166.800749 324.189752 
L 169.03002 318.637057 
L 171.259291 314.792884 
L 173.488563 311.827732 
L 175.717834 311.010614 
L 177.947105 312.465332 
L 180.176377 314.328612 
L 182.405648 308.800679 
L 184.634919 311.908205 
L 186.86419 310.564912 
L 189.093462 310.533958 
L 191.322733 307.16025 
L 193.552004 304.882221 
L 195.781275 296.766744 
L 198.010547 301.923261 
L 200.239818 302.75895 
L 202.469089 300.610917 
L 204.69836 300.908053 
L 206.927632 296.940072 
L 209.156903 294.76109 
L 211.386174 293.027806 
L 213.615445 296.8596 
L 215.844717 292.780193 
L 218.073988 289.17125 
L 220.303259 286.255627 
L 222.53253 284.522342 
L 224.761802 282.479543 
L 226.991073 287.957958 
L 229.220344 283.135713 
L 231.449615 281.77385 
L 233.678887 274.029795 
L 235.908158 275.719743 
L 238.137429 277.973009 
L 240.3667 270.365141 
L 242.595972 258.337394 
L 244.825243 270.507516 
L 247.054514 264.762923 
L 249.283785 263.035825 
L 251.513057 274.26502 
L 253.742328 263.543434 
L 255.971599 266.650965 
L 258.20087 267.994257 
L 260.430142 268.142818 
L 262.659413 274.494067 
L 264.888684 272.284127 
L 267.117955 271.479387 
L 271.576498 261.946337 
L 273.805769 265.078625 
L 276.03504 265.561467 
L 278.264312 268.056155 
L 280.493583 268.563763 
L 282.722854 273.639803 
L 284.952126 272.742212 
L 287.181397 279.972472 
L 289.410668 285.450887 
L 291.639939 294.618711 
L 293.869211 289.140302 
L 296.098482 285.017568 
L 298.327753 289.004119 
L 300.557024 289.276489 
L 302.786296 293.634457 
L 305.015567 296.469608 
L 307.244838 294.012065 
L 309.474109 289.350769 
L 311.703381 291.833079 
L 313.932652 291.45547 
L 316.161923 293.801593 
L 318.391194 289.090783 
L 320.620466 291.969266 
L 322.849737 291.678321 
L 325.079008 296.413898 
L 327.308279 298.61145 
L 329.537551 298.951918 
L 331.766822 298.041944 
L 333.996093 291.932126 
L 336.225364 296.444846 
L 338.454636 297.99242 
L 340.683907 298.110037 
L 342.913178 297.72005 
L 345.142449 298.790969 
L 347.371721 303.396549 
L 349.600992 300.988525 
L 351.830263 302.201822 
L 354.059534 300.691389 
L 356.288806 305.259829 
L 358.518077 305.544582 
L 360.747348 302.146112 
L 362.976619 294.909656 
L 365.205891 295.528685 
L 367.435162 291.808317 
L 369.664433 296.506753 
L 371.893704 290.062654 
L 374.122976 288.508894 
L 376.352247 291.108815 
L 378.581518 290.57645 
L 380.810789 292.866857 
L 383.040061 299.174769 
L 385.269332 300.499491 
L 387.498603 296.822455 
L 389.727874 294.544426 
L 391.957146 294.860133 
L 394.186417 293.591125 
L 396.415688 293.683976 
L 398.64496 295.293456 
L 400.874231 293.603503 
L 403.103502 290.465024 
L 405.332773 293.089708 
L 407.562045 293.653027 
L 409.791316 293.386844 
L 412.020587 291.808317 
L 414.249858 289.332199 
L 416.47913 290.972628 
L 418.708401 290.483594 
L 420.937672 291.226433 
L 423.166943 292.148785 
L 425.396215 294.903464 
L 429.854757 298.085275 
L 432.084028 298.549548 
L 434.3133 297.070068 
L 436.542571 296.828646 
L 438.771842 293.293989 
L 441.001113 291.127386 
L 443.230385 291.597849 
L 445.459656 292.823525 
L 447.688927 293.324942 
L 449.918198 292.006406 
L 452.14747 285.896588 
L 454.376741 285.890392 
L 456.606012 279.365826 
L 458.835283 282.386693 
L 461.064555 280.182949 
L 463.293826 283.011909 
L 465.523097 279.892005 
L 467.752368 275.91164 
L 469.98164 276.499716 
L 472.210911 276.703997 
L 474.440182 270.04943 
L 476.669453 267.505219 
L 478.898725 264.744353 
L 481.127996 253.564682 
L 483.357267 253.936094 
L 485.586538 258.708815 
L 487.81581 259.278321 
L 490.045081 265.177671 
L 492.274352 257.941216 
L 494.503623 261.500635 
L 496.732895 268.186155 
L 498.962166 269.331354 
L 501.191437 265.802888 
L 503.420709 257.928832 
L 505.64998 265.821458 
L 507.879251 263.227723 
L 510.108522 263.3082 
L 512.337794 266.694292 
L 514.567065 265.190055 
L 516.796336 265.901935 
L 519.025607 262.52203 
L 521.254879 264.298651 
L 523.48415 257.928832 
L 525.713421 256.523642 
L 527.942692 258.838806 
L 530.171964 262.410609 
L 532.401235 264.069603 
L 534.630506 266.768572 
L 539.089049 272.606025 
L 541.31832 274.314543 
L 543.547591 266.329067 
L 545.776862 263.339153 
L 548.006134 257.291233 
L 550.235405 263.252489 
L 552.464676 254.932732 
L 554.693947 253.954664 
L 556.923219 255.489855 
L 559.15249 257.996926 
L 561.381761 255.471285 
L 563.611032 256.913624 
L 565.840304 262.218711 
L 568.069575 254.394179 
L 570.298846 251.5095 
L 572.528117 250.01145 
L 574.757389 251.69521 
L 576.98666 251.162845 
L 579.215931 241.004569 
L 581.445202 237.197541 
L 583.674474 235.074266 
L 585.903745 235.253789 
L 588.133016 228.110184 
L 590.362287 225.17599 
L 592.591559 217.890011 
L 594.82083 211.421155 
L 597.050101 216.323867 
L 599.279372 218.465704 
L 601.508644 208.295054 
L 603.737915 205.379431 
L 605.967186 189.984152 
L 608.196457 180.308737 
L 610.425729 180.413962 
L 612.655 179.435904 
L 612.655 179.435904 
" clip-path="url(#pc6cae1cfe9)" style="fill: none; stroke: #dd8452; stroke-width: 1.5; stroke-linecap: round"/>
   </g>
   <g id="line2d_13">
    <path d="M 62.025 347.81636 
L 64.254271 347.195739 
L 66.483543 348.531201 
L 68.712814 348.626597 
L 70.942085 348.971067 
L 73.171356 349.81368 
L 75.400628 348.170843 
L 77.629899 348.841758 
L 79.85917 347.356518 
L 82.088441 347.674794 
L 84.317713 347.420168 
L 86.546984 347.733137 
L 88.776255 346.475993 
L 91.005526 346.864549 
L 93.234798 346.019122 
L 95.464069 346.497666 
L 97.69334 346.040698 
L 99.922611 346.083269 
L 102.151883 347.695506 
L 104.381154 347.708224 
L 106.610425 348.597421 
L 115.52751 344.888701 
L 117.756781 345.329529 
L 119.986053 344.844112 
L 122.215324 345.238846 
L 124.444595 345.117545 
L 126.673866 343.820543 
L 128.903138 343.046624 
L 131.132409 342.925346 
L 133.36168 342.962746 
L 135.590951 342.24697 
L 137.820223 340.875916 
L 140.049494 338.941258 
L 142.278765 340.929367 
L 144.508036 340.948931 
L 146.737308 344.207035 
L 148.966579 345.373333 
L 151.19585 344.943103 
L 153.425121 343.074514 
L 155.654393 341.575361 
L 157.883664 344.149896 
L 160.112935 343.994515 
L 162.342206 343.640891 
L 164.571478 347.48986 
L 166.800749 350.717453 
L 169.03002 352.738725 
L 171.259291 352.383168 
L 173.488563 352.748274 
L 175.717834 353.569773 
L 177.947105 352.044823 
L 180.176377 349.91509 
L 184.634919 348.761621 
L 186.86419 347.108499 
L 189.093462 346.796181 
L 191.322733 345.578768 
L 193.552004 346.27406 
L 195.781275 344.872676 
L 198.010547 343.651126 
L 200.239818 345.249219 
L 202.469089 344.185617 
L 204.69836 342.322233 
L 206.927632 341.738521 
L 209.156903 343.70583 
L 211.386174 345.178571 
L 213.615445 343.496633 
L 215.844717 344.771653 
L 218.073988 341.665536 
L 220.303259 339.974231 
L 222.53253 340.023176 
L 224.761802 338.675569 
L 226.991073 337.83642 
L 229.220344 336.871931 
L 231.449615 337.013035 
L 233.678887 336.112674 
L 235.908158 336.505565 
L 238.137429 337.150591 
L 240.3667 336.631029 
L 242.595972 338.238916 
L 244.825243 339.591215 
L 247.054514 336.599596 
L 249.283785 337.454354 
L 251.513057 337.64411 
L 253.742328 335.05905 
L 255.971599 332.925004 
L 258.20087 331.134895 
L 260.430142 331.57014 
L 262.659413 334.159599 
L 264.888684 332.921353 
L 267.117955 332.567947 
L 269.347227 330.712509 
L 271.576498 330.378119 
L 273.805769 332.382829 
L 276.03504 331.912115 
L 278.264312 332.082259 
L 280.493583 331.1133 
L 282.722854 330.985219 
L 284.952126 329.854984 
L 287.181397 328.878192 
L 289.410668 327.466043 
L 291.639939 328.445381 
L 293.869211 325.925709 
L 296.098482 326.093686 
L 298.327753 324.051699 
L 300.557024 321.855819 
L 302.786296 320.204693 
L 305.015567 318.795394 
L 307.244838 319.747519 
L 309.474109 317.243253 
L 311.703381 318.640329 
L 313.932652 318.799101 
L 316.161923 316.576367 
L 318.391194 314.959005 
L 320.620466 314.327918 
L 322.849737 311.621638 
L 325.079008 312.050848 
L 327.308279 310.563419 
L 329.537551 307.93619 
L 333.996093 310.519705 
L 336.225364 306.343943 
L 338.454636 307.806681 
L 340.683907 306.642822 
L 342.913178 305.255333 
L 345.142449 306.822681 
L 347.371721 304.018356 
L 349.600992 308.408732 
L 351.830263 309.731844 
L 354.059534 303.066892 
L 356.288806 302.669405 
L 358.518077 303.716894 
L 360.747348 308.183401 
L 362.976619 309.12525 
L 365.205891 305.066704 
L 367.435162 307.083471 
L 369.664433 304.406038 
L 371.893704 305.862726 
L 374.122976 301.394282 
L 376.352247 300.691181 
L 378.581518 299.193504 
L 380.810789 300.201274 
L 383.040061 299.904175 
L 385.269332 299.129193 
L 387.498603 295.571101 
L 389.727874 292.386919 
L 391.957146 290.847223 
L 394.186417 288.733671 
L 396.415688 285.630722 
L 398.64496 287.54814 
L 400.874231 284.26645 
L 403.103502 282.522899 
L 405.332773 282.776306 
L 407.562045 278.834414 
L 409.791316 277.069354 
L 412.020587 276.518806 
L 414.249858 268.476958 
L 416.47913 269.768149 
L 418.708401 273.789167 
L 420.937672 273.310887 
L 423.166943 267.919287 
L 425.396215 266.769281 
L 427.625486 263.928656 
L 429.854757 257.892344 
L 432.084028 258.203408 
L 434.3133 267.671396 
L 436.542571 267.938207 
L 438.771842 276.634713 
L 441.001113 268.370364 
L 443.230385 265.379733 
L 445.459656 261.33851 
L 447.688927 255.453602 
L 449.918198 264.739611 
L 452.14747 256.875417 
L 454.376741 254.272718 
L 456.606012 256.439652 
L 458.835283 255.412467 
L 463.293826 245.66842 
L 465.523097 240.900516 
L 467.752368 237.028002 
L 469.98164 244.982789 
L 472.210911 253.971222 
L 474.440182 236.844237 
L 478.898725 219.350486 
L 481.127996 208.404132 
L 483.357267 190.898301 
L 485.586538 201.152658 
L 487.81581 206.243707 
L 490.045081 188.045869 
L 492.274352 179.206544 
L 494.503623 178.712141 
L 496.732895 178.965359 
L 498.962166 175.714057 
L 501.191437 164.329529 
L 503.420709 166.780276 
L 505.64998 154.157652 
L 507.879251 148.02966 
L 510.108522 138.735018 
L 512.337794 151.78451 
L 514.567065 134.753643 
L 516.796336 130.089103 
L 519.025607 127.343444 
L 521.254879 148.424507 
L 523.48415 158.268337 
L 525.713421 148.461893 
L 527.942692 178.357495 
L 530.171964 181.371939 
L 532.401235 198.027832 
L 534.630506 176.649326 
L 536.859777 186.487829 
L 539.089049 205.648102 
L 541.31832 199.140208 
L 543.547591 189.758911 
L 545.776862 205.856587 
L 548.006134 188.562451 
L 550.235405 189.209288 
L 552.464676 172.203793 
L 554.693947 171.207599 
L 556.923219 155.665157 
L 559.15249 142.25777 
L 561.381761 133.53032 
L 563.611032 137.012719 
L 565.840304 148.764418 
L 568.069575 153.299969 
L 570.298846 130.03394 
L 572.528117 116.719215 
L 574.757389 112.141518 
L 576.98666 98.605028 
L 579.215931 95.165851 
L 581.445202 107.114378 
L 583.674474 91.043547 
L 585.903745 73.101403 
L 588.133016 78.056019 
L 590.362287 74.851548 
L 592.591559 67.157167 
L 594.82083 69.761368 
L 597.050101 53.784351 
L 599.279372 52.356095 
L 601.508644 45.519851 
L 603.737915 54.247509 
L 605.967186 78.076006 
L 608.196457 74.02137 
L 610.425729 47.006934 
L 612.655 40.315227 
L 612.655 40.315227 
" clip-path="url(#pc6cae1cfe9)" style="fill: none; stroke: #55a868; stroke-width: 1.5; stroke-linecap: round"/>
   </g>
   <g id="patch_3">
    <path d="M 62.025 369.2325 
L 62.025 24.6525 
" style="fill: none; stroke: #cccccc; stroke-width: 1.25; stroke-linejoin: miter; stroke-linecap: square"/>
   </g>
   <g id="patch_4">
    <path d="M 612.655 369.2325 
L 612.655 24.6525 
" style="fill: none; stroke: #cccccc; stroke-width: 1.25; stroke-linejoin: miter; stroke-linecap: square"/>
   </g>
   <g id="patch_5">
    <path d="M 62.025 369.2325 
L 612.655 369.2325 
" style="fill: none; stroke: #cccccc; stroke-width: 1.25; stroke-linejoin: miter; stroke-linecap: square"/>
   </g>
   <g id="patch_6">
    <path d="M 62.025 24.6525 
L 612.655 24.6525 
" style="fill: none; stroke: #cccccc; stroke-width: 1.25; stroke-linejoin: miter; stroke-linecap: square"/>
   </g>
   <g id="text_13">
    <!-- Asset Prices Over Time -->
    <g style="fill: #262626" transform="translate(253.7675 18.6525) scale(0.16 -0.16)">
     <defs>
      <path id="ArialMT-41" d="M -9 0 
L 1750 4581 
L 2403 4581 
L 4278 0 
L 3588 0 
L 3053 1388 
L 1138 1388 
L 634 0 
L -9 0 
z
M 1313 1881 
L 2866 1881 
L 2388 3150 
Q 2169 3728 2063 4100 
Q 1975 3659 1816 3225 
L 1313 1881 
z
" transform="scale(0.015625)"/>
      <path id="ArialMT-73" d="M 197 991 
L 753 1078 
Q 800 744 1014 566 
Q 1228 388 1613 388 
Q 2000 388 2187 545 
Q 2375 703 2375 916 
Q 2375 1106 2209 1216 
Q 2094 1291 1634 1406 
Q 1016 1563 777 1677 
Q 538 1791 414 1992 
Q 291 2194 291 2438 
Q 291 2659 392 2848 
Q 494 3038 669 3163 
Q 800 3259 1026 3326 
Q 1253 3394 1513 3394 
Q 1903 3394 2198 3281 
Q 2494 3169 2634 2976 
Q 2775 2784 2828 2463 
L 2278 2388 
Q 2241 2644 2061 2787 
Q 1881 2931 1553 2931 
Q 1166 2931 1000 2803 
Q 834 2675 834 2503 
Q 834 2394 903 2306 
Q 972 2216 1119 2156 
Q 1203 2125 1616 2013 
Q 2213 1853 2448 1751 
Q 2684 1650 2818 1456 
Q 2953 1263 2953 975 
Q 2953 694 2789 445 
Q 2625 197 2315 61 
Q 2006 -75 1616 -75 
Q 969 -75 630 194 
Q 291 463 197 991 
z
" transform="scale(0.015625)"/>
      <path id="ArialMT-20" transform="scale(0.015625)"/>
      <path id="ArialMT-4f" d="M 309 2231 
Q 309 3372 921 4017 
Q 1534 4663 2503 4663 
Q 3138 4663 3647 4359 
Q 4156 4056 4423 3514 
Q 4691 2972 4691 2284 
Q 4691 1588 4409 1038 
Q 4128 488 3612 205 
Q 3097 -78 2500 -78 
Q 1853 -78 1343 234 
Q 834 547 571 1087 
Q 309 1628 309 2231 
z
M 934 2222 
Q 934 1394 1379 917 
Q 1825 441 2497 441 
Q 3181 441 3623 922 
Q 4066 1403 4066 2288 
Q 4066 2847 3877 3264 
Q 3688 3681 3323 3911 
Q 2959 4141 2506 4141 
Q 1863 4141 1398 3698 
Q 934 3256 934 2222 
z
" transform="scale(0.015625)"/>
      <path id="ArialMT-76" d="M 1344 0 
L 81 3319 
L 675 3319 
L 1388 1331 
Q 1503 1009 1600 663 
Q 1675 925 1809 1294 
L 2547 3319 
L 3125 3319 
L 1869 0 
L 1344 0 
z
" transform="scale(0.015625)"/>
      <path id="ArialMT-54" d="M 1659 0 
L 1659 4041 
L 150 4041 
L 150 4581 
L 3781 4581 
L 3781 4041 
L 2266 4041 
L 2266 0 
L 1659 0 
z
" transform="scale(0.015625)"/>
      <path id="ArialMT-6d" d="M 422 0 
L 422 3319 
L 925 3319 
L 925 2853 
Q 1081 3097 1340 3245 
Q 1600 3394 1931 3394 
Q 2300 3394 2536 3241 
Q 2772 3088 2869 2813 
Q 3263 3394 3894 3394 
Q 4388 3394 4653 3120 
Q 4919 2847 4919 2278 
L 4919 0 
L 4359 0 
L 4359 2091 
Q 4359 2428 4304 2576 
Q 4250 2725 4106 2815 
Q 3963 2906 3769 2906 
Q 3419 2906 3187 2673 
Q 2956 2441 2956 1928 
L 2956 0 
L 2394 0 
L 2394 2156 
Q 2394 2531 2256 2718 
Q 2119 2906 1806 2906 
Q 1569 2906 1367 2781 
Q 1166 2656 1075 2415 
Q 984 2175 984 1722 
L 984 0 
L 422 0 
z
" transform="scale(0.015625)"/>
     </defs>
     <use xlink:href="#ArialMT-41"/>
     <use xlink:href="#ArialMT-73" x="66.699219"/>
     <use xlink:href="#ArialMT-73" x="116.699219"/>
     <use xlink:href="#ArialMT-65" x="166.699219"/>
     <use xlink:href="#ArialMT-74" x="222.314453"/>
     <use xlink:href="#ArialMT-20" x="250.097656"/>
     <use xlink:href="#ArialMT-50" x="277.880859"/>
     <use xlink:href="#ArialMT-72" x="344.580078"/>
     <use xlink:href="#ArialMT-69" x="377.880859"/>
     <use xlink:href="#ArialMT-63" x="400.097656"/>
     <use xlink:href="#ArialMT-65" x="450.097656"/>
     <use xlink:href="#ArialMT-73" x="505.712891"/>
     <use xlink:href="#ArialMT-20" x="555.712891"/>
     <use xlink:href="#ArialMT-4f" x="583.496094"/>
     <use xlink:href="#ArialMT-76" x="661.279297"/>
     <use xlink:href="#ArialMT-65" x="711.279297"/>
     <use xlink:href="#ArialMT-72" x="766.894531"/>
     <use xlink:href="#ArialMT-20" x="800.195312"/>
     <use xlink:href="#ArialMT-54" x="826.228516"/>
     <use xlink:href="#ArialMT-69" x="883.5625"/>
     <use xlink:href="#ArialMT-6d" x="905.779297"/>
     <use xlink:href="#ArialMT-65" x="989.080078"/>
    </g>
   </g>
   <g id="legend_1">
    <g id="text_14">
     <!-- Assets -->
     <g style="fill: #262626" transform="translate(644.115 167.13) scale(0.16 -0.16)">
      <use xlink:href="#ArialMT-41"/>
      <use xlink:href="#ArialMT-73" x="66.699219"/>
      <use xlink:href="#ArialMT-73" x="116.699219"/>
      <use xlink:href="#ArialMT-65" x="166.699219"/>
      <use xlink:href="#ArialMT-74" x="222.314453"/>
      <use xlink:href="#ArialMT-73" x="250.097656"/>
     </g>
    </g>
    <g id="line2d_14">
     <path d="M 627.055 184.1625 
L 643.055 184.1625 
L 659.055 184.1625 
" style="fill: none; stroke: #4c72b0; stroke-width: 1.5; stroke-linecap: round"/>
    </g>
    <g id="text_15">
     <!-- AGG -->
     <g style="fill: #262626" transform="translate(671.855 189.7625) scale(0.16 -0.16)">
      <defs>
       <path id="ArialMT-47" d="M 2638 1797 
L 2638 2334 
L 4578 2338 
L 4578 638 
Q 4131 281 3656 101 
Q 3181 -78 2681 -78 
Q 2006 -78 1454 211 
Q 903 500 622 1047 
Q 341 1594 341 2269 
Q 341 2938 620 3517 
Q 900 4097 1425 4378 
Q 1950 4659 2634 4659 
Q 3131 4659 3532 4498 
Q 3934 4338 4162 4050 
Q 4391 3763 4509 3300 
L 3963 3150 
Q 3859 3500 3706 3700 
Q 3553 3900 3268 4020 
Q 2984 4141 2638 4141 
Q 2222 4141 1919 4014 
Q 1616 3888 1430 3681 
Q 1244 3475 1141 3228 
Q 966 2803 966 2306 
Q 966 1694 1177 1281 
Q 1388 869 1791 669 
Q 2194 469 2647 469 
Q 3041 469 3416 620 
Q 3791 772 3984 944 
L 3984 1797 
L 2638 1797 
z
" transform="scale(0.015625)"/>
      </defs>
      <use xlink:href="#ArialMT-41"/>
      <use xlink:href="#ArialMT-47" x="66.699219"/>
      <use xlink:href="#ArialMT-47" x="144.482422"/>
     </g>
    </g>
    <g id="line2d_15">
     <path d="M 627.055 206.795 
L 643.055 206.795 
L 659.055 206.795 
" style="fill: none; stroke: #dd8452; stroke-width: 1.5; stroke-linecap: round"/>
    </g>
    <g id="text_16">
     <!-- GLD -->
     <g style="fill: #262626" transform="translate(671.855 212.395) scale(0.16 -0.16)">
      <defs>
       <path id="ArialMT-4c" d="M 469 0 
L 469 4581 
L 1075 4581 
L 1075 541 
L 3331 541 
L 3331 0 
L 469 0 
z
" transform="scale(0.015625)"/>
      </defs>
      <use xlink:href="#ArialMT-47"/>
      <use xlink:href="#ArialMT-4c" x="77.783203"/>
      <use xlink:href="#ArialMT-44" x="133.398438"/>
     </g>
    </g>
    <g id="line2d_16">
     <path d="M 627.055 229.4275 
L 643.055 229.4275 
L 659.055 229.4275 
" style="fill: none; stroke: #55a868; stroke-width: 1.5; stroke-linecap: round"/>
    </g>
    <g id="text_17">
     <!-- QQQ -->
     <g style="fill: #262626" transform="translate(671.855 235.0275) scale(0.16 -0.16)">
      <defs>
       <path id="ArialMT-51" d="M 3966 491 
Q 4388 200 4744 66 
L 4566 -356 
Q 4072 -178 3581 206 
Q 3072 -78 2456 -78 
Q 1834 -78 1328 222 
Q 822 522 548 1065 
Q 275 1609 275 2291 
Q 275 2969 550 3525 
Q 825 4081 1333 4372 
Q 1841 4663 2469 4663 
Q 3103 4663 3612 4361 
Q 4122 4059 4389 3517 
Q 4656 2975 4656 2294 
Q 4656 1728 4484 1276 
Q 4313 825 3966 491 
z
M 2631 1266 
Q 3156 1119 3497 828 
Q 4031 1316 4031 2294 
Q 4031 2850 3842 3265 
Q 3653 3681 3289 3911 
Q 2925 4141 2472 4141 
Q 1794 4141 1347 3677 
Q 900 3213 900 2291 
Q 900 1397 1342 919 
Q 1784 441 2472 441 
Q 2797 441 3084 563 
Q 2800 747 2484 825 
L 2631 1266 
z
" transform="scale(0.015625)"/>
      </defs>
      <use xlink:href="#ArialMT-51"/>
      <use xlink:href="#ArialMT-51" x="77.783203"/>
      <use xlink:href="#ArialMT-51" x="155.566406"/>
     </g>
    </g>
   </g>
  </g>
 </g>
 <defs>
  <clipPath id="pc6cae1cfe9">
   <rect x="62.025" y="24.6525" width="550.63" height="344.58"/>
  </clipPath>
 </defs>
</svg>
