<?xml version="1.0" encoding="utf-8" standalone="no"?>
<!DOCTYPE svg PUBLIC "-//W3C//DTD SVG 1.1//EN"
  "http://www.w3.org/Graphics/SVG/1.1/DTD/svg11.dtd">
<svg xmlns:xlink="http://www.w3.org/1999/xlink" width="564.439375pt" height="347.119375pt" viewBox="0 0 564.439375 347.119375" xmlns="http://www.w3.org/2000/svg" version="1.1">
 <metadata>
  <rdf:RDF xmlns:dc="http://purl.org/dc/elements/1.1/" xmlns:cc="http://creativecommons.org/ns#" xmlns:rdf="http://www.w3.org/1999/02/22-rdf-syntax-ns#">
   <cc:Work>
    <dc:type rdf:resource="http://purl.org/dc/dcmitype/StillImage"/>
    <dc:date>2025-06-08T10:35:39.592813</dc:date>
    <dc:format>image/svg+xml</dc:format>
    <dc:creator>
     <cc:Agent>
      <dc:title>Matplotlib v3.7.5, https://matplotlib.org/</dc:title>
     </cc:Agent>
    </dc:creator>
   </cc:Work>
  </rdf:RDF>
 </metadata>
 <defs>
  <style type="text/css">*{stroke-linejoin: round; stroke-linecap: butt}</style>
 </defs>
 <g id="figure_1">
  <g id="patch_1">
   <path d="M 0 347.119375 
L 564.439375 347.119375 
L 564.439375 0 
L 0 0 
z
" style="fill: #ffffff"/>
  </g>
  <g id="axes_1">
   <g id="patch_2">
    <path d="M 44.6125 297.154375 
L 557.239375 297.154375 
L 557.239375 24.6525 
L 44.6125 24.6525 
z
" style="fill: #ffffff"/>
   </g>
   <g id="matplotlib.axis_1">
    <g id="xtick_1">
     <g id="line2d_1">
      <path d="M 67.913722 297.154375 
L 67.913722 24.6525 
" clip-path="url(#p1ac17901b4)" style="fill: none; stroke: #cccccc; stroke-linecap: round"/>
     </g>
     <g id="text_1">
      <!-- 0 -->
      <g style="fill: #262626" transform="translate(63.464972 318.106875) scale(0.16 -0.16)">
       <defs>
        <path id="ArialMT-30" d="M 266 2259 
Q 266 3072 433 3567 
Q 600 4063 929 4331 
Q 1259 4600 1759 4600 
Q 2128 4600 2406 4451 
Q 2684 4303 2865 4023 
Q 3047 3744 3150 3342 
Q 3253 2941 3253 2259 
Q 3253 1453 3087 958 
Q 2922 463 2592 192 
Q 2263 -78 1759 -78 
Q 1097 -78 719 397 
Q 266 969 266 2259 
z
M 844 2259 
Q 844 1131 1108 757 
Q 1372 384 1759 384 
Q 2147 384 2411 759 
Q 2675 1134 2675 2259 
Q 2675 3391 2411 3762 
Q 2147 4134 1753 4134 
Q 1366 4134 1134 3806 
Q 844 3388 844 2259 
z
" transform="scale(0.015625)"/>
       </defs>
       <use xlink:href="#ArialMT-30"/>
      </g>
     </g>
    </g>
    <g id="xtick_2">
     <g id="line2d_2">
      <path d="M 178.87192 297.154375 
L 178.87192 24.6525 
" clip-path="url(#p1ac17901b4)" style="fill: none; stroke: #cccccc; stroke-linecap: round"/>
     </g>
     <g id="text_2">
      <!-- 50 -->
      <g style="fill: #262626" transform="translate(169.97442 318.106875) scale(0.16 -0.16)">
       <defs>
        <path id="ArialMT-35" d="M 266 1200 
L 856 1250 
Q 922 819 1161 601 
Q 1400 384 1738 384 
Q 2144 384 2425 690 
Q 2706 997 2706 1503 
Q 2706 1984 2436 2262 
Q 2166 2541 1728 2541 
Q 1456 2541 1237 2417 
Q 1019 2294 894 2097 
L 366 2166 
L 809 4519 
L 3088 4519 
L 3088 3981 
L 1259 3981 
L 1013 2750 
Q 1425 3038 1878 3038 
Q 2478 3038 2890 2622 
Q 3303 2206 3303 1553 
Q 3303 931 2941 478 
Q 2500 -78 1738 -78 
Q 1113 -78 717 272 
Q 322 622 266 1200 
z
" transform="scale(0.015625)"/>
       </defs>
       <use xlink:href="#ArialMT-35"/>
       <use xlink:href="#ArialMT-30" x="55.615234"/>
      </g>
     </g>
    </g>
    <g id="xtick_3">
     <g id="line2d_3">
      <path d="M 289.830118 297.154375 
L 289.830118 24.6525 
" clip-path="url(#p1ac17901b4)" style="fill: none; stroke: #cccccc; stroke-linecap: round"/>
     </g>
     <g id="text_3">
      <!-- 100 -->
      <g style="fill: #262626" transform="translate(276.483868 318.106875) scale(0.16 -0.16)">
       <defs>
        <path id="ArialMT-31" d="M 2384 0 
L 1822 0 
L 1822 3584 
Q 1619 3391 1289 3197 
Q 959 3003 697 2906 
L 697 3450 
Q 1169 3672 1522 3987 
Q 1875 4303 2022 4600 
L 2384 4600 
L 2384 0 
z
" transform="scale(0.015625)"/>
       </defs>
       <use xlink:href="#ArialMT-31"/>
       <use xlink:href="#ArialMT-30" x="55.615234"/>
       <use xlink:href="#ArialMT-30" x="111.230469"/>
      </g>
     </g>
    </g>
    <g id="xtick_4">
     <g id="line2d_4">
      <path d="M 400.788316 297.154375 
L 400.788316 24.6525 
" clip-path="url(#p1ac17901b4)" style="fill: none; stroke: #cccccc; stroke-linecap: round"/>
     </g>
     <g id="text_4">
      <!-- 150 -->
      <g style="fill: #262626" transform="translate(387.442066 318.106875) scale(0.16 -0.16)">
       <use xlink:href="#ArialMT-31"/>
       <use xlink:href="#ArialMT-35" x="55.615234"/>
       <use xlink:href="#ArialMT-30" x="111.230469"/>
      </g>
     </g>
    </g>
    <g id="xtick_5">
     <g id="line2d_5">
      <path d="M 511.746514 297.154375 
L 511.746514 24.6525 
" clip-path="url(#p1ac17901b4)" style="fill: none; stroke: #cccccc; stroke-linecap: round"/>
     </g>
     <g id="text_5">
      <!-- 200 -->
      <g style="fill: #262626" transform="translate(498.400264 318.106875) scale(0.16 -0.16)">
       <defs>
        <path id="ArialMT-32" d="M 3222 541 
L 3222 0 
L 194 0 
Q 188 203 259 391 
Q 375 700 629 1000 
Q 884 1300 1366 1694 
Q 2113 2306 2375 2664 
Q 2638 3022 2638 3341 
Q 2638 3675 2398 3904 
Q 2159 4134 1775 4134 
Q 1369 4134 1125 3890 
Q 881 3647 878 3216 
L 300 3275 
Q 359 3922 746 4261 
Q 1134 4600 1788 4600 
Q 2447 4600 2831 4234 
Q 3216 3869 3216 3328 
Q 3216 3053 3103 2787 
Q 2991 2522 2730 2228 
Q 2469 1934 1863 1422 
Q 1356 997 1212 845 
Q 1069 694 975 541 
L 3222 541 
z
" transform="scale(0.015625)"/>
       </defs>
       <use xlink:href="#ArialMT-32"/>
       <use xlink:href="#ArialMT-30" x="55.615234"/>
       <use xlink:href="#ArialMT-30" x="111.230469"/>
      </g>
     </g>
    </g>
    <g id="text_6">
     <!-- Month -->
     <g style="fill: #262626" transform="translate(278.693438 336.739375) scale(0.16 -0.16)">
      <defs>
       <path id="ArialMT-4d" d="M 475 0 
L 475 4581 
L 1388 4581 
L 2472 1338 
Q 2622 884 2691 659 
Q 2769 909 2934 1394 
L 4031 4581 
L 4847 4581 
L 4847 0 
L 4263 0 
L 4263 3834 
L 2931 0 
L 2384 0 
L 1059 3900 
L 1059 0 
L 475 0 
z
" transform="scale(0.015625)"/>
       <path id="ArialMT-6f" d="M 213 1659 
Q 213 2581 725 3025 
Q 1153 3394 1769 3394 
Q 2453 3394 2887 2945 
Q 3322 2497 3322 1706 
Q 3322 1066 3130 698 
Q 2938 331 2570 128 
Q 2203 -75 1769 -75 
Q 1072 -75 642 372 
Q 213 819 213 1659 
z
M 791 1659 
Q 791 1022 1069 705 
Q 1347 388 1769 388 
Q 2188 388 2466 706 
Q 2744 1025 2744 1678 
Q 2744 2294 2464 2611 
Q 2184 2928 1769 2928 
Q 1347 2928 1069 2612 
Q 791 2297 791 1659 
z
" transform="scale(0.015625)"/>
       <path id="ArialMT-6e" d="M 422 0 
L 422 3319 
L 928 3319 
L 928 2847 
Q 1294 3394 1984 3394 
Q 2284 3394 2536 3286 
Q 2788 3178 2913 3003 
Q 3038 2828 3088 2588 
Q 3119 2431 3119 2041 
L 3119 0 
L 2556 0 
L 2556 2019 
Q 2556 2363 2490 2533 
Q 2425 2703 2258 2804 
Q 2091 2906 1866 2906 
Q 1506 2906 1245 2678 
Q 984 2450 984 1813 
L 984 0 
L 422 0 
z
" transform="scale(0.015625)"/>
       <path id="ArialMT-74" d="M 1650 503 
L 1731 6 
Q 1494 -44 1306 -44 
Q 1000 -44 831 53 
Q 663 150 594 308 
Q 525 466 525 972 
L 525 2881 
L 113 2881 
L 113 3319 
L 525 3319 
L 525 4141 
L 1084 4478 
L 1084 3319 
L 1650 3319 
L 1650 2881 
L 1084 2881 
L 1084 941 
Q 1084 700 1114 631 
Q 1144 563 1211 522 
Q 1278 481 1403 481 
Q 1497 481 1650 503 
z
" transform="scale(0.015625)"/>
       <path id="ArialMT-68" d="M 422 0 
L 422 4581 
L 984 4581 
L 984 2938 
Q 1378 3394 1978 3394 
Q 2347 3394 2619 3248 
Q 2891 3103 3008 2847 
Q 3125 2591 3125 2103 
L 3125 0 
L 2563 0 
L 2563 2103 
Q 2563 2525 2380 2717 
Q 2197 2909 1863 2909 
Q 1613 2909 1392 2779 
Q 1172 2650 1078 2428 
Q 984 2206 984 1816 
L 984 0 
L 422 0 
z
" transform="scale(0.015625)"/>
      </defs>
      <use xlink:href="#ArialMT-4d"/>
      <use xlink:href="#ArialMT-6f" x="83.300781"/>
      <use xlink:href="#ArialMT-6e" x="138.916016"/>
      <use xlink:href="#ArialMT-74" x="194.53125"/>
      <use xlink:href="#ArialMT-68" x="222.314453"/>
     </g>
    </g>
   </g>
   <g id="matplotlib.axis_2">
    <g id="ytick_1">
     <g id="line2d_6">
      <path d="M 44.6125 284.907702 
L 557.239375 284.907702 
" clip-path="url(#p1ac17901b4)" style="fill: none; stroke: #cccccc; stroke-linecap: round"/>
     </g>
     <g id="text_7">
      <!-- 0 -->
      <g style="fill: #262626" transform="translate(26.215 290.633952) scale(0.16 -0.16)">
       <use xlink:href="#ArialMT-30"/>
      </g>
     </g>
    </g>
    <g id="ytick_2">
     <g id="line2d_7">
      <path d="M 44.6125 238.315832 
L 557.239375 238.315832 
" clip-path="url(#p1ac17901b4)" style="fill: none; stroke: #cccccc; stroke-linecap: round"/>
     </g>
     <g id="text_8">
      <!-- 1 -->
      <g style="fill: #262626" transform="translate(26.215 244.042082) scale(0.16 -0.16)">
       <use xlink:href="#ArialMT-31"/>
      </g>
     </g>
    </g>
    <g id="ytick_3">
     <g id="line2d_8">
      <path d="M 44.6125 191.723963 
L 557.239375 191.723963 
" clip-path="url(#p1ac17901b4)" style="fill: none; stroke: #cccccc; stroke-linecap: round"/>
     </g>
     <g id="text_9">
      <!-- 2 -->
      <g style="fill: #262626" transform="translate(26.215 197.450213) scale(0.16 -0.16)">
       <use xlink:href="#ArialMT-32"/>
      </g>
     </g>
    </g>
    <g id="ytick_4">
     <g id="line2d_9">
      <path d="M 44.6125 145.132094 
L 557.239375 145.132094 
" clip-path="url(#p1ac17901b4)" style="fill: none; stroke: #cccccc; stroke-linecap: round"/>
     </g>
     <g id="text_10">
      <!-- 3 -->
      <g style="fill: #262626" transform="translate(26.215 150.858344) scale(0.16 -0.16)">
       <defs>
        <path id="ArialMT-33" d="M 269 1209 
L 831 1284 
Q 928 806 1161 595 
Q 1394 384 1728 384 
Q 2125 384 2398 659 
Q 2672 934 2672 1341 
Q 2672 1728 2419 1979 
Q 2166 2231 1775 2231 
Q 1616 2231 1378 2169 
L 1441 2663 
Q 1497 2656 1531 2656 
Q 1891 2656 2178 2843 
Q 2466 3031 2466 3422 
Q 2466 3731 2256 3934 
Q 2047 4138 1716 4138 
Q 1388 4138 1169 3931 
Q 950 3725 888 3313 
L 325 3413 
Q 428 3978 793 4289 
Q 1159 4600 1703 4600 
Q 2078 4600 2393 4439 
Q 2709 4278 2876 4000 
Q 3044 3722 3044 3409 
Q 3044 3113 2884 2869 
Q 2725 2625 2413 2481 
Q 2819 2388 3044 2092 
Q 3269 1797 3269 1353 
Q 3269 753 2831 336 
Q 2394 -81 1725 -81 
Q 1122 -81 723 278 
Q 325 638 269 1209 
z
" transform="scale(0.015625)"/>
       </defs>
       <use xlink:href="#ArialMT-33"/>
      </g>
     </g>
    </g>
    <g id="ytick_5">
     <g id="line2d_10">
      <path d="M 44.6125 98.540224 
L 557.239375 98.540224 
" clip-path="url(#p1ac17901b4)" style="fill: none; stroke: #cccccc; stroke-linecap: round"/>
     </g>
     <g id="text_11">
      <!-- 4 -->
      <g style="fill: #262626" transform="translate(26.215 104.266474) scale(0.16 -0.16)">
       <defs>
        <path id="ArialMT-34" d="M 2069 0 
L 2069 1097 
L 81 1097 
L 81 1613 
L 2172 4581 
L 2631 4581 
L 2631 1613 
L 3250 1613 
L 3250 1097 
L 2631 1097 
L 2631 0 
L 2069 0 
z
M 2069 1613 
L 2069 3678 
L 634 1613 
L 2069 1613 
z
" transform="scale(0.015625)"/>
       </defs>
       <use xlink:href="#ArialMT-34"/>
      </g>
     </g>
    </g>
    <g id="ytick_6">
     <g id="line2d_11">
      <path d="M 44.6125 51.948355 
L 557.239375 51.948355 
" clip-path="url(#p1ac17901b4)" style="fill: none; stroke: #cccccc; stroke-linecap: round"/>
     </g>
     <g id="text_12">
      <!-- 5 -->
      <g style="fill: #262626" transform="translate(26.215 57.674605) scale(0.16 -0.16)">
       <use xlink:href="#ArialMT-35"/>
      </g>
     </g>
    </g>
    <g id="text_13">
     <!-- Risk Free Rate (%) -->
     <g style="fill: #262626" transform="translate(18.8475 228.912187) rotate(-90) scale(0.16 -0.16)">
      <defs>
       <path id="ArialMT-52" d="M 503 0 
L 503 4581 
L 2534 4581 
Q 3147 4581 3465 4457 
Q 3784 4334 3975 4021 
Q 4166 3709 4166 3331 
Q 4166 2844 3850 2509 
Q 3534 2175 2875 2084 
Q 3116 1969 3241 1856 
Q 3506 1613 3744 1247 
L 4541 0 
L 3778 0 
L 3172 953 
Q 2906 1366 2734 1584 
Q 2563 1803 2427 1890 
Q 2291 1978 2150 2013 
Q 2047 2034 1813 2034 
L 1109 2034 
L 1109 0 
L 503 0 
z
M 1109 2559 
L 2413 2559 
Q 2828 2559 3062 2645 
Q 3297 2731 3419 2920 
Q 3541 3109 3541 3331 
Q 3541 3656 3305 3865 
Q 3069 4075 2559 4075 
L 1109 4075 
L 1109 2559 
z
" transform="scale(0.015625)"/>
       <path id="ArialMT-69" d="M 425 3934 
L 425 4581 
L 988 4581 
L 988 3934 
L 425 3934 
z
M 425 0 
L 425 3319 
L 988 3319 
L 988 0 
L 425 0 
z
" transform="scale(0.015625)"/>
       <path id="ArialMT-73" d="M 197 991 
L 753 1078 
Q 800 744 1014 566 
Q 1228 388 1613 388 
Q 2000 388 2187 545 
Q 2375 703 2375 916 
Q 2375 1106 2209 1216 
Q 2094 1291 1634 1406 
Q 1016 1563 777 1677 
Q 538 1791 414 1992 
Q 291 2194 291 2438 
Q 291 2659 392 2848 
Q 494 3038 669 3163 
Q 800 3259 1026 3326 
Q 1253 3394 1513 3394 
Q 1903 3394 2198 3281 
Q 2494 3169 2634 2976 
Q 2775 2784 2828 2463 
L 2278 2388 
Q 2241 2644 2061 2787 
Q 1881 2931 1553 2931 
Q 1166 2931 1000 2803 
Q 834 2675 834 2503 
Q 834 2394 903 2306 
Q 972 2216 1119 2156 
Q 1203 2125 1616 2013 
Q 2213 1853 2448 1751 
Q 2684 1650 2818 1456 
Q 2953 1263 2953 975 
Q 2953 694 2789 445 
Q 2625 197 2315 61 
Q 2006 -75 1616 -75 
Q 969 -75 630 194 
Q 291 463 197 991 
z
" transform="scale(0.015625)"/>
       <path id="ArialMT-6b" d="M 425 0 
L 425 4581 
L 988 4581 
L 988 1969 
L 2319 3319 
L 3047 3319 
L 1778 2088 
L 3175 0 
L 2481 0 
L 1384 1697 
L 988 1316 
L 988 0 
L 425 0 
z
" transform="scale(0.015625)"/>
       <path id="ArialMT-20" transform="scale(0.015625)"/>
       <path id="ArialMT-46" d="M 525 0 
L 525 4581 
L 3616 4581 
L 3616 4041 
L 1131 4041 
L 1131 2622 
L 3281 2622 
L 3281 2081 
L 1131 2081 
L 1131 0 
L 525 0 
z
" transform="scale(0.015625)"/>
       <path id="ArialMT-72" d="M 416 0 
L 416 3319 
L 922 3319 
L 922 2816 
Q 1116 3169 1280 3281 
Q 1444 3394 1641 3394 
Q 1925 3394 2219 3213 
L 2025 2691 
Q 1819 2813 1613 2813 
Q 1428 2813 1281 2702 
Q 1134 2591 1072 2394 
Q 978 2094 978 1738 
L 978 0 
L 416 0 
z
" transform="scale(0.015625)"/>
       <path id="ArialMT-65" d="M 2694 1069 
L 3275 997 
Q 3138 488 2766 206 
Q 2394 -75 1816 -75 
Q 1088 -75 661 373 
Q 234 822 234 1631 
Q 234 2469 665 2931 
Q 1097 3394 1784 3394 
Q 2450 3394 2872 2941 
Q 3294 2488 3294 1666 
Q 3294 1616 3291 1516 
L 816 1516 
Q 847 969 1125 678 
Q 1403 388 1819 388 
Q 2128 388 2347 550 
Q 2566 713 2694 1069 
z
M 847 1978 
L 2700 1978 
Q 2663 2397 2488 2606 
Q 2219 2931 1791 2931 
Q 1403 2931 1139 2672 
Q 875 2413 847 1978 
z
" transform="scale(0.015625)"/>
       <path id="ArialMT-61" d="M 2588 409 
Q 2275 144 1986 34 
Q 1697 -75 1366 -75 
Q 819 -75 525 192 
Q 231 459 231 875 
Q 231 1119 342 1320 
Q 453 1522 633 1644 
Q 813 1766 1038 1828 
Q 1203 1872 1538 1913 
Q 2219 1994 2541 2106 
Q 2544 2222 2544 2253 
Q 2544 2597 2384 2738 
Q 2169 2928 1744 2928 
Q 1347 2928 1158 2789 
Q 969 2650 878 2297 
L 328 2372 
Q 403 2725 575 2942 
Q 747 3159 1072 3276 
Q 1397 3394 1825 3394 
Q 2250 3394 2515 3294 
Q 2781 3194 2906 3042 
Q 3031 2891 3081 2659 
Q 3109 2516 3109 2141 
L 3109 1391 
Q 3109 606 3145 398 
Q 3181 191 3288 0 
L 2700 0 
Q 2613 175 2588 409 
z
M 2541 1666 
Q 2234 1541 1622 1453 
Q 1275 1403 1131 1340 
Q 988 1278 909 1158 
Q 831 1038 831 891 
Q 831 666 1001 516 
Q 1172 366 1500 366 
Q 1825 366 2078 508 
Q 2331 650 2450 897 
Q 2541 1088 2541 1459 
L 2541 1666 
z
" transform="scale(0.015625)"/>
       <path id="ArialMT-28" d="M 1497 -1347 
Q 1031 -759 709 28 
Q 388 816 388 1659 
Q 388 2403 628 3084 
Q 909 3875 1497 4659 
L 1900 4659 
Q 1522 4009 1400 3731 
Q 1209 3300 1100 2831 
Q 966 2247 966 1656 
Q 966 153 1900 -1347 
L 1497 -1347 
z
" transform="scale(0.015625)"/>
       <path id="ArialMT-25" d="M 372 3481 
Q 372 3972 619 4315 
Q 866 4659 1334 4659 
Q 1766 4659 2048 4351 
Q 2331 4044 2331 3447 
Q 2331 2866 2045 2552 
Q 1759 2238 1341 2238 
Q 925 2238 648 2547 
Q 372 2856 372 3481 
z
M 1350 4272 
Q 1141 4272 1002 4090 
Q 863 3909 863 3425 
Q 863 2984 1003 2804 
Q 1144 2625 1350 2625 
Q 1563 2625 1702 2806 
Q 1841 2988 1841 3469 
Q 1841 3913 1700 4092 
Q 1559 4272 1350 4272 
z
M 1353 -169 
L 3859 4659 
L 4316 4659 
L 1819 -169 
L 1353 -169 
z
M 3334 1075 
Q 3334 1569 3581 1911 
Q 3828 2253 4300 2253 
Q 4731 2253 5014 1945 
Q 5297 1638 5297 1041 
Q 5297 459 5011 145 
Q 4725 -169 4303 -169 
Q 3888 -169 3611 142 
Q 3334 453 3334 1075 
z
M 4316 1866 
Q 4103 1866 3964 1684 
Q 3825 1503 3825 1019 
Q 3825 581 3965 400 
Q 4106 219 4313 219 
Q 4528 219 4667 400 
Q 4806 581 4806 1063 
Q 4806 1506 4665 1686 
Q 4525 1866 4316 1866 
z
" transform="scale(0.015625)"/>
       <path id="ArialMT-29" d="M 791 -1347 
L 388 -1347 
Q 1322 153 1322 1656 
Q 1322 2244 1188 2822 
Q 1081 3291 891 3722 
Q 769 4003 388 4659 
L 791 4659 
Q 1378 3875 1659 3084 
Q 1900 2403 1900 1659 
Q 1900 816 1576 28 
Q 1253 -759 791 -1347 
z
" transform="scale(0.015625)"/>
      </defs>
      <use xlink:href="#ArialMT-52"/>
      <use xlink:href="#ArialMT-69" x="72.216797"/>
      <use xlink:href="#ArialMT-73" x="94.433594"/>
      <use xlink:href="#ArialMT-6b" x="144.433594"/>
      <use xlink:href="#ArialMT-20" x="194.433594"/>
      <use xlink:href="#ArialMT-46" x="222.216797"/>
      <use xlink:href="#ArialMT-72" x="283.300781"/>
      <use xlink:href="#ArialMT-65" x="316.601562"/>
      <use xlink:href="#ArialMT-65" x="372.216797"/>
      <use xlink:href="#ArialMT-20" x="427.832031"/>
      <use xlink:href="#ArialMT-52" x="455.615234"/>
      <use xlink:href="#ArialMT-61" x="527.832031"/>
      <use xlink:href="#ArialMT-74" x="583.447266"/>
      <use xlink:href="#ArialMT-65" x="611.230469"/>
      <use xlink:href="#ArialMT-20" x="666.845703"/>
      <use xlink:href="#ArialMT-28" x="694.628906"/>
      <use xlink:href="#ArialMT-25" x="727.929688"/>
      <use xlink:href="#ArialMT-29" x="816.845703"/>
     </g>
    </g>
   </g>
   <g id="patch_3">
    <path d="M 70.132886 297.154375 
L 70.132886 24.6525 
L 349.747545 24.6525 
L 349.747545 297.154375 
z
" clip-path="url(#p1ac17901b4)" style="fill: #00ffff; opacity: 0.2; stroke: #00ffff; stroke-linejoin: miter"/>
   </g>
   <g id="patch_4">
    <path d="M 378.596676 297.154375 
L 378.596676 24.6525 
L 454.048251 24.6525 
L 454.048251 297.154375 
z
" clip-path="url(#p1ac17901b4)" style="fill: #00ffff; opacity: 0.2; stroke: #00ffff; stroke-linejoin: miter"/>
   </g>
   <g id="line2d_12">
    <path d="M 67.913722 138.609227 
L 70.132886 197.780906 
L 72.35205 201.741217 
L 74.571213 225.503069 
L 76.790377 222.474595 
L 79.009541 198.712742 
L 81.228705 205.468563 
L 83.447869 208.729996 
L 85.667033 206.16744 
L 87.886197 242.97502 
L 90.105361 264.640238 
L 92.324525 283.975864 
L 94.543689 279.549637 
L 96.762853 274.657491 
L 98.982017 273.259734 
L 101.201181 275.589328 
L 103.420345 279.083718 
L 105.639509 278.850759 
L 107.858673 276.521165 
L 110.077837 276.754125 
L 112.297001 278.850759 
L 114.516165 279.549637 
L 116.735329 282.811068 
L 118.954493 282.578108 
L 121.173657 282.578108 
L 123.392821 281.646271 
L 125.611985 279.549637 
L 127.831149 277.918921 
L 130.050313 277.685962 
L 132.269476 277.918921 
L 134.48864 276.987084 
L 136.707804 278.38484 
L 138.926968 278.617799 
L 141.146132 277.685962 
L 143.365296 279.782596 
L 145.58446 277.453003 
L 147.803624 279.549637 
L 150.022788 278.151881 
L 152.241952 278.617799 
L 154.461116 280.714433 
L 156.68028 283.044027 
L 158.899444 283.044027 
L 161.118608 284.208824 
L 163.337772 280.714433 
L 165.556936 284.208824 
L 169.995264 284.674742 
L 172.214428 284.208824 
L 174.433592 284.674742 
L 176.652756 282.345149 
L 178.87192 281.413311 
L 181.091084 281.87923 
L 183.310248 280.714433 
L 185.529412 282.11219 
L 189.967739 280.248515 
L 192.186903 280.947393 
L 194.406067 280.714433 
L 196.625231 280.015556 
L 198.844395 281.413311 
L 201.063559 283.276986 
L 203.282723 281.87923 
L 205.501887 280.248515 
L 207.721051 281.87923 
L 209.940215 282.811068 
L 212.159379 283.509946 
L 216.597707 283.509946 
L 218.816871 283.975864 
L 221.036035 284.674742 
L 223.255199 283.37017 
L 225.474363 282.345149 
L 227.693527 281.972414 
L 229.912691 284.441783 
L 232.131855 282.904251 
L 234.351019 283.603129 
L 236.570183 283.975864 
L 238.789347 283.509946 
L 241.008511 283.975864 
L 247.666002 284.302007 
L 249.885166 284.767926 
L 252.10433 284.674742 
L 254.323494 283.183803 
L 256.542658 284.674742 
L 258.761822 284.534967 
L 260.980986 283.742905 
L 263.20015 284.674742 
L 265.419314 284.767926 
L 267.638478 284.441783 
L 269.857642 282.205373 
L 272.076806 284.767926 
L 274.29597 284.674742 
L 276.515134 281.739454 
L 278.734298 276.987084 
L 280.953462 278.012105 
L 283.172626 270.93014 
L 285.39179 270.557406 
L 287.610954 275.915471 
L 289.830118 275.915471 
L 292.049282 271.722203 
L 294.268446 273.352918 
L 296.48761 273.725653 
L 298.706774 269.998304 
L 300.925938 272.793816 
L 303.145101 271.163101 
L 305.364265 263.102707 
L 307.583429 262.543605 
L 309.802593 261.611767 
L 312.021757 260.540154 
L 314.240921 250.522903 
L 316.460085 248.566045 
L 318.679249 240.645426 
L 320.898413 238.641977 
L 323.117577 235.846465 
L 325.336741 239.340854 
L 327.555905 237.01126 
L 329.775069 232.585031 
L 334.213397 221.775718 
L 336.432561 218.281331 
L 338.651725 209.522056 
L 340.870889 207.099282 
L 343.090053 202.766236 
L 345.309217 197.780906 
L 347.528381 197.314988 
L 349.747545 192.42284 
L 351.966709 189.161407 
L 354.185873 184.735178 
L 356.405037 178.771418 
L 358.6242 177.373663 
L 360.843364 177.746404 
L 365.281692 173.879282 
L 367.500856 176.441827 
L 369.72002 174.578154 
L 371.939184 178.072546 
L 374.158348 190.093244 
L 376.377512 190.326208 
L 378.596676 194.84562 
L 380.81584 202.440094 
L 383.035004 215.11308 
L 385.254168 213.156225 
L 387.473332 214.786939 
L 389.692496 214.553979 
L 391.91166 227.599702 
L 394.130824 283.509946 
L 396.349988 280.714433 
L 398.569152 278.943942 
L 400.788316 278.617799 
L 403.00748 281.040577 
L 405.226644 280.481474 
L 407.445808 280.947393 
L 409.664972 281.040577 
L 414.1033 281.87923 
L 416.322463 282.671292 
L 418.541627 283.276986 
L 420.760791 284.302007 
L 422.979955 284.767926 
L 425.199119 284.534967 
L 427.418283 283.044027 
L 431.856611 283.044027 
L 434.075775 283.603129 
L 436.294939 282.671292 
L 438.514103 282.671292 
L 440.733267 283.37017 
L 442.952431 276.847309 
L 445.171595 271.489244 
L 447.390759 261.93791 
L 449.609923 247.26147 
L 451.829087 236.918078 
L 454.048251 210.36071 
L 456.267415 177.839581 
L 458.486579 151.65496 
L 460.705743 136.745554 
L 462.924907 99.705026 
L 465.144071 86.752492 
L 467.363235 86.426328 
L 469.582399 71.982851 
L 471.801563 65.459995 
L 474.020726 71.283979 
L 478.459054 40.393565 
L 480.678218 44.819805 
L 482.897382 40.393565 
L 485.116546 38.063985 
L 487.33571 37.970785 
L 489.554874 37.038949 
L 491.774038 40.859494 
L 493.993202 43.561827 
L 496.212366 43.189074 
L 498.43153 41.558366 
L 500.650694 42.490202 
L 502.869858 40.533352 
L 505.089022 40.533352 
L 507.308186 42.024295 
L 509.52735 45.658442 
L 511.746514 53.439298 
L 513.965678 75.337467 
L 516.184842 78.412529 
L 518.404006 81.16145 
L 520.62317 88.849107 
L 522.842334 89.780944 
L 525.061498 89.548001 
L 527.280662 89.548001 
L 529.499825 89.687767 
L 531.718989 87.730917 
L 533.938153 87.730917 
L 533.938153 87.730917 
" clip-path="url(#p1ac17901b4)" style="fill: none; stroke: #4c72b0; stroke-width: 1.5; stroke-linecap: round"/>
   </g>
   <g id="patch_5">
    <path d="M 44.6125 297.154375 
L 44.6125 24.6525 
" style="fill: none; stroke: #cccccc; stroke-width: 1.25; stroke-linejoin: miter; stroke-linecap: square"/>
   </g>
   <g id="patch_6">
    <path d="M 557.239375 297.154375 
L 557.239375 24.6525 
" style="fill: none; stroke: #cccccc; stroke-width: 1.25; stroke-linejoin: miter; stroke-linecap: square"/>
   </g>
   <g id="patch_7">
    <path d="M 44.6125 297.154375 
L 557.239375 297.154375 
" style="fill: none; stroke: #cccccc; stroke-width: 1.25; stroke-linejoin: miter; stroke-linecap: square"/>
   </g>
   <g id="patch_8">
    <path d="M 44.6125 24.6525 
L 557.239375 24.6525 
" style="fill: none; stroke: #cccccc; stroke-width: 1.25; stroke-linejoin: miter; stroke-linecap: square"/>
   </g>
   <g id="text_14">
    <!-- Monthly Risk-Free Rate -->
    <g style="fill: #262626" transform="translate(216.907188 18.6525) scale(0.16 -0.16)">
     <defs>
      <path id="ArialMT-6c" d="M 409 0 
L 409 4581 
L 972 4581 
L 972 0 
L 409 0 
z
" transform="scale(0.015625)"/>
      <path id="ArialMT-79" d="M 397 -1278 
L 334 -750 
Q 519 -800 656 -800 
Q 844 -800 956 -737 
Q 1069 -675 1141 -563 
Q 1194 -478 1313 -144 
Q 1328 -97 1363 -6 
L 103 3319 
L 709 3319 
L 1400 1397 
Q 1534 1031 1641 628 
Q 1738 1016 1872 1384 
L 2581 3319 
L 3144 3319 
L 1881 -56 
Q 1678 -603 1566 -809 
Q 1416 -1088 1222 -1217 
Q 1028 -1347 759 -1347 
Q 597 -1347 397 -1278 
z
" transform="scale(0.015625)"/>
      <path id="ArialMT-2d" d="M 203 1375 
L 203 1941 
L 1931 1941 
L 1931 1375 
L 203 1375 
z
" transform="scale(0.015625)"/>
     </defs>
     <use xlink:href="#ArialMT-4d"/>
     <use xlink:href="#ArialMT-6f" x="83.300781"/>
     <use xlink:href="#ArialMT-6e" x="138.916016"/>
     <use xlink:href="#ArialMT-74" x="194.53125"/>
     <use xlink:href="#ArialMT-68" x="222.314453"/>
     <use xlink:href="#ArialMT-6c" x="277.929688"/>
     <use xlink:href="#ArialMT-79" x="300.146484"/>
     <use xlink:href="#ArialMT-20" x="350.146484"/>
     <use xlink:href="#ArialMT-52" x="377.929688"/>
     <use xlink:href="#ArialMT-69" x="450.146484"/>
     <use xlink:href="#ArialMT-73" x="472.363281"/>
     <use xlink:href="#ArialMT-6b" x="522.363281"/>
     <use xlink:href="#ArialMT-2d" x="572.363281"/>
     <use xlink:href="#ArialMT-46" x="605.664062"/>
     <use xlink:href="#ArialMT-72" x="666.748047"/>
     <use xlink:href="#ArialMT-65" x="700.048828"/>
     <use xlink:href="#ArialMT-65" x="755.664062"/>
     <use xlink:href="#ArialMT-20" x="811.279297"/>
     <use xlink:href="#ArialMT-52" x="839.0625"/>
     <use xlink:href="#ArialMT-61" x="911.279297"/>
     <use xlink:href="#ArialMT-74" x="966.894531"/>
     <use xlink:href="#ArialMT-65" x="994.677734"/>
    </g>
   </g>
   <g id="legend_1">
    <g id="patch_9">
     <path d="M 55.8125 83.1 
L 248.38 83.1 
Q 251.58 83.1 251.58 79.9 
L 251.58 35.8525 
Q 251.58 32.6525 248.38 32.6525 
L 55.8125 32.6525 
Q 52.6125 32.6525 52.6125 35.8525 
L 52.6125 79.9 
Q 52.6125 83.1 55.8125 83.1 
z
" style="fill: #ffffff; opacity: 0.8; stroke: #cccccc; stroke-linejoin: miter"/>
    </g>
    <g id="line2d_13">
     <path d="M 59.0125 45.1 
L 75.0125 45.1 
L 91.0125 45.1 
" style="fill: none; stroke: #4c72b0; stroke-width: 1.5; stroke-linecap: round"/>
    </g>
    <g id="text_15">
     <!-- Risk Free Rate (%) -->
     <g style="fill: #262626" transform="translate(103.8125 50.7) scale(0.16 -0.16)">
      <use xlink:href="#ArialMT-52"/>
      <use xlink:href="#ArialMT-69" x="72.216797"/>
      <use xlink:href="#ArialMT-73" x="94.433594"/>
      <use xlink:href="#ArialMT-6b" x="144.433594"/>
      <use xlink:href="#ArialMT-20" x="194.433594"/>
      <use xlink:href="#ArialMT-46" x="222.216797"/>
      <use xlink:href="#ArialMT-72" x="283.300781"/>
      <use xlink:href="#ArialMT-65" x="316.601562"/>
      <use xlink:href="#ArialMT-65" x="372.216797"/>
      <use xlink:href="#ArialMT-20" x="427.832031"/>
      <use xlink:href="#ArialMT-52" x="455.615234"/>
      <use xlink:href="#ArialMT-61" x="527.832031"/>
      <use xlink:href="#ArialMT-74" x="583.447266"/>
      <use xlink:href="#ArialMT-65" x="611.230469"/>
      <use xlink:href="#ArialMT-20" x="666.845703"/>
      <use xlink:href="#ArialMT-28" x="694.628906"/>
      <use xlink:href="#ArialMT-25" x="727.929688"/>
      <use xlink:href="#ArialMT-29" x="816.845703"/>
     </g>
    </g>
    <g id="patch_10">
     <path d="M 59.0125 73.52 
L 91.0125 73.52 
L 91.0125 62.32 
L 59.0125 62.32 
z
" style="fill: #00ffff; opacity: 0.2; stroke: #00ffff; stroke-linejoin: miter"/>
    </g>
    <g id="text_16">
     <!-- Low Risk-Free Rate -->
     <g style="fill: #262626" transform="translate(103.8125 73.52) scale(0.16 -0.16)">
      <defs>
       <path id="ArialMT-4c" d="M 469 0 
L 469 4581 
L 1075 4581 
L 1075 541 
L 3331 541 
L 3331 0 
L 469 0 
z
" transform="scale(0.015625)"/>
       <path id="ArialMT-77" d="M 1034 0 
L 19 3319 
L 600 3319 
L 1128 1403 
L 1325 691 
Q 1338 744 1497 1375 
L 2025 3319 
L 2603 3319 
L 3100 1394 
L 3266 759 
L 3456 1400 
L 4025 3319 
L 4572 3319 
L 3534 0 
L 2950 0 
L 2422 1988 
L 2294 2553 
L 1622 0 
L 1034 0 
z
" transform="scale(0.015625)"/>
      </defs>
      <use xlink:href="#ArialMT-4c"/>
      <use xlink:href="#ArialMT-6f" x="55.615234"/>
      <use xlink:href="#ArialMT-77" x="111.230469"/>
      <use xlink:href="#ArialMT-20" x="183.447266"/>
      <use xlink:href="#ArialMT-52" x="211.230469"/>
      <use xlink:href="#ArialMT-69" x="283.447266"/>
      <use xlink:href="#ArialMT-73" x="305.664062"/>
      <use xlink:href="#ArialMT-6b" x="355.664062"/>
      <use xlink:href="#ArialMT-2d" x="405.664062"/>
      <use xlink:href="#ArialMT-46" x="438.964844"/>
      <use xlink:href="#ArialMT-72" x="500.048828"/>
      <use xlink:href="#ArialMT-65" x="533.349609"/>
      <use xlink:href="#ArialMT-65" x="588.964844"/>
      <use xlink:href="#ArialMT-20" x="644.580078"/>
      <use xlink:href="#ArialMT-52" x="672.363281"/>
      <use xlink:href="#ArialMT-61" x="744.580078"/>
      <use xlink:href="#ArialMT-74" x="800.195312"/>
      <use xlink:href="#ArialMT-65" x="827.978516"/>
     </g>
    </g>
   </g>
  </g>
 </g>
 <defs>
  <clipPath id="p1ac17901b4">
   <rect x="44.6125" y="24.6525" width="512.626875" height="272.501875"/>
  </clipPath>
 </defs>
</svg>
