<?xml version="1.0" encoding="utf-8" standalone="no"?>
<!DOCTYPE svg PUBLIC "-//W3C//DTD SVG 1.1//EN"
  "http://www.w3.org/Graphics/SVG/1.1/DTD/svg11.dtd">
<svg xmlns:xlink="http://www.w3.org/1999/xlink" width="722.821875pt" height="419.324375pt" viewBox="0 0 722.821875 419.324375" xmlns="http://www.w3.org/2000/svg" version="1.1">
 <metadata>
  <rdf:RDF xmlns:dc="http://purl.org/dc/elements/1.1/" xmlns:cc="http://creativecommons.org/ns#" xmlns:rdf="http://www.w3.org/1999/02/22-rdf-syntax-ns#">
   <cc:Work>
    <dc:type rdf:resource="http://purl.org/dc/dcmitype/StillImage"/>
    <dc:date>2025-06-08T10:35:14.931777</dc:date>
    <dc:format>image/svg+xml</dc:format>
    <dc:creator>
     <cc:Agent>
      <dc:title>Matplotlib v3.7.5, https://matplotlib.org/</dc:title>
     </cc:Agent>
    </dc:creator>
   </cc:Work>
  </rdf:RDF>
 </metadata>
 <defs>
  <style type="text/css">*{stroke-linejoin: round; stroke-linecap: butt}</style>
 </defs>
 <g id="figure_1">
  <g id="patch_1">
   <path d="M 0 419.324375 
L 722.821875 419.324375 
L 722.821875 0 
L 0 0 
z
" style="fill: #ffffff"/>
  </g>
  <g id="axes_1">
   <g id="patch_2">
    <path d="M 57.76 369.359375 
L 612.686875 369.359375 
L 612.686875 24.8575 
L 57.76 24.8575 
z
" style="fill: #ffffff"/>
   </g>
   <g id="matplotlib.axis_1">
    <g id="xtick_1">
     <g id="line2d_1">
      <path d="M 92.112616 369.359375 
L 92.112616 24.8575 
" clip-path="url(#p8074dd763a)" style="fill: none; stroke: #cccccc; stroke-linecap: round"/>
     </g>
     <g id="text_1">
      <!-- 2009 -->
      <g style="fill: #262626" transform="translate(74.317616 390.311875) scale(0.16 -0.16)">
       <defs>
        <path id="ArialMT-32" d="M 3222 541 
L 3222 0 
L 194 0 
Q 188 203 259 391 
Q 375 700 629 1000 
Q 884 1300 1366 1694 
Q 2113 2306 2375 2664 
Q 2638 3022 2638 3341 
Q 2638 3675 2398 3904 
Q 2159 4134 1775 4134 
Q 1369 4134 1125 3890 
Q 881 3647 878 3216 
L 300 3275 
Q 359 3922 746 4261 
Q 1134 4600 1788 4600 
Q 2447 4600 2831 4234 
Q 3216 3869 3216 3328 
Q 3216 3053 3103 2787 
Q 2991 2522 2730 2228 
Q 2469 1934 1863 1422 
Q 1356 997 1212 845 
Q 1069 694 975 541 
L 3222 541 
z
" transform="scale(0.015625)"/>
        <path id="ArialMT-30" d="M 266 2259 
Q 266 3072 433 3567 
Q 600 4063 929 4331 
Q 1259 4600 1759 4600 
Q 2128 4600 2406 4451 
Q 2684 4303 2865 4023 
Q 3047 3744 3150 3342 
Q 3253 2941 3253 2259 
Q 3253 1453 3087 958 
Q 2922 463 2592 192 
Q 2263 -78 1759 -78 
Q 1097 -78 719 397 
Q 266 969 266 2259 
z
M 844 2259 
Q 844 1131 1108 757 
Q 1372 384 1759 384 
Q 2147 384 2411 759 
Q 2675 1134 2675 2259 
Q 2675 3391 2411 3762 
Q 2147 4134 1753 4134 
Q 1366 4134 1134 3806 
Q 844 3388 844 2259 
z
" transform="scale(0.015625)"/>
        <path id="ArialMT-39" d="M 350 1059 
L 891 1109 
Q 959 728 1153 556 
Q 1347 384 1650 384 
Q 1909 384 2104 503 
Q 2300 622 2425 820 
Q 2550 1019 2634 1356 
Q 2719 1694 2719 2044 
Q 2719 2081 2716 2156 
Q 2547 1888 2255 1720 
Q 1963 1553 1622 1553 
Q 1053 1553 659 1965 
Q 266 2378 266 3053 
Q 266 3750 677 4175 
Q 1088 4600 1706 4600 
Q 2153 4600 2523 4359 
Q 2894 4119 3086 3673 
Q 3278 3228 3278 2384 
Q 3278 1506 3087 986 
Q 2897 466 2520 194 
Q 2144 -78 1638 -78 
Q 1100 -78 759 220 
Q 419 519 350 1059 
z
M 2653 3081 
Q 2653 3566 2395 3850 
Q 2138 4134 1775 4134 
Q 1400 4134 1122 3828 
Q 844 3522 844 3034 
Q 844 2597 1108 2323 
Q 1372 2050 1759 2050 
Q 2150 2050 2401 2323 
Q 2653 2597 2653 3081 
z
" transform="scale(0.015625)"/>
       </defs>
       <use xlink:href="#ArialMT-32"/>
       <use xlink:href="#ArialMT-30" x="55.615234"/>
       <use xlink:href="#ArialMT-30" x="111.230469"/>
       <use xlink:href="#ArialMT-39" x="166.845703"/>
      </g>
     </g>
    </g>
    <g id="xtick_2">
     <g id="line2d_2">
      <path d="M 155.53283 369.359375 
L 155.53283 24.8575 
" clip-path="url(#p8074dd763a)" style="fill: none; stroke: #cccccc; stroke-linecap: round"/>
     </g>
     <g id="text_2">
      <!-- 2011 -->
      <g style="fill: #262626" transform="translate(138.32783 390.311875) scale(0.16 -0.16)">
       <defs>
        <path id="ArialMT-31" d="M 2384 0 
L 1822 0 
L 1822 3584 
Q 1619 3391 1289 3197 
Q 959 3003 697 2906 
L 697 3450 
Q 1169 3672 1522 3987 
Q 1875 4303 2022 4600 
L 2384 4600 
L 2384 0 
z
" transform="scale(0.015625)"/>
       </defs>
       <use xlink:href="#ArialMT-32"/>
       <use xlink:href="#ArialMT-30" x="55.615234"/>
       <use xlink:href="#ArialMT-31" x="111.230469"/>
       <use xlink:href="#ArialMT-31" x="159.470703"/>
      </g>
     </g>
    </g>
    <g id="xtick_3">
     <g id="line2d_3">
      <path d="M 218.953045 369.359375 
L 218.953045 24.8575 
" clip-path="url(#p8074dd763a)" style="fill: none; stroke: #cccccc; stroke-linecap: round"/>
     </g>
     <g id="text_3">
      <!-- 2013 -->
      <g style="fill: #262626" transform="translate(201.158045 390.311875) scale(0.16 -0.16)">
       <defs>
        <path id="ArialMT-33" d="M 269 1209 
L 831 1284 
Q 928 806 1161 595 
Q 1394 384 1728 384 
Q 2125 384 2398 659 
Q 2672 934 2672 1341 
Q 2672 1728 2419 1979 
Q 2166 2231 1775 2231 
Q 1616 2231 1378 2169 
L 1441 2663 
Q 1497 2656 1531 2656 
Q 1891 2656 2178 2843 
Q 2466 3031 2466 3422 
Q 2466 3731 2256 3934 
Q 2047 4138 1716 4138 
Q 1388 4138 1169 3931 
Q 950 3725 888 3313 
L 325 3413 
Q 428 3978 793 4289 
Q 1159 4600 1703 4600 
Q 2078 4600 2393 4439 
Q 2709 4278 2876 4000 
Q 3044 3722 3044 3409 
Q 3044 3113 2884 2869 
Q 2725 2625 2413 2481 
Q 2819 2388 3044 2092 
Q 3269 1797 3269 1353 
Q 3269 753 2831 336 
Q 2394 -81 1725 -81 
Q 1122 -81 723 278 
Q 325 638 269 1209 
z
" transform="scale(0.015625)"/>
       </defs>
       <use xlink:href="#ArialMT-32"/>
       <use xlink:href="#ArialMT-30" x="55.615234"/>
       <use xlink:href="#ArialMT-31" x="111.230469"/>
       <use xlink:href="#ArialMT-33" x="166.845703"/>
      </g>
     </g>
    </g>
    <g id="xtick_4">
     <g id="line2d_4">
      <path d="M 282.373259 369.359375 
L 282.373259 24.8575 
" clip-path="url(#p8074dd763a)" style="fill: none; stroke: #cccccc; stroke-linecap: round"/>
     </g>
     <g id="text_4">
      <!-- 2015 -->
      <g style="fill: #262626" transform="translate(264.578259 390.311875) scale(0.16 -0.16)">
       <defs>
        <path id="ArialMT-35" d="M 266 1200 
L 856 1250 
Q 922 819 1161 601 
Q 1400 384 1738 384 
Q 2144 384 2425 690 
Q 2706 997 2706 1503 
Q 2706 1984 2436 2262 
Q 2166 2541 1728 2541 
Q 1456 2541 1237 2417 
Q 1019 2294 894 2097 
L 366 2166 
L 809 4519 
L 3088 4519 
L 3088 3981 
L 1259 3981 
L 1013 2750 
Q 1425 3038 1878 3038 
Q 2478 3038 2890 2622 
Q 3303 2206 3303 1553 
Q 3303 931 2941 478 
Q 2500 -78 1738 -78 
Q 1113 -78 717 272 
Q 322 622 266 1200 
z
" transform="scale(0.015625)"/>
       </defs>
       <use xlink:href="#ArialMT-32"/>
       <use xlink:href="#ArialMT-30" x="55.615234"/>
       <use xlink:href="#ArialMT-31" x="111.230469"/>
       <use xlink:href="#ArialMT-35" x="166.845703"/>
      </g>
     </g>
    </g>
    <g id="xtick_5">
     <g id="line2d_5">
      <path d="M 345.793473 369.359375 
L 345.793473 24.8575 
" clip-path="url(#p8074dd763a)" style="fill: none; stroke: #cccccc; stroke-linecap: round"/>
     </g>
     <g id="text_5">
      <!-- 2017 -->
      <g style="fill: #262626" transform="translate(327.998473 390.311875) scale(0.16 -0.16)">
       <defs>
        <path id="ArialMT-37" d="M 303 3981 
L 303 4522 
L 3269 4522 
L 3269 4084 
Q 2831 3619 2401 2847 
Q 1972 2075 1738 1259 
Q 1569 684 1522 0 
L 944 0 
Q 953 541 1156 1306 
Q 1359 2072 1739 2783 
Q 2119 3494 2547 3981 
L 303 3981 
z
" transform="scale(0.015625)"/>
       </defs>
       <use xlink:href="#ArialMT-32"/>
       <use xlink:href="#ArialMT-30" x="55.615234"/>
       <use xlink:href="#ArialMT-31" x="111.230469"/>
       <use xlink:href="#ArialMT-37" x="166.845703"/>
      </g>
     </g>
    </g>
    <g id="xtick_6">
     <g id="line2d_6">
      <path d="M 409.213687 369.359375 
L 409.213687 24.8575 
" clip-path="url(#p8074dd763a)" style="fill: none; stroke: #cccccc; stroke-linecap: round"/>
     </g>
     <g id="text_6">
      <!-- 2019 -->
      <g style="fill: #262626" transform="translate(391.418687 390.311875) scale(0.16 -0.16)">
       <use xlink:href="#ArialMT-32"/>
       <use xlink:href="#ArialMT-30" x="55.615234"/>
       <use xlink:href="#ArialMT-31" x="111.230469"/>
       <use xlink:href="#ArialMT-39" x="166.845703"/>
      </g>
     </g>
    </g>
    <g id="xtick_7">
     <g id="line2d_7">
      <path d="M 472.633902 369.359375 
L 472.633902 24.8575 
" clip-path="url(#p8074dd763a)" style="fill: none; stroke: #cccccc; stroke-linecap: round"/>
     </g>
     <g id="text_7">
      <!-- 2021 -->
      <g style="fill: #262626" transform="translate(454.838902 390.311875) scale(0.16 -0.16)">
       <use xlink:href="#ArialMT-32"/>
       <use xlink:href="#ArialMT-30" x="55.615234"/>
       <use xlink:href="#ArialMT-32" x="111.230469"/>
       <use xlink:href="#ArialMT-31" x="166.845703"/>
      </g>
     </g>
    </g>
    <g id="xtick_8">
     <g id="line2d_8">
      <path d="M 536.054116 369.359375 
L 536.054116 24.8575 
" clip-path="url(#p8074dd763a)" style="fill: none; stroke: #cccccc; stroke-linecap: round"/>
     </g>
     <g id="text_8">
      <!-- 2023 -->
      <g style="fill: #262626" transform="translate(518.259116 390.311875) scale(0.16 -0.16)">
       <use xlink:href="#ArialMT-32"/>
       <use xlink:href="#ArialMT-30" x="55.615234"/>
       <use xlink:href="#ArialMT-32" x="111.230469"/>
       <use xlink:href="#ArialMT-33" x="166.845703"/>
      </g>
     </g>
    </g>
    <g id="xtick_9">
     <g id="line2d_9">
      <path d="M 599.47433 369.359375 
L 599.47433 24.8575 
" clip-path="url(#p8074dd763a)" style="fill: none; stroke: #cccccc; stroke-linecap: round"/>
     </g>
     <g id="text_9">
      <!-- 2025 -->
      <g style="fill: #262626" transform="translate(581.67933 390.311875) scale(0.16 -0.16)">
       <use xlink:href="#ArialMT-32"/>
       <use xlink:href="#ArialMT-30" x="55.615234"/>
       <use xlink:href="#ArialMT-32" x="111.230469"/>
       <use xlink:href="#ArialMT-35" x="166.845703"/>
      </g>
     </g>
    </g>
    <g id="xtick_10"/>
    <g id="xtick_11"/>
    <g id="xtick_12"/>
    <g id="xtick_13"/>
    <g id="xtick_14"/>
    <g id="xtick_15"/>
    <g id="xtick_16"/>
    <g id="xtick_17"/>
    <g id="xtick_18"/>
    <g id="text_10">
     <!-- Date -->
     <g style="fill: #262626" transform="translate(318.325938 408.944375) scale(0.16 -0.16)">
      <defs>
       <path id="ArialMT-44" d="M 494 0 
L 494 4581 
L 2072 4581 
Q 2606 4581 2888 4516 
Q 3281 4425 3559 4188 
Q 3922 3881 4101 3404 
Q 4281 2928 4281 2316 
Q 4281 1794 4159 1391 
Q 4038 988 3847 723 
Q 3656 459 3429 307 
Q 3203 156 2883 78 
Q 2563 0 2147 0 
L 494 0 
z
M 1100 541 
L 2078 541 
Q 2531 541 2789 625 
Q 3047 709 3200 863 
Q 3416 1078 3536 1442 
Q 3656 1806 3656 2325 
Q 3656 3044 3420 3430 
Q 3184 3816 2847 3947 
Q 2603 4041 2063 4041 
L 1100 4041 
L 1100 541 
z
" transform="scale(0.015625)"/>
       <path id="ArialMT-61" d="M 2588 409 
Q 2275 144 1986 34 
Q 1697 -75 1366 -75 
Q 819 -75 525 192 
Q 231 459 231 875 
Q 231 1119 342 1320 
Q 453 1522 633 1644 
Q 813 1766 1038 1828 
Q 1203 1872 1538 1913 
Q 2219 1994 2541 2106 
Q 2544 2222 2544 2253 
Q 2544 2597 2384 2738 
Q 2169 2928 1744 2928 
Q 1347 2928 1158 2789 
Q 969 2650 878 2297 
L 328 2372 
Q 403 2725 575 2942 
Q 747 3159 1072 3276 
Q 1397 3394 1825 3394 
Q 2250 3394 2515 3294 
Q 2781 3194 2906 3042 
Q 3031 2891 3081 2659 
Q 3109 2516 3109 2141 
L 3109 1391 
Q 3109 606 3145 398 
Q 3181 191 3288 0 
L 2700 0 
Q 2613 175 2588 409 
z
M 2541 1666 
Q 2234 1541 1622 1453 
Q 1275 1403 1131 1340 
Q 988 1278 909 1158 
Q 831 1038 831 891 
Q 831 666 1001 516 
Q 1172 366 1500 366 
Q 1825 366 2078 508 
Q 2331 650 2450 897 
Q 2541 1088 2541 1459 
L 2541 1666 
z
" transform="scale(0.015625)"/>
       <path id="ArialMT-74" d="M 1650 503 
L 1731 6 
Q 1494 -44 1306 -44 
Q 1000 -44 831 53 
Q 663 150 594 308 
Q 525 466 525 972 
L 525 2881 
L 113 2881 
L 113 3319 
L 525 3319 
L 525 4141 
L 1084 4478 
L 1084 3319 
L 1650 3319 
L 1650 2881 
L 1084 2881 
L 1084 941 
Q 1084 700 1114 631 
Q 1144 563 1211 522 
Q 1278 481 1403 481 
Q 1497 481 1650 503 
z
" transform="scale(0.015625)"/>
       <path id="ArialMT-65" d="M 2694 1069 
L 3275 997 
Q 3138 488 2766 206 
Q 2394 -75 1816 -75 
Q 1088 -75 661 373 
Q 234 822 234 1631 
Q 234 2469 665 2931 
Q 1097 3394 1784 3394 
Q 2450 3394 2872 2941 
Q 3294 2488 3294 1666 
Q 3294 1616 3291 1516 
L 816 1516 
Q 847 969 1125 678 
Q 1403 388 1819 388 
Q 2128 388 2347 550 
Q 2566 713 2694 1069 
z
M 847 1978 
L 2700 1978 
Q 2663 2397 2488 2606 
Q 2219 2931 1791 2931 
Q 1403 2931 1139 2672 
Q 875 2413 847 1978 
z
" transform="scale(0.015625)"/>
      </defs>
      <use xlink:href="#ArialMT-44"/>
      <use xlink:href="#ArialMT-61" x="72.216797"/>
      <use xlink:href="#ArialMT-74" x="127.832031"/>
      <use xlink:href="#ArialMT-65" x="155.615234"/>
     </g>
    </g>
   </g>
   <g id="matplotlib.axis_2">
    <g id="ytick_1">
     <g id="line2d_10">
      <path d="M 57.76 369.359375 
L 612.686875 369.359375 
" clip-path="url(#p8074dd763a)" style="fill: none; stroke: #cccccc; stroke-linecap: round"/>
     </g>
     <g id="text_11">
      <!-- 0.0 -->
      <g style="fill: #262626" transform="translate(26.02 375.085625) scale(0.16 -0.16)">
       <defs>
        <path id="ArialMT-2e" d="M 581 0 
L 581 641 
L 1222 641 
L 1222 0 
L 581 0 
z
" transform="scale(0.015625)"/>
       </defs>
       <use xlink:href="#ArialMT-30"/>
       <use xlink:href="#ArialMT-2e" x="55.615234"/>
       <use xlink:href="#ArialMT-30" x="83.398438"/>
      </g>
     </g>
    </g>
    <g id="ytick_2">
     <g id="line2d_11">
      <path d="M 57.76 303.73997 
L 612.686875 303.73997 
" clip-path="url(#p8074dd763a)" style="fill: none; stroke: #cccccc; stroke-linecap: round"/>
     </g>
     <g id="text_12">
      <!-- 0.2 -->
      <g style="fill: #262626" transform="translate(26.02 309.46622) scale(0.16 -0.16)">
       <use xlink:href="#ArialMT-30"/>
       <use xlink:href="#ArialMT-2e" x="55.615234"/>
       <use xlink:href="#ArialMT-32" x="83.398438"/>
      </g>
     </g>
    </g>
    <g id="ytick_3">
     <g id="line2d_12">
      <path d="M 57.76 238.120565 
L 612.686875 238.120565 
" clip-path="url(#p8074dd763a)" style="fill: none; stroke: #cccccc; stroke-linecap: round"/>
     </g>
     <g id="text_13">
      <!-- 0.4 -->
      <g style="fill: #262626" transform="translate(26.02 243.846815) scale(0.16 -0.16)">
       <defs>
        <path id="ArialMT-34" d="M 2069 0 
L 2069 1097 
L 81 1097 
L 81 1613 
L 2172 4581 
L 2631 4581 
L 2631 1613 
L 3250 1613 
L 3250 1097 
L 2631 1097 
L 2631 0 
L 2069 0 
z
M 2069 1613 
L 2069 3678 
L 634 1613 
L 2069 1613 
z
" transform="scale(0.015625)"/>
       </defs>
       <use xlink:href="#ArialMT-30"/>
       <use xlink:href="#ArialMT-2e" x="55.615234"/>
       <use xlink:href="#ArialMT-34" x="83.398438"/>
      </g>
     </g>
    </g>
    <g id="ytick_4">
     <g id="line2d_13">
      <path d="M 57.76 172.501161 
L 612.686875 172.501161 
" clip-path="url(#p8074dd763a)" style="fill: none; stroke: #cccccc; stroke-linecap: round"/>
     </g>
     <g id="text_14">
      <!-- 0.6 -->
      <g style="fill: #262626" transform="translate(26.02 178.227411) scale(0.16 -0.16)">
       <defs>
        <path id="ArialMT-36" d="M 3184 3459 
L 2625 3416 
Q 2550 3747 2413 3897 
Q 2184 4138 1850 4138 
Q 1581 4138 1378 3988 
Q 1113 3794 959 3422 
Q 806 3050 800 2363 
Q 1003 2672 1297 2822 
Q 1591 2972 1913 2972 
Q 2475 2972 2870 2558 
Q 3266 2144 3266 1488 
Q 3266 1056 3080 686 
Q 2894 316 2569 119 
Q 2244 -78 1831 -78 
Q 1128 -78 684 439 
Q 241 956 241 2144 
Q 241 3472 731 4075 
Q 1159 4600 1884 4600 
Q 2425 4600 2770 4297 
Q 3116 3994 3184 3459 
z
M 888 1484 
Q 888 1194 1011 928 
Q 1134 663 1356 523 
Q 1578 384 1822 384 
Q 2178 384 2434 671 
Q 2691 959 2691 1453 
Q 2691 1928 2437 2201 
Q 2184 2475 1800 2475 
Q 1419 2475 1153 2201 
Q 888 1928 888 1484 
z
" transform="scale(0.015625)"/>
       </defs>
       <use xlink:href="#ArialMT-30"/>
       <use xlink:href="#ArialMT-2e" x="55.615234"/>
       <use xlink:href="#ArialMT-36" x="83.398438"/>
      </g>
     </g>
    </g>
    <g id="ytick_5">
     <g id="line2d_14">
      <path d="M 57.76 106.881756 
L 612.686875 106.881756 
" clip-path="url(#p8074dd763a)" style="fill: none; stroke: #cccccc; stroke-linecap: round"/>
     </g>
     <g id="text_15">
      <!-- 0.8 -->
      <g style="fill: #262626" transform="translate(26.02 112.608006) scale(0.16 -0.16)">
       <defs>
        <path id="ArialMT-38" d="M 1131 2484 
Q 781 2613 612 2850 
Q 444 3088 444 3419 
Q 444 3919 803 4259 
Q 1163 4600 1759 4600 
Q 2359 4600 2725 4251 
Q 3091 3903 3091 3403 
Q 3091 3084 2923 2848 
Q 2756 2613 2416 2484 
Q 2838 2347 3058 2040 
Q 3278 1734 3278 1309 
Q 3278 722 2862 322 
Q 2447 -78 1769 -78 
Q 1091 -78 675 323 
Q 259 725 259 1325 
Q 259 1772 486 2073 
Q 713 2375 1131 2484 
z
M 1019 3438 
Q 1019 3113 1228 2906 
Q 1438 2700 1772 2700 
Q 2097 2700 2305 2904 
Q 2513 3109 2513 3406 
Q 2513 3716 2298 3927 
Q 2084 4138 1766 4138 
Q 1444 4138 1231 3931 
Q 1019 3725 1019 3438 
z
M 838 1322 
Q 838 1081 952 856 
Q 1066 631 1291 507 
Q 1516 384 1775 384 
Q 2178 384 2440 643 
Q 2703 903 2703 1303 
Q 2703 1709 2433 1975 
Q 2163 2241 1756 2241 
Q 1359 2241 1098 1978 
Q 838 1716 838 1322 
z
" transform="scale(0.015625)"/>
       </defs>
       <use xlink:href="#ArialMT-30"/>
       <use xlink:href="#ArialMT-2e" x="55.615234"/>
       <use xlink:href="#ArialMT-38" x="83.398438"/>
      </g>
     </g>
    </g>
    <g id="ytick_6">
     <g id="line2d_15">
      <path d="M 57.76 41.262351 
L 612.686875 41.262351 
" clip-path="url(#p8074dd763a)" style="fill: none; stroke: #cccccc; stroke-linecap: round"/>
     </g>
     <g id="text_16">
      <!-- 1.0 -->
      <g style="fill: #262626" transform="translate(26.02 46.988601) scale(0.16 -0.16)">
       <use xlink:href="#ArialMT-31"/>
       <use xlink:href="#ArialMT-2e" x="55.615234"/>
       <use xlink:href="#ArialMT-30" x="83.398438"/>
      </g>
     </g>
    </g>
    <g id="text_17">
     <!-- Weight -->
     <g style="fill: #262626" transform="translate(18.6525 221.865938) rotate(-90) scale(0.16 -0.16)">
      <defs>
       <path id="ArialMT-57" d="M 1294 0 
L 78 4581 
L 700 4581 
L 1397 1578 
Q 1509 1106 1591 641 
Q 1766 1375 1797 1488 
L 2669 4581 
L 3400 4581 
L 4056 2263 
Q 4303 1400 4413 641 
Q 4500 1075 4641 1638 
L 5359 4581 
L 5969 4581 
L 4713 0 
L 4128 0 
L 3163 3491 
Q 3041 3928 3019 4028 
Q 2947 3713 2884 3491 
L 1913 0 
L 1294 0 
z
" transform="scale(0.015625)"/>
       <path id="ArialMT-69" d="M 425 3934 
L 425 4581 
L 988 4581 
L 988 3934 
L 425 3934 
z
M 425 0 
L 425 3319 
L 988 3319 
L 988 0 
L 425 0 
z
" transform="scale(0.015625)"/>
       <path id="ArialMT-67" d="M 319 -275 
L 866 -356 
Q 900 -609 1056 -725 
Q 1266 -881 1628 -881 
Q 2019 -881 2231 -725 
Q 2444 -569 2519 -288 
Q 2563 -116 2559 434 
Q 2191 0 1641 0 
Q 956 0 581 494 
Q 206 988 206 1678 
Q 206 2153 378 2554 
Q 550 2956 876 3175 
Q 1203 3394 1644 3394 
Q 2231 3394 2613 2919 
L 2613 3319 
L 3131 3319 
L 3131 450 
Q 3131 -325 2973 -648 
Q 2816 -972 2473 -1159 
Q 2131 -1347 1631 -1347 
Q 1038 -1347 672 -1080 
Q 306 -813 319 -275 
z
M 784 1719 
Q 784 1066 1043 766 
Q 1303 466 1694 466 
Q 2081 466 2343 764 
Q 2606 1063 2606 1700 
Q 2606 2309 2336 2618 
Q 2066 2928 1684 2928 
Q 1309 2928 1046 2623 
Q 784 2319 784 1719 
z
" transform="scale(0.015625)"/>
       <path id="ArialMT-68" d="M 422 0 
L 422 4581 
L 984 4581 
L 984 2938 
Q 1378 3394 1978 3394 
Q 2347 3394 2619 3248 
Q 2891 3103 3008 2847 
Q 3125 2591 3125 2103 
L 3125 0 
L 2563 0 
L 2563 2103 
Q 2563 2525 2380 2717 
Q 2197 2909 1863 2909 
Q 1613 2909 1392 2779 
Q 1172 2650 1078 2428 
Q 984 2206 984 1816 
L 984 0 
L 422 0 
z
" transform="scale(0.015625)"/>
      </defs>
      <use xlink:href="#ArialMT-57"/>
      <use xlink:href="#ArialMT-65" x="92.634766"/>
      <use xlink:href="#ArialMT-69" x="148.25"/>
      <use xlink:href="#ArialMT-67" x="170.466797"/>
      <use xlink:href="#ArialMT-68" x="226.082031"/>
      <use xlink:href="#ArialMT-74" x="281.697266"/>
     </g>
    </g>
   </g>
   <g id="PolyCollection_1">
    <defs>
     <path id="m218d8dd397" d="M 57.76 -281.874884 
L 57.76 -49.965 
L 60.402509 -49.965 
L 63.045018 -49.965 
L 65.687527 -49.965 
L 68.330036 -49.965 
L 70.972545 -49.965 
L 73.615054 -49.965 
L 76.257562 -49.965 
L 78.900071 -49.965 
L 81.54258 -49.965 
L 84.185089 -49.965 
L 86.827598 -49.965 
L 89.470107 -49.965 
L 92.112616 -49.965 
L 94.755125 -49.965 
L 97.397634 -49.965 
L 100.040143 -49.965 
L 102.682652 -49.965 
L 105.325161 -49.965 
L 107.96767 -49.965 
L 110.610179 -49.965 
L 113.252687 -49.965 
L 115.895196 -49.965 
L 118.537705 -49.965 
L 121.180214 -49.965 
L 123.822723 -49.965 
L 126.465232 -49.965 
L 129.107741 -49.965 
L 131.75025 -49.965 
L 134.392759 -49.965 
L 137.035268 -49.965 
L 139.677777 -49.965 
L 142.320286 -49.965 
L 144.962795 -49.965 
L 147.605304 -49.965 
L 150.247813 -49.965 
L 152.890321 -49.965 
L 155.53283 -49.965 
L 158.175339 -49.965 
L 160.817848 -49.965 
L 163.460357 -49.965 
L 166.102866 -49.965 
L 168.745375 -49.965 
L 171.387884 -49.965 
L 174.030393 -49.965 
L 176.672902 -49.965 
L 179.315411 -49.965 
L 181.95792 -49.965 
L 184.600429 -49.965 
L 187.242937 -49.965 
L 189.885446 -49.965 
L 192.527955 -49.965 
L 195.170464 -49.965 
L 197.812973 -49.965 
L 200.455482 -49.965 
L 203.097991 -49.965 
L 205.7405 -49.965 
L 208.383009 -49.965 
L 211.025518 -49.965 
L 213.668027 -49.965 
L 216.310536 -49.965 
L 218.953045 -49.965 
L 221.595554 -49.965 
L 224.238062 -49.965 
L 226.880571 -49.965 
L 229.52308 -49.965 
L 232.165589 -49.965 
L 234.808098 -49.965 
L 237.450607 -49.965 
L 240.093116 -49.965 
L 242.735625 -49.965 
L 245.378134 -49.965 
L 248.020643 -49.965 
L 250.663152 -49.965 
L 253.305661 -49.965 
L 255.94817 -49.965 
L 258.590679 -49.965 
L 261.233187 -49.965 
L 263.875696 -49.965 
L 266.518205 -49.965 
L 269.160714 -49.965 
L 271.803223 -49.965 
L 274.445732 -49.965 
L 277.088241 -49.965 
L 279.73075 -49.965 
L 282.373259 -49.965 
L 285.015768 -49.965 
L 287.658277 -49.965 
L 290.300786 -49.965 
L 292.943295 -49.965 
L 295.585804 -49.965 
L 298.228312 -49.965 
L 300.870821 -49.965 
L 303.51333 -49.965 
L 306.155839 -49.965 
L 308.798348 -49.965 
L 311.440857 -49.965 
L 314.083366 -49.965 
L 316.725875 -49.965 
L 319.368384 -49.965 
L 322.010893 -49.965 
L 324.653402 -49.965 
L 327.295911 -49.965 
L 329.93842 -49.965 
L 332.580929 -49.965 
L 335.223438 -49.965 
L 337.865946 -49.965 
L 340.508455 -49.965 
L 343.150964 -49.965 
L 345.793473 -49.965 
L 348.435982 -49.965 
L 351.078491 -49.965 
L 353.721 -49.965 
L 356.363509 -49.965 
L 359.006018 -49.965 
L 361.648527 -49.965 
L 364.291036 -49.965 
L 366.933545 -49.965 
L 369.576054 -49.965 
L 372.218562 -49.965 
L 374.861071 -49.965 
L 377.50358 -49.965 
L 380.146089 -49.965 
L 382.788598 -49.965 
L 385.431107 -49.965 
L 388.073616 -49.965 
L 390.716125 -49.965 
L 393.358634 -49.965 
L 396.001143 -49.965 
L 398.643652 -49.965 
L 401.286161 -49.965 
L 403.92867 -49.965 
L 406.571179 -49.965 
L 409.213687 -49.965 
L 411.856196 -49.965 
L 414.498705 -49.965 
L 417.141214 -49.965 
L 419.783723 -49.965 
L 422.426232 -49.965 
L 425.068741 -49.965 
L 427.71125 -49.965 
L 430.353759 -49.965 
L 432.996268 -49.965 
L 435.638777 -49.965 
L 438.281286 -49.965 
L 440.923795 -49.965 
L 443.566304 -49.965 
L 446.208813 -49.965 
L 448.851321 -49.965 
L 451.49383 -49.965 
L 454.136339 -49.965 
L 456.778848 -49.965 
L 459.421357 -49.965 
L 462.063866 -49.965 
L 464.706375 -49.965 
L 467.348884 -49.965 
L 469.991393 -49.965 
L 472.633902 -49.965 
L 475.276411 -49.965 
L 477.91892 -49.965 
L 480.561429 -49.965 
L 483.203937 -49.965 
L 485.846446 -49.965 
L 488.488955 -49.965 
L 491.131464 -49.965 
L 493.773973 -49.965 
L 496.416482 -49.965 
L 499.058991 -49.965 
L 501.7015 -49.965 
L 504.344009 -49.965 
L 506.986518 -49.965 
L 509.629027 -49.965 
L 512.271536 -49.965 
L 514.914045 -49.965 
L 517.556554 -49.965 
L 520.199063 -49.965 
L 522.841571 -49.965 
L 525.48408 -49.965 
L 528.126589 -49.965 
L 530.769098 -49.965 
L 533.411607 -49.965 
L 536.054116 -49.965 
L 538.696625 -49.965 
L 541.339134 -49.965 
L 543.981643 -49.965 
L 546.624152 -49.965 
L 549.266661 -49.965 
L 551.90917 -49.965 
L 554.551679 -49.965 
L 557.194187 -49.965 
L 559.836696 -49.965 
L 562.479205 -49.965 
L 565.121714 -49.965 
L 567.764223 -49.965 
L 570.406732 -49.965 
L 573.049241 -49.965 
L 575.69175 -49.965 
L 578.334259 -49.965 
L 580.976768 -49.965 
L 583.619277 -49.965 
L 586.261786 -49.965 
L 588.904295 -49.965 
L 591.546804 -49.965 
L 594.189312 -49.965 
L 596.831821 -49.965 
L 599.47433 -49.965 
L 602.116839 -49.965 
L 604.759348 -49.965 
L 607.401857 -49.965 
L 610.044366 -49.965 
L 612.686875 -49.965 
L 612.686875 -223.487742 
L 612.686875 -223.487742 
L 610.044366 -223.734419 
L 607.401857 -222.70922 
L 604.759348 -217.169647 
L 602.116839 -219.384173 
L 599.47433 -218.680892 
L 596.831821 -219.126552 
L 594.189312 -218.504427 
L 591.546804 -219.804123 
L 588.904295 -220.67728 
L 586.261786 -221.39918 
L 583.619277 -221.694551 
L 580.976768 -224.740602 
L 578.334259 -227.513301 
L 575.69175 -228.626609 
L 573.049241 -226.018196 
L 570.406732 -227.83327 
L 567.764223 -228.174487 
L 565.121714 -234.194355 
L 562.479205 -242.257559 
L 559.836696 -240.773876 
L 557.194187 -242.296296 
L 554.551679 -243.076231 
L 551.90917 -246.409318 
L 549.266661 -246.060343 
L 546.624152 -245.907838 
L 543.981643 -247.942808 
L 541.339134 -249.156837 
L 538.696625 -249.281099 
L 536.054116 -250.923088 
L 533.411607 -250.395057 
L 530.769098 -255.23499 
L 528.126589 -255.615702 
L 525.48408 -262.071814 
L 522.841571 -263.538243 
L 520.199063 -265.679094 
L 517.556554 -266.869841 
L 514.914045 -265.5179 
L 512.271536 -272.354927 
L 509.629027 -276.739268 
L 506.986518 -277.002186 
L 504.344009 -280.257143 
L 501.7015 -280.618131 
L 499.058991 -280.578287 
L 496.416482 -280.802789 
L 493.773973 -280.289837 
L 491.131464 -281.070815 
L 488.488955 -281.519467 
L 485.846446 -279.958758 
L 483.203937 -278.6041 
L 480.561429 -276.747015 
L 477.91892 -279.235655 
L 475.276411 -279.387493 
L 472.633902 -278.305865 
L 469.991393 -276.867543 
L 467.348884 -274.183164 
L 464.706375 -274.87572 
L 462.063866 -273.050992 
L 459.421357 -273.709686 
L 456.778848 -268.904121 
L 454.136339 -269.107228 
L 451.49383 -268.678135 
L 448.851321 -264.378403 
L 446.208813 -263.690245 
L 443.566304 -264.467545 
L 440.923795 -268.754856 
L 438.281286 -268.72462 
L 435.638777 -262.975162 
L 432.996268 -262.158222 
L 430.353759 -262.10743 
L 427.71125 -266.300621 
L 425.068741 -267.065608 
L 422.426232 -264.928092 
L 419.783723 -268.101543 
L 417.141214 -269.766089 
L 414.498705 -274.742875 
L 411.856196 -278.818955 
L 409.213687 -278.857654 
L 406.571179 -279.990414 
L 403.92867 -281.790255 
L 401.286161 -282.38204 
L 398.643652 -283.003899 
L 396.001143 -284.845205 
L 393.358634 -285.470028 
L 390.716125 -283.550656 
L 388.073616 -283.00892 
L 385.431107 -284.214849 
L 382.788598 -284.265603 
L 380.146089 -286.207147 
L 377.50358 -283.507048 
L 374.861071 -283.968718 
L 372.218562 -284.156654 
L 369.576054 -283.12591 
L 366.933545 -283.688807 
L 364.291036 -283.314461 
L 361.648527 -282.961924 
L 359.006018 -283.351038 
L 356.363509 -282.764492 
L 353.721 -282.878994 
L 351.078491 -283.492523 
L 348.435982 -284.437328 
L 345.793473 -281.772493 
L 343.150964 -281.357345 
L 340.508455 -290.86211 
L 337.865946 -292.396889 
L 335.223438 -292.375874 
L 332.580929 -291.196024 
L 329.93842 -291.859592 
L 327.295911 -291.544502 
L 324.653402 -285.142843 
L 322.010893 -284.122708 
L 319.368384 -283.775214 
L 316.725875 -281.805718 
L 314.083366 -279.000918 
L 311.440857 -278.708893 
L 308.798348 -278.344823 
L 306.155839 -275.730883 
L 303.51333 -276.373739 
L 300.870821 -273.611694 
L 298.228312 -271.189931 
L 295.585804 -272.48072 
L 292.943295 -277.087548 
L 290.300786 -277.249665 
L 287.658277 -276.243135 
L 285.015768 -277.011744 
L 282.373259 -284.006243 
L 279.73075 -283.117268 
L 277.088241 -283.681545 
L 274.445732 -288.476022 
L 271.803223 -291.31862 
L 269.160714 -293.408774 
L 266.518205 -291.844441 
L 263.875696 -291.245236 
L 261.233187 -290.945056 
L 258.590679 -290.187835 
L 255.94817 -289.555514 
L 253.305661 -289.129818 
L 250.663152 -290.804209 
L 248.020643 -290.806228 
L 245.378134 -289.385995 
L 242.735625 -290.362367 
L 240.093116 -295.097542 
L 237.450607 -296.164188 
L 234.808098 -295.749908 
L 232.165589 -296.961776 
L 229.52308 -304.98094 
L 226.880571 -304.367495 
L 224.238062 -304.953763 
L 221.595554 -304.601795 
L 218.953045 -305.937389 
L 216.310536 -300.291048 
L 213.668027 -301.470883 
L 211.025518 -301.114081 
L 208.383009 -300.941767 
L 205.7405 -300.377155 
L 203.097991 -301.261656 
L 200.455482 -302.095068 
L 197.812973 -301.220714 
L 195.170464 -303.319891 
L 192.527955 -305.30193 
L 189.885446 -303.025965 
L 187.242937 -295.459815 
L 184.600429 -267.517694 
L 181.95792 -269.320206 
L 179.315411 -272.681786 
L 176.672902 -270.728966 
L 174.030393 -271.10635 
L 171.387884 -271.122151 
L 168.745375 -272.174262 
L 166.102866 -271.162857 
L 163.460357 -271.770889 
L 160.817848 -272.703449 
L 158.175339 -272.73263 
L 155.53283 -273.134813 
L 152.890321 -273.782827 
L 150.247813 -274.435602 
L 147.605304 -274.842954 
L 144.962795 -274.707789 
L 142.320286 -274.349265 
L 139.677777 -273.183162 
L 137.035268 -273.240853 
L 134.392759 -272.231977 
L 131.75025 -272.30004 
L 129.107741 -271.745742 
L 126.465232 -271.105325 
L 123.822723 -270.769071 
L 121.180214 -271.476809 
L 118.537705 -269.885703 
L 115.895196 -269.938326 
L 113.252687 -270.183481 
L 110.610179 -270.179238 
L 107.96767 -269.649479 
L 105.325161 -269.257692 
L 102.682652 -268.239327 
L 100.040143 -267.544105 
L 97.397634 -265.325284 
L 94.755125 -266.093589 
L 92.112616 -269.683662 
L 89.470107 -291.454837 
L 86.827598 -295.224249 
L 84.185089 -292.032329 
L 81.54258 -290.991217 
L 78.900071 -288.012175 
L 76.257562 -286.877116 
L 73.615054 -284.791574 
L 70.972545 -289.270329 
L 68.330036 -285.900958 
L 65.687527 -282.672968 
L 63.045018 -281.496938 
L 60.402509 -281.889626 
L 57.76 -281.874884 
z
" style="stroke: #3182bd"/>
    </defs>
    <g clip-path="url(#p8074dd763a)">
     <use xlink:href="#m218d8dd397" x="0" y="419.324375" style="fill: #3182bd; stroke: #3182bd"/>
    </g>
   </g>
   <g id="PolyCollection_2">
    <defs>
     <path id="m18fd875610" d="M 57.76 -328.685131 
L 57.76 -281.874884 
L 60.402509 -281.889626 
L 63.045018 -281.496938 
L 65.687527 -282.672968 
L 68.330036 -285.900958 
L 70.972545 -289.270329 
L 73.615054 -284.791574 
L 76.257562 -286.877116 
L 78.900071 -288.012175 
L 81.54258 -290.991217 
L 84.185089 -292.032329 
L 86.827598 -295.224249 
L 89.470107 -291.454837 
L 92.112616 -269.683662 
L 94.755125 -266.093589 
L 97.397634 -265.325284 
L 100.040143 -267.544105 
L 102.682652 -268.239327 
L 105.325161 -269.257692 
L 107.96767 -269.649479 
L 110.610179 -270.179238 
L 113.252687 -270.183481 
L 115.895196 -269.938326 
L 118.537705 -269.885703 
L 121.180214 -271.476809 
L 123.822723 -270.769071 
L 126.465232 -271.105325 
L 129.107741 -271.745742 
L 131.75025 -272.30004 
L 134.392759 -272.231977 
L 137.035268 -273.240853 
L 139.677777 -273.183162 
L 142.320286 -274.349265 
L 144.962795 -274.707789 
L 147.605304 -274.842954 
L 150.247813 -274.435602 
L 152.890321 -273.782827 
L 155.53283 -273.134813 
L 158.175339 -272.73263 
L 160.817848 -272.703449 
L 163.460357 -271.770889 
L 166.102866 -271.162857 
L 168.745375 -272.174262 
L 171.387884 -271.122151 
L 174.030393 -271.10635 
L 176.672902 -270.728966 
L 179.315411 -272.681786 
L 181.95792 -269.320206 
L 184.600429 -267.517694 
L 187.242937 -295.459815 
L 189.885446 -303.025965 
L 192.527955 -305.30193 
L 195.170464 -303.319891 
L 197.812973 -301.220714 
L 200.455482 -302.095068 
L 203.097991 -301.261656 
L 205.7405 -300.377155 
L 208.383009 -300.941767 
L 211.025518 -301.114081 
L 213.668027 -301.470883 
L 216.310536 -300.291048 
L 218.953045 -305.937389 
L 221.595554 -304.601795 
L 224.238062 -304.953763 
L 226.880571 -304.367495 
L 229.52308 -304.98094 
L 232.165589 -296.961776 
L 234.808098 -295.749908 
L 237.450607 -296.164188 
L 240.093116 -295.097542 
L 242.735625 -290.362367 
L 245.378134 -289.385995 
L 248.020643 -290.806228 
L 250.663152 -290.804209 
L 253.305661 -289.129818 
L 255.94817 -289.555514 
L 258.590679 -290.187835 
L 261.233187 -290.945056 
L 263.875696 -291.245236 
L 266.518205 -291.844441 
L 269.160714 -293.408774 
L 271.803223 -291.31862 
L 274.445732 -288.476022 
L 277.088241 -283.681545 
L 279.73075 -283.117268 
L 282.373259 -284.006243 
L 285.015768 -277.011744 
L 287.658277 -276.243135 
L 290.300786 -277.249665 
L 292.943295 -277.087548 
L 295.585804 -272.48072 
L 298.228312 -271.189931 
L 300.870821 -273.611694 
L 303.51333 -276.373739 
L 306.155839 -275.730883 
L 308.798348 -278.344823 
L 311.440857 -278.708893 
L 314.083366 -279.000918 
L 316.725875 -281.805718 
L 319.368384 -283.775214 
L 322.010893 -284.122708 
L 324.653402 -285.142843 
L 327.295911 -291.544502 
L 329.93842 -291.859592 
L 332.580929 -291.196024 
L 335.223438 -292.375874 
L 337.865946 -292.396889 
L 340.508455 -290.86211 
L 343.150964 -281.357345 
L 345.793473 -281.772493 
L 348.435982 -284.437328 
L 351.078491 -283.492523 
L 353.721 -282.878994 
L 356.363509 -282.764492 
L 359.006018 -283.351038 
L 361.648527 -282.961924 
L 364.291036 -283.314461 
L 366.933545 -283.688807 
L 369.576054 -283.12591 
L 372.218562 -284.156654 
L 374.861071 -283.968718 
L 377.50358 -283.507048 
L 380.146089 -286.207147 
L 382.788598 -284.265603 
L 385.431107 -284.214849 
L 388.073616 -283.00892 
L 390.716125 -283.550656 
L 393.358634 -285.470028 
L 396.001143 -284.845205 
L 398.643652 -283.003899 
L 401.286161 -282.38204 
L 403.92867 -281.790255 
L 406.571179 -279.990414 
L 409.213687 -278.857654 
L 411.856196 -278.818955 
L 414.498705 -274.742875 
L 417.141214 -269.766089 
L 419.783723 -268.101543 
L 422.426232 -264.928092 
L 425.068741 -267.065608 
L 427.71125 -266.300621 
L 430.353759 -262.10743 
L 432.996268 -262.158222 
L 435.638777 -262.975162 
L 438.281286 -268.72462 
L 440.923795 -268.754856 
L 443.566304 -264.467545 
L 446.208813 -263.690245 
L 448.851321 -264.378403 
L 451.49383 -268.678135 
L 454.136339 -269.107228 
L 456.778848 -268.904121 
L 459.421357 -273.709686 
L 462.063866 -273.050992 
L 464.706375 -274.87572 
L 467.348884 -274.183164 
L 469.991393 -276.867543 
L 472.633902 -278.305865 
L 475.276411 -279.387493 
L 477.91892 -279.235655 
L 480.561429 -276.747015 
L 483.203937 -278.6041 
L 485.846446 -279.958758 
L 488.488955 -281.519467 
L 491.131464 -281.070815 
L 493.773973 -280.289837 
L 496.416482 -280.802789 
L 499.058991 -280.578287 
L 501.7015 -280.618131 
L 504.344009 -280.257143 
L 506.986518 -277.002186 
L 509.629027 -276.739268 
L 512.271536 -272.354927 
L 514.914045 -265.5179 
L 517.556554 -266.869841 
L 520.199063 -265.679094 
L 522.841571 -263.538243 
L 525.48408 -262.071814 
L 528.126589 -255.615702 
L 530.769098 -255.23499 
L 533.411607 -250.395057 
L 536.054116 -250.923088 
L 538.696625 -249.281099 
L 541.339134 -249.156837 
L 543.981643 -247.942808 
L 546.624152 -245.907838 
L 549.266661 -246.060343 
L 551.90917 -246.409318 
L 554.551679 -243.076231 
L 557.194187 -242.296296 
L 559.836696 -240.773876 
L 562.479205 -242.257559 
L 565.121714 -234.194355 
L 567.764223 -228.174487 
L 570.406732 -227.83327 
L 573.049241 -226.018196 
L 575.69175 -228.626609 
L 578.334259 -227.513301 
L 580.976768 -224.740602 
L 583.619277 -221.694551 
L 586.261786 -221.39918 
L 588.904295 -220.67728 
L 591.546804 -219.804123 
L 594.189312 -218.504427 
L 596.831821 -219.126552 
L 599.47433 -218.680892 
L 602.116839 -219.384173 
L 604.759348 -217.169647 
L 607.401857 -222.70922 
L 610.044366 -223.734419 
L 612.686875 -223.487742 
L 612.686875 -315.168343 
L 612.686875 -315.168343 
L 610.044366 -313.842976 
L 607.401857 -316.68043 
L 604.759348 -315.873022 
L 602.116839 -316.147746 
L 599.47433 -317.98603 
L 596.831821 -318.205453 
L 594.189312 -318.276691 
L 591.546804 -319.663948 
L 588.904295 -320.43353 
L 586.261786 -320.842443 
L 583.619277 -321.545583 
L 580.976768 -320.523691 
L 578.334259 -319.817727 
L 575.69175 -320.096595 
L 573.049241 -321.018103 
L 570.406732 -320.103409 
L 567.764223 -319.948639 
L 565.121714 -320.99959 
L 562.479205 -323.586638 
L 559.836696 -324.419936 
L 557.194187 -325.251175 
L 554.551679 -326.527775 
L 551.90917 -325.503126 
L 549.266661 -325.380508 
L 546.624152 -325.143356 
L 543.981643 -326.674429 
L 541.339134 -328.389455 
L 538.696625 -329.59756 
L 536.054116 -329.737568 
L 533.411607 -328.610927 
L 530.769098 -331.575089 
L 528.126589 -331.725135 
L 525.48408 -332.851574 
L 522.841571 -332.20269 
L 520.199063 -332.115546 
L 517.556554 -330.933606 
L 514.914045 -331.640985 
L 512.271536 -332.251802 
L 509.629027 -333.977852 
L 506.986518 -334.032081 
L 504.344009 -334.502394 
L 501.7015 -335.90794 
L 499.058991 -336.019169 
L 496.416482 -336.980932 
L 493.773973 -336.507722 
L 491.131464 -336.753147 
L 488.488955 -336.780981 
L 485.846446 -336.814013 
L 483.203937 -337.060509 
L 480.561429 -336.279202 
L 477.91892 -337.766892 
L 475.276411 -338.806977 
L 472.633902 -339.076948 
L 469.991393 -339.309191 
L 467.348884 -338.502825 
L 464.706375 -338.556644 
L 462.063866 -337.447598 
L 459.421357 -336.559771 
L 456.778848 -337.388128 
L 454.136339 -337.166526 
L 451.49383 -336.815402 
L 448.851321 -334.019253 
L 446.208813 -332.349564 
L 443.566304 -331.416589 
L 440.923795 -333.052502 
L 438.281286 -333.032681 
L 435.638777 -327.933204 
L 432.996268 -327.353574 
L 430.353759 -327.869131 
L 427.71125 -331.211376 
L 425.068741 -332.021857 
L 422.426232 -330.0319 
L 419.783723 -327.992835 
L 417.141214 -328.125751 
L 414.498705 -330.988529 
L 411.856196 -330.017873 
L 409.213687 -329.761274 
L 406.571179 -328.770661 
L 403.92867 -328.517924 
L 401.286161 -328.646124 
L 398.643652 -329.176035 
L 396.001143 -331.169645 
L 393.358634 -330.841167 
L 390.716125 -330.402917 
L 388.073616 -329.802894 
L 385.431107 -330.437866 
L 382.788598 -330.017597 
L 380.146089 -330.927938 
L 377.50358 -327.585808 
L 374.861071 -328.12537 
L 372.218562 -328.432052 
L 369.576054 -327.523505 
L 366.933545 -327.407538 
L 364.291036 -327.75897 
L 361.648527 -327.288374 
L 359.006018 -326.727783 
L 356.363509 -326.332009 
L 353.721 -326.455834 
L 351.078491 -326.966767 
L 348.435982 -327.161442 
L 345.793473 -325.828341 
L 343.150964 -325.521952 
L 340.508455 -331.331269 
L 337.865946 -332.396465 
L 335.223438 -332.284174 
L 332.580929 -331.485773 
L 329.93842 -331.037236 
L 327.295911 -330.360427 
L 324.653402 -326.738868 
L 322.010893 -325.523948 
L 319.368384 -324.72931 
L 316.725875 -325.115577 
L 314.083366 -322.496602 
L 311.440857 -322.15281 
L 308.798348 -322.436471 
L 306.155839 -319.601927 
L 303.51333 -319.016339 
L 300.870821 -315.207955 
L 298.228312 -313.948255 
L 295.585804 -314.027092 
L 292.943295 -318.983642 
L 290.300786 -319.289643 
L 287.658277 -318.645845 
L 285.015768 -319.172787 
L 282.373259 -323.249432 
L 279.73075 -321.180059 
L 277.088241 -321.799316 
L 274.445732 -325.944013 
L 271.803223 -327.480625 
L 269.160714 -327.806268 
L 266.518205 -326.308147 
L 263.875696 -326.46925 
L 261.233187 -326.275902 
L 258.590679 -325.103025 
L 255.94817 -324.512816 
L 253.305661 -324.067498 
L 250.663152 -324.694414 
L 248.020643 -324.90642 
L 245.378134 -324.223226 
L 242.735625 -324.93863 
L 240.093116 -329.900612 
L 237.450607 -331.088805 
L 234.808098 -331.1641 
L 232.165589 -333.453534 
L 229.52308 -339.013109 
L 226.880571 -339.08581 
L 224.238062 -339.786972 
L 221.595554 -340.011329 
L 218.953045 -341.259403 
L 216.310536 -337.969609 
L 213.668027 -337.746398 
L 211.025518 -337.437368 
L 208.383009 -337.437151 
L 205.7405 -337.078173 
L 203.097991 -337.987862 
L 200.455482 -338.050263 
L 197.812973 -336.732026 
L 195.170464 -338.69897 
L 192.527955 -340.147689 
L 189.885446 -339.504637 
L 187.242937 -336.093969 
L 184.600429 -323.398413 
L 181.95792 -324.851402 
L 179.315411 -325.228404 
L 176.672902 -327.970077 
L 174.030393 -327.618166 
L 171.387884 -327.995598 
L 168.745375 -329.34179 
L 166.102866 -329.160707 
L 163.460357 -329.991387 
L 160.817848 -329.857198 
L 158.175339 -330.149879 
L 155.53283 -331.084815 
L 152.890321 -331.025763 
L 150.247813 -331.528147 
L 147.605304 -331.547623 
L 144.962795 -329.948717 
L 142.320286 -329.77518 
L 139.677777 -329.321788 
L 137.035268 -328.948047 
L 134.392759 -327.949669 
L 131.75025 -328.316393 
L 129.107741 -327.628168 
L 126.465232 -327.227671 
L 123.822723 -326.798866 
L 121.180214 -327.644573 
L 118.537705 -327.672598 
L 115.895196 -327.819212 
L 113.252687 -327.674021 
L 110.610179 -327.760616 
L 107.96767 -327.103649 
L 105.325161 -326.921388 
L 102.682652 -327.644016 
L 100.040143 -324.575901 
L 97.397634 -322.461192 
L 94.755125 -322.571388 
L 92.112616 -323.978088 
L 89.470107 -334.994612 
L 86.827598 -337.122773 
L 84.185089 -336.534943 
L 81.54258 -332.52328 
L 78.900071 -332.739111 
L 76.257562 -332.886509 
L 73.615054 -330.457679 
L 70.972545 -332.827638 
L 68.330036 -331.283814 
L 65.687527 -330.559007 
L 63.045018 -329.631232 
L 60.402509 -328.567845 
L 57.76 -328.685131 
z
" style="stroke: #a1d99b"/>
    </defs>
    <g clip-path="url(#p8074dd763a)">
     <use xlink:href="#m18fd875610" x="0" y="419.324375" style="fill: #a1d99b; stroke: #a1d99b"/>
    </g>
   </g>
   <g id="PolyCollection_3">
    <defs>
     <path id="md1fcce215a" d="M 57.76 -378.062024 
L 57.76 -328.685131 
L 60.402509 -328.567845 
L 63.045018 -329.631232 
L 65.687527 -330.559007 
L 68.330036 -331.283814 
L 70.972545 -332.827638 
L 73.615054 -330.457679 
L 76.257562 -332.886509 
L 78.900071 -332.739111 
L 81.54258 -332.52328 
L 84.185089 -336.534943 
L 86.827598 -337.122773 
L 89.470107 -334.994612 
L 92.112616 -323.978088 
L 94.755125 -322.571388 
L 97.397634 -322.461192 
L 100.040143 -324.575901 
L 102.682652 -327.644016 
L 105.325161 -326.921388 
L 107.96767 -327.103649 
L 110.610179 -327.760616 
L 113.252687 -327.674021 
L 115.895196 -327.819212 
L 118.537705 -327.672598 
L 121.180214 -327.644573 
L 123.822723 -326.798866 
L 126.465232 -327.227671 
L 129.107741 -327.628168 
L 131.75025 -328.316393 
L 134.392759 -327.949669 
L 137.035268 -328.948047 
L 139.677777 -329.321788 
L 142.320286 -329.77518 
L 144.962795 -329.948717 
L 147.605304 -331.547623 
L 150.247813 -331.528147 
L 152.890321 -331.025763 
L 155.53283 -331.084815 
L 158.175339 -330.149879 
L 160.817848 -329.857198 
L 163.460357 -329.991387 
L 166.102866 -329.160707 
L 168.745375 -329.34179 
L 171.387884 -327.995598 
L 174.030393 -327.618166 
L 176.672902 -327.970077 
L 179.315411 -325.228404 
L 181.95792 -324.851402 
L 184.600429 -323.398413 
L 187.242937 -336.093969 
L 189.885446 -339.504637 
L 192.527955 -340.147689 
L 195.170464 -338.69897 
L 197.812973 -336.732026 
L 200.455482 -338.050263 
L 203.097991 -337.987862 
L 205.7405 -337.078173 
L 208.383009 -337.437151 
L 211.025518 -337.437368 
L 213.668027 -337.746398 
L 216.310536 -337.969609 
L 218.953045 -341.259403 
L 221.595554 -340.011329 
L 224.238062 -339.786972 
L 226.880571 -339.08581 
L 229.52308 -339.013109 
L 232.165589 -333.453534 
L 234.808098 -331.1641 
L 237.450607 -331.088805 
L 240.093116 -329.900612 
L 242.735625 -324.93863 
L 245.378134 -324.223226 
L 248.020643 -324.90642 
L 250.663152 -324.694414 
L 253.305661 -324.067498 
L 255.94817 -324.512816 
L 258.590679 -325.103025 
L 261.233187 -326.275902 
L 263.875696 -326.46925 
L 266.518205 -326.308147 
L 269.160714 -327.806268 
L 271.803223 -327.480625 
L 274.445732 -325.944013 
L 277.088241 -321.799316 
L 279.73075 -321.180059 
L 282.373259 -323.249432 
L 285.015768 -319.172787 
L 287.658277 -318.645845 
L 290.300786 -319.289643 
L 292.943295 -318.983642 
L 295.585804 -314.027092 
L 298.228312 -313.948255 
L 300.870821 -315.207955 
L 303.51333 -319.016339 
L 306.155839 -319.601927 
L 308.798348 -322.436471 
L 311.440857 -322.15281 
L 314.083366 -322.496602 
L 316.725875 -325.115577 
L 319.368384 -324.72931 
L 322.010893 -325.523948 
L 324.653402 -326.738868 
L 327.295911 -330.360427 
L 329.93842 -331.037236 
L 332.580929 -331.485773 
L 335.223438 -332.284174 
L 337.865946 -332.396465 
L 340.508455 -331.331269 
L 343.150964 -325.521952 
L 345.793473 -325.828341 
L 348.435982 -327.161442 
L 351.078491 -326.966767 
L 353.721 -326.455834 
L 356.363509 -326.332009 
L 359.006018 -326.727783 
L 361.648527 -327.288374 
L 364.291036 -327.75897 
L 366.933545 -327.407538 
L 369.576054 -327.523505 
L 372.218562 -328.432052 
L 374.861071 -328.12537 
L 377.50358 -327.585808 
L 380.146089 -330.927938 
L 382.788598 -330.017597 
L 385.431107 -330.437866 
L 388.073616 -329.802894 
L 390.716125 -330.402917 
L 393.358634 -330.841167 
L 396.001143 -331.169645 
L 398.643652 -329.176035 
L 401.286161 -328.646124 
L 403.92867 -328.517924 
L 406.571179 -328.770661 
L 409.213687 -329.761274 
L 411.856196 -330.017873 
L 414.498705 -330.988529 
L 417.141214 -328.125751 
L 419.783723 -327.992835 
L 422.426232 -330.0319 
L 425.068741 -332.021857 
L 427.71125 -331.211376 
L 430.353759 -327.869131 
L 432.996268 -327.353574 
L 435.638777 -327.933204 
L 438.281286 -333.032681 
L 440.923795 -333.052502 
L 443.566304 -331.416589 
L 446.208813 -332.349564 
L 448.851321 -334.019253 
L 451.49383 -336.815402 
L 454.136339 -337.166526 
L 456.778848 -337.388128 
L 459.421357 -336.559771 
L 462.063866 -337.447598 
L 464.706375 -338.556644 
L 467.348884 -338.502825 
L 469.991393 -339.309191 
L 472.633902 -339.076948 
L 475.276411 -338.806977 
L 477.91892 -337.766892 
L 480.561429 -336.279202 
L 483.203937 -337.060509 
L 485.846446 -336.814013 
L 488.488955 -336.780981 
L 491.131464 -336.753147 
L 493.773973 -336.507722 
L 496.416482 -336.980932 
L 499.058991 -336.019169 
L 501.7015 -335.90794 
L 504.344009 -334.502394 
L 506.986518 -334.032081 
L 509.629027 -333.977852 
L 512.271536 -332.251802 
L 514.914045 -331.640985 
L 517.556554 -330.933606 
L 520.199063 -332.115546 
L 522.841571 -332.20269 
L 525.48408 -332.851574 
L 528.126589 -331.725135 
L 530.769098 -331.575089 
L 533.411607 -328.610927 
L 536.054116 -329.737568 
L 538.696625 -329.59756 
L 541.339134 -328.389455 
L 543.981643 -326.674429 
L 546.624152 -325.143356 
L 549.266661 -325.380508 
L 551.90917 -325.503126 
L 554.551679 -326.527775 
L 557.194187 -325.251175 
L 559.836696 -324.419936 
L 562.479205 -323.586638 
L 565.121714 -320.99959 
L 567.764223 -319.948639 
L 570.406732 -320.103409 
L 573.049241 -321.018103 
L 575.69175 -320.096595 
L 578.334259 -319.817727 
L 580.976768 -320.523691 
L 583.619277 -321.545583 
L 586.261786 -320.842443 
L 588.904295 -320.43353 
L 591.546804 -319.663948 
L 594.189312 -318.276691 
L 596.831821 -318.205453 
L 599.47433 -317.98603 
L 602.116839 -316.147746 
L 604.759348 -315.873022 
L 607.401857 -316.68043 
L 610.044366 -313.842976 
L 612.686875 -315.168343 
L 612.686875 -378.062024 
L 612.686875 -378.062024 
L 610.044366 -378.062024 
L 607.401857 -378.062024 
L 604.759348 -378.062024 
L 602.116839 -378.062024 
L 599.47433 -378.062024 
L 596.831821 -378.062024 
L 594.189312 -378.062024 
L 591.546804 -378.062024 
L 588.904295 -378.062024 
L 586.261786 -378.062024 
L 583.619277 -378.062024 
L 580.976768 -378.062024 
L 578.334259 -378.062024 
L 575.69175 -378.062024 
L 573.049241 -378.062024 
L 570.406732 -378.062024 
L 567.764223 -378.062024 
L 565.121714 -378.062024 
L 562.479205 -378.062024 
L 559.836696 -378.062024 
L 557.194187 -378.062024 
L 554.551679 -378.062024 
L 551.90917 -378.062024 
L 549.266661 -378.062024 
L 546.624152 -378.062024 
L 543.981643 -378.062024 
L 541.339134 -378.062024 
L 538.696625 -378.062024 
L 536.054116 -378.062024 
L 533.411607 -378.062024 
L 530.769098 -378.062024 
L 528.126589 -378.062024 
L 525.48408 -378.062024 
L 522.841571 -378.062024 
L 520.199063 -378.062024 
L 517.556554 -378.062024 
L 514.914045 -378.062024 
L 512.271536 -378.062024 
L 509.629027 -378.062024 
L 506.986518 -378.062024 
L 504.344009 -378.062024 
L 501.7015 -378.062024 
L 499.058991 -378.062024 
L 496.416482 -378.062024 
L 493.773973 -378.062024 
L 491.131464 -378.062024 
L 488.488955 -378.062024 
L 485.846446 -378.062024 
L 483.203937 -378.062024 
L 480.561429 -378.062024 
L 477.91892 -378.062024 
L 475.276411 -378.062024 
L 472.633902 -378.062024 
L 469.991393 -378.062024 
L 467.348884 -378.062024 
L 464.706375 -378.062024 
L 462.063866 -378.062024 
L 459.421357 -378.062024 
L 456.778848 -378.062024 
L 454.136339 -378.062024 
L 451.49383 -378.062024 
L 448.851321 -378.062024 
L 446.208813 -378.062024 
L 443.566304 -378.062024 
L 440.923795 -378.062024 
L 438.281286 -378.062024 
L 435.638777 -378.062024 
L 432.996268 -378.062024 
L 430.353759 -378.062024 
L 427.71125 -378.062024 
L 425.068741 -378.062024 
L 422.426232 -378.062024 
L 419.783723 -378.062024 
L 417.141214 -378.062024 
L 414.498705 -378.062024 
L 411.856196 -378.062024 
L 409.213687 -378.062024 
L 406.571179 -378.062024 
L 403.92867 -378.062024 
L 401.286161 -378.062024 
L 398.643652 -378.062024 
L 396.001143 -378.062024 
L 393.358634 -378.062024 
L 390.716125 -378.062024 
L 388.073616 -378.062024 
L 385.431107 -378.062024 
L 382.788598 -378.062024 
L 380.146089 -378.062024 
L 377.50358 -378.062024 
L 374.861071 -378.062024 
L 372.218562 -378.062024 
L 369.576054 -378.062024 
L 366.933545 -378.062024 
L 364.291036 -378.062024 
L 361.648527 -378.062024 
L 359.006018 -378.062024 
L 356.363509 -378.062024 
L 353.721 -378.062024 
L 351.078491 -378.062024 
L 348.435982 -378.062024 
L 345.793473 -378.062024 
L 343.150964 -378.062024 
L 340.508455 -378.062024 
L 337.865946 -378.062024 
L 335.223438 -378.062024 
L 332.580929 -378.062024 
L 329.93842 -378.062024 
L 327.295911 -378.062024 
L 324.653402 -378.062024 
L 322.010893 -378.062024 
L 319.368384 -378.062024 
L 316.725875 -378.062024 
L 314.083366 -378.062024 
L 311.440857 -378.062024 
L 308.798348 -378.062024 
L 306.155839 -378.062024 
L 303.51333 -378.062024 
L 300.870821 -378.062024 
L 298.228312 -378.062024 
L 295.585804 -378.062024 
L 292.943295 -378.062024 
L 290.300786 -378.062024 
L 287.658277 -378.062024 
L 285.015768 -378.062024 
L 282.373259 -378.062024 
L 279.73075 -378.062024 
L 277.088241 -378.062024 
L 274.445732 -378.062024 
L 271.803223 -378.062024 
L 269.160714 -378.062024 
L 266.518205 -378.062024 
L 263.875696 -378.062024 
L 261.233187 -378.062024 
L 258.590679 -378.062024 
L 255.94817 -378.062024 
L 253.305661 -378.062024 
L 250.663152 -378.062024 
L 248.020643 -378.062024 
L 245.378134 -378.062024 
L 242.735625 -378.062024 
L 240.093116 -378.062024 
L 237.450607 -378.062024 
L 234.808098 -378.062024 
L 232.165589 -378.062024 
L 229.52308 -378.062024 
L 226.880571 -378.062024 
L 224.238062 -378.062024 
L 221.595554 -378.062024 
L 218.953045 -378.062024 
L 216.310536 -378.062024 
L 213.668027 -378.062024 
L 211.025518 -378.062024 
L 208.383009 -378.062024 
L 205.7405 -378.062024 
L 203.097991 -378.062024 
L 200.455482 -378.062024 
L 197.812973 -378.062024 
L 195.170464 -378.062024 
L 192.527955 -378.062024 
L 189.885446 -378.062024 
L 187.242937 -378.062024 
L 184.600429 -378.062024 
L 181.95792 -378.062024 
L 179.315411 -378.062024 
L 176.672902 -378.062024 
L 174.030393 -378.062024 
L 171.387884 -378.062024 
L 168.745375 -378.062024 
L 166.102866 -378.062024 
L 163.460357 -378.062024 
L 160.817848 -378.062024 
L 158.175339 -378.062024 
L 155.53283 -378.062024 
L 152.890321 -378.062024 
L 150.247813 -378.062024 
L 147.605304 -378.062024 
L 144.962795 -378.062024 
L 142.320286 -378.062024 
L 139.677777 -378.062024 
L 137.035268 -378.062024 
L 134.392759 -378.062024 
L 131.75025 -378.062024 
L 129.107741 -378.062024 
L 126.465232 -378.062024 
L 123.822723 -378.062024 
L 121.180214 -378.062024 
L 118.537705 -378.062024 
L 115.895196 -378.062024 
L 113.252687 -378.062024 
L 110.610179 -378.062024 
L 107.96767 -378.062024 
L 105.325161 -378.062024 
L 102.682652 -378.062024 
L 100.040143 -378.062024 
L 97.397634 -378.062024 
L 94.755125 -378.062024 
L 92.112616 -378.062024 
L 89.470107 -378.062024 
L 86.827598 -378.062024 
L 84.185089 -378.062024 
L 81.54258 -378.062024 
L 78.900071 -378.062024 
L 76.257562 -378.062024 
L 73.615054 -378.062024 
L 70.972545 -378.062024 
L 68.330036 -378.062024 
L 65.687527 -378.062024 
L 63.045018 -378.062024 
L 60.402509 -378.062024 
L 57.76 -378.062024 
z
" style="stroke: #d9d9d9"/>
    </defs>
    <g clip-path="url(#p8074dd763a)">
     <use xlink:href="#md1fcce215a" x="0" y="419.324375" style="fill: #d9d9d9; stroke: #d9d9d9"/>
    </g>
   </g>
   <g id="line2d_16">
    <path d="M 57.76 137.449491 
L 60.402509 137.434749 
L 63.045018 137.827437 
L 65.687527 136.651407 
L 70.972545 130.054046 
L 73.615054 134.532801 
L 76.257562 132.447259 
L 78.900071 131.3122 
L 81.54258 128.333158 
L 84.185089 127.292046 
L 86.827598 124.100126 
L 89.470107 127.869538 
L 92.112616 149.640713 
L 94.755125 153.230786 
L 97.397634 153.999091 
L 100.040143 151.78027 
L 102.682652 151.085048 
L 105.325161 150.066683 
L 107.96767 149.674896 
L 110.610179 149.145137 
L 113.252687 149.140894 
L 115.895196 149.386049 
L 118.537705 149.438672 
L 121.180214 147.847566 
L 123.822723 148.555304 
L 126.465232 148.21905 
L 131.75025 147.024335 
L 134.392759 147.092398 
L 137.035268 146.083522 
L 139.677777 146.141213 
L 142.320286 144.97511 
L 144.962795 144.616586 
L 147.605304 144.481421 
L 150.247813 144.888773 
L 155.53283 146.189562 
L 158.175339 146.591745 
L 160.817848 146.620926 
L 163.460357 147.553486 
L 166.102866 148.161518 
L 168.745375 147.150113 
L 171.387884 148.202224 
L 174.030393 148.218025 
L 176.672902 148.595409 
L 179.315411 146.642589 
L 181.95792 150.004169 
L 184.600429 151.806681 
L 187.242937 123.86456 
L 189.885446 116.29841 
L 192.527955 114.022445 
L 197.812973 118.103661 
L 200.455482 117.229307 
L 205.7405 118.94722 
L 208.383009 118.382608 
L 211.025518 118.210294 
L 213.668027 117.853492 
L 216.310536 119.033327 
L 218.953045 113.386986 
L 221.595554 114.72258 
L 224.238062 114.370612 
L 226.880571 114.95688 
L 229.52308 114.343435 
L 232.165589 122.362599 
L 234.808098 123.574467 
L 237.450607 123.160187 
L 240.093116 124.226833 
L 242.735625 128.962008 
L 245.378134 129.93838 
L 248.020643 128.518147 
L 250.663152 128.520166 
L 253.305661 130.194557 
L 255.94817 129.768861 
L 258.590679 129.13654 
L 261.233187 128.379319 
L 263.875696 128.079139 
L 266.518205 127.479934 
L 269.160714 125.915601 
L 271.803223 128.005755 
L 274.445732 130.848353 
L 277.088241 135.64283 
L 279.73075 136.207107 
L 282.373259 135.318132 
L 285.015768 142.312631 
L 287.658277 143.08124 
L 290.300786 142.07471 
L 292.943295 142.236827 
L 295.585804 146.843655 
L 298.228312 148.134444 
L 300.870821 145.712681 
L 303.51333 142.950636 
L 306.155839 143.593492 
L 308.798348 140.979552 
L 314.083366 140.323457 
L 316.725875 137.518657 
L 319.368384 135.549161 
L 322.010893 135.201667 
L 324.653402 134.181532 
L 327.295911 127.779873 
L 329.93842 127.464783 
L 332.580929 128.128351 
L 335.223438 126.948501 
L 337.865946 126.927486 
L 340.508455 128.462265 
L 343.150964 137.96703 
L 345.793473 137.551882 
L 348.435982 134.887047 
L 351.078491 135.831852 
L 353.721 136.445381 
L 356.363509 136.559883 
L 359.006018 135.973337 
L 361.648527 136.362451 
L 366.933545 135.635568 
L 369.576054 136.198465 
L 372.218562 135.167721 
L 374.861071 135.355657 
L 377.50358 135.817327 
L 380.146089 133.117228 
L 382.788598 135.058772 
L 385.431107 135.109526 
L 388.073616 136.315455 
L 390.716125 135.773719 
L 393.358634 133.854347 
L 396.001143 134.47917 
L 398.643652 136.320476 
L 403.92867 137.53412 
L 406.571179 139.333961 
L 409.213687 140.466721 
L 411.856196 140.50542 
L 414.498705 144.5815 
L 417.141214 149.558286 
L 419.783723 151.222832 
L 422.426232 154.396283 
L 425.068741 152.258767 
L 427.71125 153.023754 
L 430.353759 157.216945 
L 432.996268 157.166153 
L 435.638777 156.349213 
L 438.281286 150.599755 
L 440.923795 150.569519 
L 443.566304 154.85683 
L 446.208813 155.63413 
L 448.851321 154.945972 
L 451.49383 150.64624 
L 454.136339 150.217147 
L 456.778848 150.420254 
L 459.421357 145.614689 
L 462.063866 146.273383 
L 464.706375 144.448655 
L 467.348884 145.141211 
L 469.991393 142.456832 
L 472.633902 141.01851 
L 475.276411 139.936882 
L 477.91892 140.08872 
L 480.561429 142.57736 
L 483.203937 140.720275 
L 485.846446 139.365617 
L 488.488955 137.804908 
L 491.131464 138.25356 
L 493.773973 139.034538 
L 496.416482 138.521586 
L 499.058991 138.746088 
L 501.7015 138.706244 
L 504.344009 139.067232 
L 506.986518 142.322189 
L 509.629027 142.585107 
L 512.271536 146.969448 
L 514.914045 153.806475 
L 517.556554 152.454534 
L 520.199063 153.645281 
L 522.841571 155.786132 
L 525.48408 157.252561 
L 528.126589 163.708673 
L 530.769098 164.089385 
L 533.411607 168.929318 
L 536.054116 168.401287 
L 538.696625 170.043276 
L 541.339134 170.167538 
L 543.981643 171.381567 
L 546.624152 173.416537 
L 549.266661 173.264032 
L 551.90917 172.915057 
L 554.551679 176.248144 
L 557.194187 177.028079 
L 559.836696 178.550499 
L 562.479205 177.066816 
L 565.121714 185.13002 
L 567.764223 191.149888 
L 570.406732 191.491105 
L 573.049241 193.306179 
L 575.69175 190.697766 
L 578.334259 191.811074 
L 580.976768 194.583773 
L 583.619277 197.629824 
L 586.261786 197.925195 
L 588.904295 198.647095 
L 591.546804 199.520252 
L 594.189312 200.819948 
L 596.831821 200.197823 
L 599.47433 200.643483 
L 602.116839 199.940202 
L 604.759348 202.154728 
L 607.401857 196.615155 
L 610.044366 195.589956 
L 612.686875 195.836633 
L 612.686875 195.836633 
" clip-path="url(#p8074dd763a)" style="fill: none; stroke: #3182bd; stroke-width: 1.5; stroke-linecap: round"/>
   </g>
   <g id="line2d_17">
    <path d="M 57.76 90.639244 
L 60.402509 90.75653 
L 63.045018 89.693143 
L 65.687527 88.765368 
L 68.330036 88.040561 
L 70.972545 86.496737 
L 73.615054 88.866696 
L 76.257562 86.437866 
L 81.54258 86.801095 
L 84.185089 82.789432 
L 86.827598 82.201602 
L 89.470107 84.329763 
L 92.112616 95.346287 
L 94.755125 96.752987 
L 97.397634 96.863183 
L 100.040143 94.748474 
L 102.682652 91.680359 
L 105.325161 92.402987 
L 107.96767 92.220726 
L 110.610179 91.563759 
L 113.252687 91.650354 
L 115.895196 91.505163 
L 118.537705 91.651777 
L 121.180214 91.679802 
L 123.822723 92.525509 
L 129.107741 91.696207 
L 131.75025 91.007982 
L 134.392759 91.374706 
L 137.035268 90.376328 
L 142.320286 89.549195 
L 144.962795 89.375658 
L 147.605304 87.776752 
L 150.247813 87.796228 
L 152.890321 88.298612 
L 155.53283 88.23956 
L 158.175339 89.174496 
L 160.817848 89.467177 
L 163.460357 89.332988 
L 166.102866 90.163668 
L 168.745375 89.982585 
L 171.387884 91.328777 
L 174.030393 91.706209 
L 176.672902 91.354298 
L 179.315411 94.095971 
L 181.95792 94.472973 
L 184.600429 95.925962 
L 187.242937 83.230406 
L 189.885446 79.819738 
L 192.527955 79.176686 
L 195.170464 80.625405 
L 197.812973 82.592349 
L 200.455482 81.274112 
L 203.097991 81.336513 
L 205.7405 82.246202 
L 208.383009 81.887224 
L 211.025518 81.887007 
L 216.310536 81.354766 
L 218.953045 78.064972 
L 221.595554 79.313046 
L 224.238062 79.537403 
L 226.880571 80.238565 
L 229.52308 80.311266 
L 232.165589 85.870841 
L 234.808098 88.160275 
L 237.450607 88.23557 
L 240.093116 89.423763 
L 242.735625 94.385745 
L 245.378134 95.101149 
L 248.020643 94.417955 
L 250.663152 94.629961 
L 253.305661 95.256877 
L 255.94817 94.811559 
L 258.590679 94.22135 
L 261.233187 93.048473 
L 263.875696 92.855125 
L 266.518205 93.016228 
L 269.160714 91.518107 
L 271.803223 91.84375 
L 274.445732 93.380362 
L 277.088241 97.525059 
L 279.73075 98.144316 
L 282.373259 96.074943 
L 285.015768 100.151588 
L 287.658277 100.67853 
L 290.300786 100.034732 
L 292.943295 100.340733 
L 295.585804 105.297283 
L 298.228312 105.37612 
L 300.870821 104.11642 
L 303.51333 100.308036 
L 306.155839 99.722448 
L 308.798348 96.887904 
L 311.440857 97.171565 
L 314.083366 96.827773 
L 316.725875 94.208798 
L 319.368384 94.595065 
L 322.010893 93.800427 
L 324.653402 92.585507 
L 327.295911 88.963948 
L 329.93842 88.287139 
L 332.580929 87.838602 
L 335.223438 87.040201 
L 337.865946 86.92791 
L 340.508455 87.993106 
L 343.150964 93.802423 
L 345.793473 93.496034 
L 348.435982 92.162933 
L 351.078491 92.357608 
L 353.721 92.868541 
L 356.363509 92.992366 
L 359.006018 92.596592 
L 364.291036 91.565405 
L 366.933545 91.916837 
L 369.576054 91.80087 
L 372.218562 90.892323 
L 374.861071 91.199005 
L 377.50358 91.738567 
L 380.146089 88.396437 
L 382.788598 89.306778 
L 385.431107 88.886509 
L 388.073616 89.521481 
L 390.716125 88.921458 
L 396.001143 88.15473 
L 398.643652 90.14834 
L 401.286161 90.678251 
L 403.92867 90.806451 
L 406.571179 90.553714 
L 409.213687 89.563101 
L 411.856196 89.306502 
L 414.498705 88.335846 
L 417.141214 91.198624 
L 419.783723 91.33154 
L 425.068741 87.302518 
L 427.71125 88.112999 
L 430.353759 91.455244 
L 432.996268 91.970801 
L 435.638777 91.391171 
L 438.281286 86.291694 
L 440.923795 86.271873 
L 443.566304 87.907786 
L 446.208813 86.974811 
L 448.851321 85.305122 
L 451.49383 82.508973 
L 454.136339 82.157849 
L 456.778848 81.936247 
L 459.421357 82.764604 
L 462.063866 81.876777 
L 464.706375 80.767731 
L 467.348884 80.82155 
L 469.991393 80.015184 
L 475.276411 80.517398 
L 477.91892 81.557483 
L 480.561429 83.045173 
L 483.203937 82.263866 
L 485.846446 82.510362 
L 491.131464 82.571228 
L 493.773973 82.816653 
L 496.416482 82.343443 
L 499.058991 83.305206 
L 501.7015 83.416435 
L 504.344009 84.821981 
L 506.986518 85.292294 
L 509.629027 85.346523 
L 512.271536 87.072573 
L 517.556554 88.390769 
L 520.199063 87.208829 
L 522.841571 87.121685 
L 525.48408 86.472801 
L 528.126589 87.59924 
L 530.769098 87.749286 
L 533.411607 90.713448 
L 536.054116 89.586807 
L 538.696625 89.726815 
L 541.339134 90.93492 
L 543.981643 92.649946 
L 546.624152 94.181019 
L 549.266661 93.943867 
L 551.90917 93.821249 
L 554.551679 92.7966 
L 557.194187 94.0732 
L 562.479205 95.737737 
L 565.121714 98.324785 
L 567.764223 99.375736 
L 570.406732 99.220966 
L 573.049241 98.306272 
L 575.69175 99.22778 
L 578.334259 99.506648 
L 580.976768 98.800684 
L 583.619277 97.778792 
L 586.261786 98.481932 
L 588.904295 98.890845 
L 591.546804 99.660427 
L 594.189312 101.047684 
L 596.831821 101.118922 
L 599.47433 101.338345 
L 602.116839 103.176629 
L 604.759348 103.451353 
L 607.401857 102.643945 
L 610.044366 105.481399 
L 612.686875 104.156032 
L 612.686875 104.156032 
" clip-path="url(#p8074dd763a)" style="fill: none; stroke: #a1d99b; stroke-width: 1.5; stroke-linecap: round"/>
   </g>
   <g id="line2d_18">
    <path d="M 57.76 41.262351 
L 612.686875 41.262351 
L 612.686875 41.262351 
" clip-path="url(#p8074dd763a)" style="fill: none; stroke: #d9d9d9; stroke-width: 1.5; stroke-linecap: round"/>
   </g>
   <g id="patch_3">
    <path d="M 57.76 369.359375 
L 57.76 24.8575 
" style="fill: none; stroke: #cccccc; stroke-width: 1.25; stroke-linejoin: miter; stroke-linecap: square"/>
   </g>
   <g id="patch_4">
    <path d="M 612.686875 369.359375 
L 612.686875 24.8575 
" style="fill: none; stroke: #cccccc; stroke-width: 1.25; stroke-linejoin: miter; stroke-linecap: square"/>
   </g>
   <g id="patch_5">
    <path d="M 57.76 369.359375 
L 612.686875 369.359375 
" style="fill: none; stroke: #cccccc; stroke-width: 1.25; stroke-linejoin: miter; stroke-linecap: square"/>
   </g>
   <g id="patch_6">
    <path d="M 57.76 24.8575 
L 612.686875 24.8575 
" style="fill: none; stroke: #cccccc; stroke-width: 1.25; stroke-linejoin: miter; stroke-linecap: square"/>
   </g>
   <g id="text_18">
    <!-- Risk Parity Portfolio Weights Over Time -->
    <g style="fill: #262626" transform="translate(195.332187 18.8575) scale(0.16 -0.16)">
     <defs>
      <path id="ArialMT-52" d="M 503 0 
L 503 4581 
L 2534 4581 
Q 3147 4581 3465 4457 
Q 3784 4334 3975 4021 
Q 4166 3709 4166 3331 
Q 4166 2844 3850 2509 
Q 3534 2175 2875 2084 
Q 3116 1969 3241 1856 
Q 3506 1613 3744 1247 
L 4541 0 
L 3778 0 
L 3172 953 
Q 2906 1366 2734 1584 
Q 2563 1803 2427 1890 
Q 2291 1978 2150 2013 
Q 2047 2034 1813 2034 
L 1109 2034 
L 1109 0 
L 503 0 
z
M 1109 2559 
L 2413 2559 
Q 2828 2559 3062 2645 
Q 3297 2731 3419 2920 
Q 3541 3109 3541 3331 
Q 3541 3656 3305 3865 
Q 3069 4075 2559 4075 
L 1109 4075 
L 1109 2559 
z
" transform="scale(0.015625)"/>
      <path id="ArialMT-73" d="M 197 991 
L 753 1078 
Q 800 744 1014 566 
Q 1228 388 1613 388 
Q 2000 388 2187 545 
Q 2375 703 2375 916 
Q 2375 1106 2209 1216 
Q 2094 1291 1634 1406 
Q 1016 1563 777 1677 
Q 538 1791 414 1992 
Q 291 2194 291 2438 
Q 291 2659 392 2848 
Q 494 3038 669 3163 
Q 800 3259 1026 3326 
Q 1253 3394 1513 3394 
Q 1903 3394 2198 3281 
Q 2494 3169 2634 2976 
Q 2775 2784 2828 2463 
L 2278 2388 
Q 2241 2644 2061 2787 
Q 1881 2931 1553 2931 
Q 1166 2931 1000 2803 
Q 834 2675 834 2503 
Q 834 2394 903 2306 
Q 972 2216 1119 2156 
Q 1203 2125 1616 2013 
Q 2213 1853 2448 1751 
Q 2684 1650 2818 1456 
Q 2953 1263 2953 975 
Q 2953 694 2789 445 
Q 2625 197 2315 61 
Q 2006 -75 1616 -75 
Q 969 -75 630 194 
Q 291 463 197 991 
z
" transform="scale(0.015625)"/>
      <path id="ArialMT-6b" d="M 425 0 
L 425 4581 
L 988 4581 
L 988 1969 
L 2319 3319 
L 3047 3319 
L 1778 2088 
L 3175 0 
L 2481 0 
L 1384 1697 
L 988 1316 
L 988 0 
L 425 0 
z
" transform="scale(0.015625)"/>
      <path id="ArialMT-20" transform="scale(0.015625)"/>
      <path id="ArialMT-50" d="M 494 0 
L 494 4581 
L 2222 4581 
Q 2678 4581 2919 4538 
Q 3256 4481 3484 4323 
Q 3713 4166 3852 3881 
Q 3991 3597 3991 3256 
Q 3991 2672 3619 2267 
Q 3247 1863 2275 1863 
L 1100 1863 
L 1100 0 
L 494 0 
z
M 1100 2403 
L 2284 2403 
Q 2872 2403 3119 2622 
Q 3366 2841 3366 3238 
Q 3366 3525 3220 3729 
Q 3075 3934 2838 4000 
Q 2684 4041 2272 4041 
L 1100 4041 
L 1100 2403 
z
" transform="scale(0.015625)"/>
      <path id="ArialMT-72" d="M 416 0 
L 416 3319 
L 922 3319 
L 922 2816 
Q 1116 3169 1280 3281 
Q 1444 3394 1641 3394 
Q 1925 3394 2219 3213 
L 2025 2691 
Q 1819 2813 1613 2813 
Q 1428 2813 1281 2702 
Q 1134 2591 1072 2394 
Q 978 2094 978 1738 
L 978 0 
L 416 0 
z
" transform="scale(0.015625)"/>
      <path id="ArialMT-79" d="M 397 -1278 
L 334 -750 
Q 519 -800 656 -800 
Q 844 -800 956 -737 
Q 1069 -675 1141 -563 
Q 1194 -478 1313 -144 
Q 1328 -97 1363 -6 
L 103 3319 
L 709 3319 
L 1400 1397 
Q 1534 1031 1641 628 
Q 1738 1016 1872 1384 
L 2581 3319 
L 3144 3319 
L 1881 -56 
Q 1678 -603 1566 -809 
Q 1416 -1088 1222 -1217 
Q 1028 -1347 759 -1347 
Q 597 -1347 397 -1278 
z
" transform="scale(0.015625)"/>
      <path id="ArialMT-6f" d="M 213 1659 
Q 213 2581 725 3025 
Q 1153 3394 1769 3394 
Q 2453 3394 2887 2945 
Q 3322 2497 3322 1706 
Q 3322 1066 3130 698 
Q 2938 331 2570 128 
Q 2203 -75 1769 -75 
Q 1072 -75 642 372 
Q 213 819 213 1659 
z
M 791 1659 
Q 791 1022 1069 705 
Q 1347 388 1769 388 
Q 2188 388 2466 706 
Q 2744 1025 2744 1678 
Q 2744 2294 2464 2611 
Q 2184 2928 1769 2928 
Q 1347 2928 1069 2612 
Q 791 2297 791 1659 
z
" transform="scale(0.015625)"/>
      <path id="ArialMT-66" d="M 556 0 
L 556 2881 
L 59 2881 
L 59 3319 
L 556 3319 
L 556 3672 
Q 556 4006 616 4169 
Q 697 4388 901 4523 
Q 1106 4659 1475 4659 
Q 1713 4659 2000 4603 
L 1916 4113 
Q 1741 4144 1584 4144 
Q 1328 4144 1222 4034 
Q 1116 3925 1116 3625 
L 1116 3319 
L 1763 3319 
L 1763 2881 
L 1116 2881 
L 1116 0 
L 556 0 
z
" transform="scale(0.015625)"/>
      <path id="ArialMT-6c" d="M 409 0 
L 409 4581 
L 972 4581 
L 972 0 
L 409 0 
z
" transform="scale(0.015625)"/>
      <path id="ArialMT-4f" d="M 309 2231 
Q 309 3372 921 4017 
Q 1534 4663 2503 4663 
Q 3138 4663 3647 4359 
Q 4156 4056 4423 3514 
Q 4691 2972 4691 2284 
Q 4691 1588 4409 1038 
Q 4128 488 3612 205 
Q 3097 -78 2500 -78 
Q 1853 -78 1343 234 
Q 834 547 571 1087 
Q 309 1628 309 2231 
z
M 934 2222 
Q 934 1394 1379 917 
Q 1825 441 2497 441 
Q 3181 441 3623 922 
Q 4066 1403 4066 2288 
Q 4066 2847 3877 3264 
Q 3688 3681 3323 3911 
Q 2959 4141 2506 4141 
Q 1863 4141 1398 3698 
Q 934 3256 934 2222 
z
" transform="scale(0.015625)"/>
      <path id="ArialMT-76" d="M 1344 0 
L 81 3319 
L 675 3319 
L 1388 1331 
Q 1503 1009 1600 663 
Q 1675 925 1809 1294 
L 2547 3319 
L 3125 3319 
L 1869 0 
L 1344 0 
z
" transform="scale(0.015625)"/>
      <path id="ArialMT-54" d="M 1659 0 
L 1659 4041 
L 150 4041 
L 150 4581 
L 3781 4581 
L 3781 4041 
L 2266 4041 
L 2266 0 
L 1659 0 
z
" transform="scale(0.015625)"/>
      <path id="ArialMT-6d" d="M 422 0 
L 422 3319 
L 925 3319 
L 925 2853 
Q 1081 3097 1340 3245 
Q 1600 3394 1931 3394 
Q 2300 3394 2536 3241 
Q 2772 3088 2869 2813 
Q 3263 3394 3894 3394 
Q 4388 3394 4653 3120 
Q 4919 2847 4919 2278 
L 4919 0 
L 4359 0 
L 4359 2091 
Q 4359 2428 4304 2576 
Q 4250 2725 4106 2815 
Q 3963 2906 3769 2906 
Q 3419 2906 3187 2673 
Q 2956 2441 2956 1928 
L 2956 0 
L 2394 0 
L 2394 2156 
Q 2394 2531 2256 2718 
Q 2119 2906 1806 2906 
Q 1569 2906 1367 2781 
Q 1166 2656 1075 2415 
Q 984 2175 984 1722 
L 984 0 
L 422 0 
z
" transform="scale(0.015625)"/>
     </defs>
     <use xlink:href="#ArialMT-52"/>
     <use xlink:href="#ArialMT-69" x="72.216797"/>
     <use xlink:href="#ArialMT-73" x="94.433594"/>
     <use xlink:href="#ArialMT-6b" x="144.433594"/>
     <use xlink:href="#ArialMT-20" x="194.433594"/>
     <use xlink:href="#ArialMT-50" x="222.216797"/>
     <use xlink:href="#ArialMT-61" x="288.916016"/>
     <use xlink:href="#ArialMT-72" x="344.53125"/>
     <use xlink:href="#ArialMT-69" x="377.832031"/>
     <use xlink:href="#ArialMT-74" x="400.048828"/>
     <use xlink:href="#ArialMT-79" x="427.832031"/>
     <use xlink:href="#ArialMT-20" x="477.832031"/>
     <use xlink:href="#ArialMT-50" x="505.615234"/>
     <use xlink:href="#ArialMT-6f" x="572.314453"/>
     <use xlink:href="#ArialMT-72" x="627.929688"/>
     <use xlink:href="#ArialMT-74" x="661.230469"/>
     <use xlink:href="#ArialMT-66" x="689.013672"/>
     <use xlink:href="#ArialMT-6f" x="716.796875"/>
     <use xlink:href="#ArialMT-6c" x="772.412109"/>
     <use xlink:href="#ArialMT-69" x="794.628906"/>
     <use xlink:href="#ArialMT-6f" x="816.845703"/>
     <use xlink:href="#ArialMT-20" x="872.460938"/>
     <use xlink:href="#ArialMT-57" x="900.244141"/>
     <use xlink:href="#ArialMT-65" x="992.878906"/>
     <use xlink:href="#ArialMT-69" x="1048.494141"/>
     <use xlink:href="#ArialMT-67" x="1070.710938"/>
     <use xlink:href="#ArialMT-68" x="1126.326172"/>
     <use xlink:href="#ArialMT-74" x="1181.941406"/>
     <use xlink:href="#ArialMT-73" x="1209.724609"/>
     <use xlink:href="#ArialMT-20" x="1259.724609"/>
     <use xlink:href="#ArialMT-4f" x="1287.507812"/>
     <use xlink:href="#ArialMT-76" x="1365.291016"/>
     <use xlink:href="#ArialMT-65" x="1415.291016"/>
     <use xlink:href="#ArialMT-72" x="1470.90625"/>
     <use xlink:href="#ArialMT-20" x="1504.207031"/>
     <use xlink:href="#ArialMT-54" x="1530.240234"/>
     <use xlink:href="#ArialMT-69" x="1587.574219"/>
     <use xlink:href="#ArialMT-6d" x="1609.791016"/>
     <use xlink:href="#ArialMT-65" x="1693.091797"/>
    </g>
   </g>
   <g id="legend_1">
    <g id="text_19">
     <!-- Assets -->
     <g style="fill: #262626" transform="translate(644.146875 167.295937) scale(0.16 -0.16)">
      <defs>
       <path id="ArialMT-41" d="M -9 0 
L 1750 4581 
L 2403 4581 
L 4278 0 
L 3588 0 
L 3053 1388 
L 1138 1388 
L 634 0 
L -9 0 
z
M 1313 1881 
L 2866 1881 
L 2388 3150 
Q 2169 3728 2063 4100 
Q 1975 3659 1816 3225 
L 1313 1881 
z
" transform="scale(0.015625)"/>
      </defs>
      <use xlink:href="#ArialMT-41"/>
      <use xlink:href="#ArialMT-73" x="66.699219"/>
      <use xlink:href="#ArialMT-73" x="116.699219"/>
      <use xlink:href="#ArialMT-65" x="166.699219"/>
      <use xlink:href="#ArialMT-74" x="222.314453"/>
      <use xlink:href="#ArialMT-73" x="250.097656"/>
     </g>
    </g>
    <g id="patch_7">
     <path d="M 627.086875 189.928437 
L 659.086875 189.928437 
L 659.086875 178.728437 
L 627.086875 178.728437 
z
" style="fill: #3182bd; stroke: #3182bd; stroke-linejoin: miter"/>
    </g>
    <g id="text_20">
     <!-- AGG -->
     <g style="fill: #262626" transform="translate(671.886875 189.928437) scale(0.16 -0.16)">
      <defs>
       <path id="ArialMT-47" d="M 2638 1797 
L 2638 2334 
L 4578 2338 
L 4578 638 
Q 4131 281 3656 101 
Q 3181 -78 2681 -78 
Q 2006 -78 1454 211 
Q 903 500 622 1047 
Q 341 1594 341 2269 
Q 341 2938 620 3517 
Q 900 4097 1425 4378 
Q 1950 4659 2634 4659 
Q 3131 4659 3532 4498 
Q 3934 4338 4162 4050 
Q 4391 3763 4509 3300 
L 3963 3150 
Q 3859 3500 3706 3700 
Q 3553 3900 3268 4020 
Q 2984 4141 2638 4141 
Q 2222 4141 1919 4014 
Q 1616 3888 1430 3681 
Q 1244 3475 1141 3228 
Q 966 2803 966 2306 
Q 966 1694 1177 1281 
Q 1388 869 1791 669 
Q 2194 469 2647 469 
Q 3041 469 3416 620 
Q 3791 772 3984 944 
L 3984 1797 
L 2638 1797 
z
" transform="scale(0.015625)"/>
      </defs>
      <use xlink:href="#ArialMT-41"/>
      <use xlink:href="#ArialMT-47" x="66.699219"/>
      <use xlink:href="#ArialMT-47" x="144.482422"/>
     </g>
    </g>
    <g id="patch_8">
     <path d="M 627.086875 212.560937 
L 659.086875 212.560937 
L 659.086875 201.360937 
L 627.086875 201.360937 
z
" style="fill: #a1d99b; stroke: #a1d99b; stroke-linejoin: miter"/>
    </g>
    <g id="text_21">
     <!-- GLD -->
     <g style="fill: #262626" transform="translate(671.886875 212.560937) scale(0.16 -0.16)">
      <defs>
       <path id="ArialMT-4c" d="M 469 0 
L 469 4581 
L 1075 4581 
L 1075 541 
L 3331 541 
L 3331 0 
L 469 0 
z
" transform="scale(0.015625)"/>
      </defs>
      <use xlink:href="#ArialMT-47"/>
      <use xlink:href="#ArialMT-4c" x="77.783203"/>
      <use xlink:href="#ArialMT-44" x="133.398438"/>
     </g>
    </g>
    <g id="patch_9">
     <path d="M 627.086875 235.193437 
L 659.086875 235.193437 
L 659.086875 223.993437 
L 627.086875 223.993437 
z
" style="fill: #d9d9d9; stroke: #d9d9d9; stroke-linejoin: miter"/>
    </g>
    <g id="text_22">
     <!-- QQQ -->
     <g style="fill: #262626" transform="translate(671.886875 235.193437) scale(0.16 -0.16)">
      <defs>
       <path id="ArialMT-51" d="M 3966 491 
Q 4388 200 4744 66 
L 4566 -356 
Q 4072 -178 3581 206 
Q 3072 -78 2456 -78 
Q 1834 -78 1328 222 
Q 822 522 548 1065 
Q 275 1609 275 2291 
Q 275 2969 550 3525 
Q 825 4081 1333 4372 
Q 1841 4663 2469 4663 
Q 3103 4663 3612 4361 
Q 4122 4059 4389 3517 
Q 4656 2975 4656 2294 
Q 4656 1728 4484 1276 
Q 4313 825 3966 491 
z
M 2631 1266 
Q 3156 1119 3497 828 
Q 4031 1316 4031 2294 
Q 4031 2850 3842 3265 
Q 3653 3681 3289 3911 
Q 2925 4141 2472 4141 
Q 1794 4141 1347 3677 
Q 900 3213 900 2291 
Q 900 1397 1342 919 
Q 1784 441 2472 441 
Q 2797 441 3084 563 
Q 2800 747 2484 825 
L 2631 1266 
z
" transform="scale(0.015625)"/>
      </defs>
      <use xlink:href="#ArialMT-51"/>
      <use xlink:href="#ArialMT-51" x="77.783203"/>
      <use xlink:href="#ArialMT-51" x="155.566406"/>
     </g>
    </g>
   </g>
  </g>
 </g>
 <defs>
  <clipPath id="p8074dd763a">
   <rect x="57.76" y="24.8575" width="554.926875" height="344.501875"/>
  </clipPath>
 </defs>
</svg>
