<?xml version="1.0" encoding="utf-8" standalone="no"?>
<!DOCTYPE svg PUBLIC "-//W3C//DTD SVG 1.1//EN"
  "http://www.w3.org/Graphics/SVG/1.1/DTD/svg11.dtd">
<svg xmlns:xlink="http://www.w3.org/1999/xlink" width="996.125pt" height="490.629063pt" viewBox="0 0 996.125 490.629063" xmlns="http://www.w3.org/2000/svg" version="1.1">
 <metadata>
  <rdf:RDF xmlns:dc="http://purl.org/dc/elements/1.1/" xmlns:cc="http://creativecommons.org/ns#" xmlns:rdf="http://www.w3.org/1999/02/22-rdf-syntax-ns#">
   <cc:Work>
    <dc:type rdf:resource="http://purl.org/dc/dcmitype/StillImage"/>
    <dc:date>2025-06-08T10:36:06.790788</dc:date>
    <dc:format>image/svg+xml</dc:format>
    <dc:creator>
     <cc:Agent>
      <dc:title>Matplotlib v3.7.5, https://matplotlib.org/</dc:title>
     </cc:Agent>
    </dc:creator>
   </cc:Work>
  </rdf:RDF>
 </metadata>
 <defs>
  <style type="text/css">*{stroke-linejoin: round; stroke-linecap: butt}</style>
 </defs>
 <g id="figure_1">
  <g id="patch_1">
   <path d="M 0 490.629063 
L 996.125 490.629063 
L 996.125 0 
L 0 0 
z
" style="fill: #ffffff"/>
  </g>
  <g id="axes_1">
   <g id="patch_2">
    <path d="M 66.47 440.664062 
L 988.925 440.664062 
L 988.925 26.084062 
L 66.47 26.084062 
z
" style="fill: #ffffff"/>
   </g>
   <g id="matplotlib.axis_1">
    <g id="xtick_1">
     <g id="line2d_1">
      <path d="M 123.574357 440.664062 
L 123.574357 26.084062 
" clip-path="url(#pc371282f1f)" style="fill: none; stroke: #cccccc; stroke-linecap: round"/>
     </g>
     <g id="text_1">
      <!-- 2009 -->
      <g style="fill: #262626" transform="translate(105.779357 461.616563) scale(0.16 -0.16)">
       <defs>
        <path id="ArialMT-32" d="M 3222 541 
L 3222 0 
L 194 0 
Q 188 203 259 391 
Q 375 700 629 1000 
Q 884 1300 1366 1694 
Q 2113 2306 2375 2664 
Q 2638 3022 2638 3341 
Q 2638 3675 2398 3904 
Q 2159 4134 1775 4134 
Q 1369 4134 1125 3890 
Q 881 3647 878 3216 
L 300 3275 
Q 359 3922 746 4261 
Q 1134 4600 1788 4600 
Q 2447 4600 2831 4234 
Q 3216 3869 3216 3328 
Q 3216 3053 3103 2787 
Q 2991 2522 2730 2228 
Q 2469 1934 1863 1422 
Q 1356 997 1212 845 
Q 1069 694 975 541 
L 3222 541 
z
" transform="scale(0.015625)"/>
        <path id="ArialMT-30" d="M 266 2259 
Q 266 3072 433 3567 
Q 600 4063 929 4331 
Q 1259 4600 1759 4600 
Q 2128 4600 2406 4451 
Q 2684 4303 2865 4023 
Q 3047 3744 3150 3342 
Q 3253 2941 3253 2259 
Q 3253 1453 3087 958 
Q 2922 463 2592 192 
Q 2263 -78 1759 -78 
Q 1097 -78 719 397 
Q 266 969 266 2259 
z
M 844 2259 
Q 844 1131 1108 757 
Q 1372 384 1759 384 
Q 2147 384 2411 759 
Q 2675 1134 2675 2259 
Q 2675 3391 2411 3762 
Q 2147 4134 1753 4134 
Q 1366 4134 1134 3806 
Q 844 3388 844 2259 
z
" transform="scale(0.015625)"/>
        <path id="ArialMT-39" d="M 350 1059 
L 891 1109 
Q 959 728 1153 556 
Q 1347 384 1650 384 
Q 1909 384 2104 503 
Q 2300 622 2425 820 
Q 2550 1019 2634 1356 
Q 2719 1694 2719 2044 
Q 2719 2081 2716 2156 
Q 2547 1888 2255 1720 
Q 1963 1553 1622 1553 
Q 1053 1553 659 1965 
Q 266 2378 266 3053 
Q 266 3750 677 4175 
Q 1088 4600 1706 4600 
Q 2153 4600 2523 4359 
Q 2894 4119 3086 3673 
Q 3278 3228 3278 2384 
Q 3278 1506 3087 986 
Q 2897 466 2520 194 
Q 2144 -78 1638 -78 
Q 1100 -78 759 220 
Q 419 519 350 1059 
z
M 2653 3081 
Q 2653 3566 2395 3850 
Q 2138 4134 1775 4134 
Q 1400 4134 1122 3828 
Q 844 3522 844 3034 
Q 844 2597 1108 2323 
Q 1372 2050 1759 2050 
Q 2150 2050 2401 2323 
Q 2653 2597 2653 3081 
z
" transform="scale(0.015625)"/>
       </defs>
       <use xlink:href="#ArialMT-32"/>
       <use xlink:href="#ArialMT-30" x="55.615234"/>
       <use xlink:href="#ArialMT-30" x="111.230469"/>
       <use xlink:href="#ArialMT-39" x="166.845703"/>
      </g>
     </g>
    </g>
    <g id="xtick_2">
     <g id="line2d_2">
      <path d="M 228.997786 440.664062 
L 228.997786 26.084062 
" clip-path="url(#pc371282f1f)" style="fill: none; stroke: #cccccc; stroke-linecap: round"/>
     </g>
     <g id="text_2">
      <!-- 2011 -->
      <g style="fill: #262626" transform="translate(211.792786 461.616563) scale(0.16 -0.16)">
       <defs>
        <path id="ArialMT-31" d="M 2384 0 
L 1822 0 
L 1822 3584 
Q 1619 3391 1289 3197 
Q 959 3003 697 2906 
L 697 3450 
Q 1169 3672 1522 3987 
Q 1875 4303 2022 4600 
L 2384 4600 
L 2384 0 
z
" transform="scale(0.015625)"/>
       </defs>
       <use xlink:href="#ArialMT-32"/>
       <use xlink:href="#ArialMT-30" x="55.615234"/>
       <use xlink:href="#ArialMT-31" x="111.230469"/>
       <use xlink:href="#ArialMT-31" x="159.470703"/>
      </g>
     </g>
    </g>
    <g id="xtick_3">
     <g id="line2d_3">
      <path d="M 334.421214 440.664062 
L 334.421214 26.084062 
" clip-path="url(#pc371282f1f)" style="fill: none; stroke: #cccccc; stroke-linecap: round"/>
     </g>
     <g id="text_3">
      <!-- 2013 -->
      <g style="fill: #262626" transform="translate(316.626214 461.616563) scale(0.16 -0.16)">
       <defs>
        <path id="ArialMT-33" d="M 269 1209 
L 831 1284 
Q 928 806 1161 595 
Q 1394 384 1728 384 
Q 2125 384 2398 659 
Q 2672 934 2672 1341 
Q 2672 1728 2419 1979 
Q 2166 2231 1775 2231 
Q 1616 2231 1378 2169 
L 1441 2663 
Q 1497 2656 1531 2656 
Q 1891 2656 2178 2843 
Q 2466 3031 2466 3422 
Q 2466 3731 2256 3934 
Q 2047 4138 1716 4138 
Q 1388 4138 1169 3931 
Q 950 3725 888 3313 
L 325 3413 
Q 428 3978 793 4289 
Q 1159 4600 1703 4600 
Q 2078 4600 2393 4439 
Q 2709 4278 2876 4000 
Q 3044 3722 3044 3409 
Q 3044 3113 2884 2869 
Q 2725 2625 2413 2481 
Q 2819 2388 3044 2092 
Q 3269 1797 3269 1353 
Q 3269 753 2831 336 
Q 2394 -81 1725 -81 
Q 1122 -81 723 278 
Q 325 638 269 1209 
z
" transform="scale(0.015625)"/>
       </defs>
       <use xlink:href="#ArialMT-32"/>
       <use xlink:href="#ArialMT-30" x="55.615234"/>
       <use xlink:href="#ArialMT-31" x="111.230469"/>
       <use xlink:href="#ArialMT-33" x="166.845703"/>
      </g>
     </g>
    </g>
    <g id="xtick_4">
     <g id="line2d_4">
      <path d="M 439.844643 440.664062 
L 439.844643 26.084062 
" clip-path="url(#pc371282f1f)" style="fill: none; stroke: #cccccc; stroke-linecap: round"/>
     </g>
     <g id="text_4">
      <!-- 2015 -->
      <g style="fill: #262626" transform="translate(422.049643 461.616563) scale(0.16 -0.16)">
       <defs>
        <path id="ArialMT-35" d="M 266 1200 
L 856 1250 
Q 922 819 1161 601 
Q 1400 384 1738 384 
Q 2144 384 2425 690 
Q 2706 997 2706 1503 
Q 2706 1984 2436 2262 
Q 2166 2541 1728 2541 
Q 1456 2541 1237 2417 
Q 1019 2294 894 2097 
L 366 2166 
L 809 4519 
L 3088 4519 
L 3088 3981 
L 1259 3981 
L 1013 2750 
Q 1425 3038 1878 3038 
Q 2478 3038 2890 2622 
Q 3303 2206 3303 1553 
Q 3303 931 2941 478 
Q 2500 -78 1738 -78 
Q 1113 -78 717 272 
Q 322 622 266 1200 
z
" transform="scale(0.015625)"/>
       </defs>
       <use xlink:href="#ArialMT-32"/>
       <use xlink:href="#ArialMT-30" x="55.615234"/>
       <use xlink:href="#ArialMT-31" x="111.230469"/>
       <use xlink:href="#ArialMT-35" x="166.845703"/>
      </g>
     </g>
    </g>
    <g id="xtick_5">
     <g id="line2d_5">
      <path d="M 545.268071 440.664062 
L 545.268071 26.084062 
" clip-path="url(#pc371282f1f)" style="fill: none; stroke: #cccccc; stroke-linecap: round"/>
     </g>
     <g id="text_5">
      <!-- 2017 -->
      <g style="fill: #262626" transform="translate(527.473071 461.616563) scale(0.16 -0.16)">
       <defs>
        <path id="ArialMT-37" d="M 303 3981 
L 303 4522 
L 3269 4522 
L 3269 4084 
Q 2831 3619 2401 2847 
Q 1972 2075 1738 1259 
Q 1569 684 1522 0 
L 944 0 
Q 953 541 1156 1306 
Q 1359 2072 1739 2783 
Q 2119 3494 2547 3981 
L 303 3981 
z
" transform="scale(0.015625)"/>
       </defs>
       <use xlink:href="#ArialMT-32"/>
       <use xlink:href="#ArialMT-30" x="55.615234"/>
       <use xlink:href="#ArialMT-31" x="111.230469"/>
       <use xlink:href="#ArialMT-37" x="166.845703"/>
      </g>
     </g>
    </g>
    <g id="xtick_6">
     <g id="line2d_6">
      <path d="M 650.6915 440.664062 
L 650.6915 26.084062 
" clip-path="url(#pc371282f1f)" style="fill: none; stroke: #cccccc; stroke-linecap: round"/>
     </g>
     <g id="text_6">
      <!-- 2019 -->
      <g style="fill: #262626" transform="translate(632.8965 461.616563) scale(0.16 -0.16)">
       <use xlink:href="#ArialMT-32"/>
       <use xlink:href="#ArialMT-30" x="55.615234"/>
       <use xlink:href="#ArialMT-31" x="111.230469"/>
       <use xlink:href="#ArialMT-39" x="166.845703"/>
      </g>
     </g>
    </g>
    <g id="xtick_7">
     <g id="line2d_7">
      <path d="M 756.114929 440.664062 
L 756.114929 26.084062 
" clip-path="url(#pc371282f1f)" style="fill: none; stroke: #cccccc; stroke-linecap: round"/>
     </g>
     <g id="text_7">
      <!-- 2021 -->
      <g style="fill: #262626" transform="translate(738.319929 461.616563) scale(0.16 -0.16)">
       <use xlink:href="#ArialMT-32"/>
       <use xlink:href="#ArialMT-30" x="55.615234"/>
       <use xlink:href="#ArialMT-32" x="111.230469"/>
       <use xlink:href="#ArialMT-31" x="166.845703"/>
      </g>
     </g>
    </g>
    <g id="xtick_8">
     <g id="line2d_8">
      <path d="M 861.538357 440.664062 
L 861.538357 26.084062 
" clip-path="url(#pc371282f1f)" style="fill: none; stroke: #cccccc; stroke-linecap: round"/>
     </g>
     <g id="text_8">
      <!-- 2023 -->
      <g style="fill: #262626" transform="translate(843.743357 461.616563) scale(0.16 -0.16)">
       <use xlink:href="#ArialMT-32"/>
       <use xlink:href="#ArialMT-30" x="55.615234"/>
       <use xlink:href="#ArialMT-32" x="111.230469"/>
       <use xlink:href="#ArialMT-33" x="166.845703"/>
      </g>
     </g>
    </g>
    <g id="xtick_9">
     <g id="line2d_9">
      <path d="M 966.961786 440.664062 
L 966.961786 26.084062 
" clip-path="url(#pc371282f1f)" style="fill: none; stroke: #cccccc; stroke-linecap: round"/>
     </g>
     <g id="text_9">
      <!-- 2025 -->
      <g style="fill: #262626" transform="translate(949.166786 461.616563) scale(0.16 -0.16)">
       <use xlink:href="#ArialMT-32"/>
       <use xlink:href="#ArialMT-30" x="55.615234"/>
       <use xlink:href="#ArialMT-32" x="111.230469"/>
       <use xlink:href="#ArialMT-35" x="166.845703"/>
      </g>
     </g>
    </g>
    <g id="xtick_10"/>
    <g id="xtick_11"/>
    <g id="xtick_12"/>
    <g id="xtick_13"/>
    <g id="xtick_14"/>
    <g id="xtick_15"/>
    <g id="xtick_16"/>
    <g id="xtick_17"/>
    <g id="xtick_18"/>
    <g id="text_10">
     <!-- Date -->
     <g style="fill: #262626" transform="translate(510.8 480.249063) scale(0.16 -0.16)">
      <defs>
       <path id="ArialMT-44" d="M 494 0 
L 494 4581 
L 2072 4581 
Q 2606 4581 2888 4516 
Q 3281 4425 3559 4188 
Q 3922 3881 4101 3404 
Q 4281 2928 4281 2316 
Q 4281 1794 4159 1391 
Q 4038 988 3847 723 
Q 3656 459 3429 307 
Q 3203 156 2883 78 
Q 2563 0 2147 0 
L 494 0 
z
M 1100 541 
L 2078 541 
Q 2531 541 2789 625 
Q 3047 709 3200 863 
Q 3416 1078 3536 1442 
Q 3656 1806 3656 2325 
Q 3656 3044 3420 3430 
Q 3184 3816 2847 3947 
Q 2603 4041 2063 4041 
L 1100 4041 
L 1100 541 
z
" transform="scale(0.015625)"/>
       <path id="ArialMT-61" d="M 2588 409 
Q 2275 144 1986 34 
Q 1697 -75 1366 -75 
Q 819 -75 525 192 
Q 231 459 231 875 
Q 231 1119 342 1320 
Q 453 1522 633 1644 
Q 813 1766 1038 1828 
Q 1203 1872 1538 1913 
Q 2219 1994 2541 2106 
Q 2544 2222 2544 2253 
Q 2544 2597 2384 2738 
Q 2169 2928 1744 2928 
Q 1347 2928 1158 2789 
Q 969 2650 878 2297 
L 328 2372 
Q 403 2725 575 2942 
Q 747 3159 1072 3276 
Q 1397 3394 1825 3394 
Q 2250 3394 2515 3294 
Q 2781 3194 2906 3042 
Q 3031 2891 3081 2659 
Q 3109 2516 3109 2141 
L 3109 1391 
Q 3109 606 3145 398 
Q 3181 191 3288 0 
L 2700 0 
Q 2613 175 2588 409 
z
M 2541 1666 
Q 2234 1541 1622 1453 
Q 1275 1403 1131 1340 
Q 988 1278 909 1158 
Q 831 1038 831 891 
Q 831 666 1001 516 
Q 1172 366 1500 366 
Q 1825 366 2078 508 
Q 2331 650 2450 897 
Q 2541 1088 2541 1459 
L 2541 1666 
z
" transform="scale(0.015625)"/>
       <path id="ArialMT-74" d="M 1650 503 
L 1731 6 
Q 1494 -44 1306 -44 
Q 1000 -44 831 53 
Q 663 150 594 308 
Q 525 466 525 972 
L 525 2881 
L 113 2881 
L 113 3319 
L 525 3319 
L 525 4141 
L 1084 4478 
L 1084 3319 
L 1650 3319 
L 1650 2881 
L 1084 2881 
L 1084 941 
Q 1084 700 1114 631 
Q 1144 563 1211 522 
Q 1278 481 1403 481 
Q 1497 481 1650 503 
z
" transform="scale(0.015625)"/>
       <path id="ArialMT-65" d="M 2694 1069 
L 3275 997 
Q 3138 488 2766 206 
Q 2394 -75 1816 -75 
Q 1088 -75 661 373 
Q 234 822 234 1631 
Q 234 2469 665 2931 
Q 1097 3394 1784 3394 
Q 2450 3394 2872 2941 
Q 3294 2488 3294 1666 
Q 3294 1616 3291 1516 
L 816 1516 
Q 847 969 1125 678 
Q 1403 388 1819 388 
Q 2128 388 2347 550 
Q 2566 713 2694 1069 
z
M 847 1978 
L 2700 1978 
Q 2663 2397 2488 2606 
Q 2219 2931 1791 2931 
Q 1403 2931 1139 2672 
Q 875 2413 847 1978 
z
" transform="scale(0.015625)"/>
      </defs>
      <use xlink:href="#ArialMT-44"/>
      <use xlink:href="#ArialMT-61" x="72.216797"/>
      <use xlink:href="#ArialMT-74" x="127.832031"/>
      <use xlink:href="#ArialMT-65" x="155.615234"/>
     </g>
    </g>
   </g>
   <g id="matplotlib.axis_2">
    <g id="ytick_1">
     <g id="line2d_10">
      <path d="M 66.47 408.081517 
L 988.925 408.081517 
" clip-path="url(#pc371282f1f)" style="fill: none; stroke: #cccccc; stroke-linecap: round"/>
     </g>
     <g id="text_11">
      <!-- 1.00 -->
      <g style="fill: #262626" transform="translate(25.8325 413.807767) scale(0.16 -0.16)">
       <defs>
        <path id="ArialMT-2e" d="M 581 0 
L 581 641 
L 1222 641 
L 1222 0 
L 581 0 
z
" transform="scale(0.015625)"/>
       </defs>
       <use xlink:href="#ArialMT-31"/>
       <use xlink:href="#ArialMT-2e" x="55.615234"/>
       <use xlink:href="#ArialMT-30" x="83.398438"/>
       <use xlink:href="#ArialMT-30" x="139.013672"/>
      </g>
     </g>
    </g>
    <g id="ytick_2">
     <g id="line2d_11">
      <path d="M 66.47 361.771824 
L 988.925 361.771824 
" clip-path="url(#pc371282f1f)" style="fill: none; stroke: #cccccc; stroke-linecap: round"/>
     </g>
     <g id="text_12">
      <!-- 1.25 -->
      <g style="fill: #262626" transform="translate(25.8325 367.498074) scale(0.16 -0.16)">
       <use xlink:href="#ArialMT-31"/>
       <use xlink:href="#ArialMT-2e" x="55.615234"/>
       <use xlink:href="#ArialMT-32" x="83.398438"/>
       <use xlink:href="#ArialMT-35" x="139.013672"/>
      </g>
     </g>
    </g>
    <g id="ytick_3">
     <g id="line2d_12">
      <path d="M 66.47 315.462131 
L 988.925 315.462131 
" clip-path="url(#pc371282f1f)" style="fill: none; stroke: #cccccc; stroke-linecap: round"/>
     </g>
     <g id="text_13">
      <!-- 1.50 -->
      <g style="fill: #262626" transform="translate(25.8325 321.188381) scale(0.16 -0.16)">
       <use xlink:href="#ArialMT-31"/>
       <use xlink:href="#ArialMT-2e" x="55.615234"/>
       <use xlink:href="#ArialMT-35" x="83.398438"/>
       <use xlink:href="#ArialMT-30" x="139.013672"/>
      </g>
     </g>
    </g>
    <g id="ytick_4">
     <g id="line2d_13">
      <path d="M 66.47 269.152438 
L 988.925 269.152438 
" clip-path="url(#pc371282f1f)" style="fill: none; stroke: #cccccc; stroke-linecap: round"/>
     </g>
     <g id="text_14">
      <!-- 1.75 -->
      <g style="fill: #262626" transform="translate(25.8325 274.878688) scale(0.16 -0.16)">
       <use xlink:href="#ArialMT-31"/>
       <use xlink:href="#ArialMT-2e" x="55.615234"/>
       <use xlink:href="#ArialMT-37" x="83.398438"/>
       <use xlink:href="#ArialMT-35" x="139.013672"/>
      </g>
     </g>
    </g>
    <g id="ytick_5">
     <g id="line2d_14">
      <path d="M 66.47 222.842745 
L 988.925 222.842745 
" clip-path="url(#pc371282f1f)" style="fill: none; stroke: #cccccc; stroke-linecap: round"/>
     </g>
     <g id="text_15">
      <!-- 2.00 -->
      <g style="fill: #262626" transform="translate(25.8325 228.568995) scale(0.16 -0.16)">
       <use xlink:href="#ArialMT-32"/>
       <use xlink:href="#ArialMT-2e" x="55.615234"/>
       <use xlink:href="#ArialMT-30" x="83.398438"/>
       <use xlink:href="#ArialMT-30" x="139.013672"/>
      </g>
     </g>
    </g>
    <g id="ytick_6">
     <g id="line2d_15">
      <path d="M 66.47 176.533052 
L 988.925 176.533052 
" clip-path="url(#pc371282f1f)" style="fill: none; stroke: #cccccc; stroke-linecap: round"/>
     </g>
     <g id="text_16">
      <!-- 2.25 -->
      <g style="fill: #262626" transform="translate(25.8325 182.259302) scale(0.16 -0.16)">
       <use xlink:href="#ArialMT-32"/>
       <use xlink:href="#ArialMT-2e" x="55.615234"/>
       <use xlink:href="#ArialMT-32" x="83.398438"/>
       <use xlink:href="#ArialMT-35" x="139.013672"/>
      </g>
     </g>
    </g>
    <g id="ytick_7">
     <g id="line2d_16">
      <path d="M 66.47 130.223359 
L 988.925 130.223359 
" clip-path="url(#pc371282f1f)" style="fill: none; stroke: #cccccc; stroke-linecap: round"/>
     </g>
     <g id="text_17">
      <!-- 2.50 -->
      <g style="fill: #262626" transform="translate(25.8325 135.949609) scale(0.16 -0.16)">
       <use xlink:href="#ArialMT-32"/>
       <use xlink:href="#ArialMT-2e" x="55.615234"/>
       <use xlink:href="#ArialMT-35" x="83.398438"/>
       <use xlink:href="#ArialMT-30" x="139.013672"/>
      </g>
     </g>
    </g>
    <g id="ytick_8">
     <g id="line2d_17">
      <path d="M 66.47 83.913665 
L 988.925 83.913665 
" clip-path="url(#pc371282f1f)" style="fill: none; stroke: #cccccc; stroke-linecap: round"/>
     </g>
     <g id="text_18">
      <!-- 2.75 -->
      <g style="fill: #262626" transform="translate(25.8325 89.639915) scale(0.16 -0.16)">
       <use xlink:href="#ArialMT-32"/>
       <use xlink:href="#ArialMT-2e" x="55.615234"/>
       <use xlink:href="#ArialMT-37" x="83.398438"/>
       <use xlink:href="#ArialMT-35" x="139.013672"/>
      </g>
     </g>
    </g>
    <g id="ytick_9">
     <g id="line2d_18">
      <path d="M 66.47 37.603972 
L 988.925 37.603972 
" clip-path="url(#pc371282f1f)" style="fill: none; stroke: #cccccc; stroke-linecap: round"/>
     </g>
     <g id="text_19">
      <!-- 3.00 -->
      <g style="fill: #262626" transform="translate(25.8325 43.330222) scale(0.16 -0.16)">
       <use xlink:href="#ArialMT-33"/>
       <use xlink:href="#ArialMT-2e" x="55.615234"/>
       <use xlink:href="#ArialMT-30" x="83.398438"/>
       <use xlink:href="#ArialMT-30" x="139.013672"/>
      </g>
     </g>
    </g>
    <g id="text_20">
     <!-- Cumulative Returns -->
     <g style="fill: #262626" transform="translate(18.6525 303.620313) rotate(-90) scale(0.16 -0.16)">
      <defs>
       <path id="ArialMT-43" d="M 3763 1606 
L 4369 1453 
Q 4178 706 3683 314 
Q 3188 -78 2472 -78 
Q 1731 -78 1267 223 
Q 803 525 561 1097 
Q 319 1669 319 2325 
Q 319 3041 592 3573 
Q 866 4106 1370 4382 
Q 1875 4659 2481 4659 
Q 3169 4659 3637 4309 
Q 4106 3959 4291 3325 
L 3694 3184 
Q 3534 3684 3231 3912 
Q 2928 4141 2469 4141 
Q 1941 4141 1586 3887 
Q 1231 3634 1087 3207 
Q 944 2781 944 2328 
Q 944 1744 1114 1308 
Q 1284 872 1643 656 
Q 2003 441 2422 441 
Q 2931 441 3284 734 
Q 3638 1028 3763 1606 
z
" transform="scale(0.015625)"/>
       <path id="ArialMT-75" d="M 2597 0 
L 2597 488 
Q 2209 -75 1544 -75 
Q 1250 -75 995 37 
Q 741 150 617 320 
Q 494 491 444 738 
Q 409 903 409 1263 
L 409 3319 
L 972 3319 
L 972 1478 
Q 972 1038 1006 884 
Q 1059 663 1231 536 
Q 1403 409 1656 409 
Q 1909 409 2131 539 
Q 2353 669 2445 892 
Q 2538 1116 2538 1541 
L 2538 3319 
L 3100 3319 
L 3100 0 
L 2597 0 
z
" transform="scale(0.015625)"/>
       <path id="ArialMT-6d" d="M 422 0 
L 422 3319 
L 925 3319 
L 925 2853 
Q 1081 3097 1340 3245 
Q 1600 3394 1931 3394 
Q 2300 3394 2536 3241 
Q 2772 3088 2869 2813 
Q 3263 3394 3894 3394 
Q 4388 3394 4653 3120 
Q 4919 2847 4919 2278 
L 4919 0 
L 4359 0 
L 4359 2091 
Q 4359 2428 4304 2576 
Q 4250 2725 4106 2815 
Q 3963 2906 3769 2906 
Q 3419 2906 3187 2673 
Q 2956 2441 2956 1928 
L 2956 0 
L 2394 0 
L 2394 2156 
Q 2394 2531 2256 2718 
Q 2119 2906 1806 2906 
Q 1569 2906 1367 2781 
Q 1166 2656 1075 2415 
Q 984 2175 984 1722 
L 984 0 
L 422 0 
z
" transform="scale(0.015625)"/>
       <path id="ArialMT-6c" d="M 409 0 
L 409 4581 
L 972 4581 
L 972 0 
L 409 0 
z
" transform="scale(0.015625)"/>
       <path id="ArialMT-69" d="M 425 3934 
L 425 4581 
L 988 4581 
L 988 3934 
L 425 3934 
z
M 425 0 
L 425 3319 
L 988 3319 
L 988 0 
L 425 0 
z
" transform="scale(0.015625)"/>
       <path id="ArialMT-76" d="M 1344 0 
L 81 3319 
L 675 3319 
L 1388 1331 
Q 1503 1009 1600 663 
Q 1675 925 1809 1294 
L 2547 3319 
L 3125 3319 
L 1869 0 
L 1344 0 
z
" transform="scale(0.015625)"/>
       <path id="ArialMT-20" transform="scale(0.015625)"/>
       <path id="ArialMT-52" d="M 503 0 
L 503 4581 
L 2534 4581 
Q 3147 4581 3465 4457 
Q 3784 4334 3975 4021 
Q 4166 3709 4166 3331 
Q 4166 2844 3850 2509 
Q 3534 2175 2875 2084 
Q 3116 1969 3241 1856 
Q 3506 1613 3744 1247 
L 4541 0 
L 3778 0 
L 3172 953 
Q 2906 1366 2734 1584 
Q 2563 1803 2427 1890 
Q 2291 1978 2150 2013 
Q 2047 2034 1813 2034 
L 1109 2034 
L 1109 0 
L 503 0 
z
M 1109 2559 
L 2413 2559 
Q 2828 2559 3062 2645 
Q 3297 2731 3419 2920 
Q 3541 3109 3541 3331 
Q 3541 3656 3305 3865 
Q 3069 4075 2559 4075 
L 1109 4075 
L 1109 2559 
z
" transform="scale(0.015625)"/>
       <path id="ArialMT-72" d="M 416 0 
L 416 3319 
L 922 3319 
L 922 2816 
Q 1116 3169 1280 3281 
Q 1444 3394 1641 3394 
Q 1925 3394 2219 3213 
L 2025 2691 
Q 1819 2813 1613 2813 
Q 1428 2813 1281 2702 
Q 1134 2591 1072 2394 
Q 978 2094 978 1738 
L 978 0 
L 416 0 
z
" transform="scale(0.015625)"/>
       <path id="ArialMT-6e" d="M 422 0 
L 422 3319 
L 928 3319 
L 928 2847 
Q 1294 3394 1984 3394 
Q 2284 3394 2536 3286 
Q 2788 3178 2913 3003 
Q 3038 2828 3088 2588 
Q 3119 2431 3119 2041 
L 3119 0 
L 2556 0 
L 2556 2019 
Q 2556 2363 2490 2533 
Q 2425 2703 2258 2804 
Q 2091 2906 1866 2906 
Q 1506 2906 1245 2678 
Q 984 2450 984 1813 
L 984 0 
L 422 0 
z
" transform="scale(0.015625)"/>
       <path id="ArialMT-73" d="M 197 991 
L 753 1078 
Q 800 744 1014 566 
Q 1228 388 1613 388 
Q 2000 388 2187 545 
Q 2375 703 2375 916 
Q 2375 1106 2209 1216 
Q 2094 1291 1634 1406 
Q 1016 1563 777 1677 
Q 538 1791 414 1992 
Q 291 2194 291 2438 
Q 291 2659 392 2848 
Q 494 3038 669 3163 
Q 800 3259 1026 3326 
Q 1253 3394 1513 3394 
Q 1903 3394 2198 3281 
Q 2494 3169 2634 2976 
Q 2775 2784 2828 2463 
L 2278 2388 
Q 2241 2644 2061 2787 
Q 1881 2931 1553 2931 
Q 1166 2931 1000 2803 
Q 834 2675 834 2503 
Q 834 2394 903 2306 
Q 972 2216 1119 2156 
Q 1203 2125 1616 2013 
Q 2213 1853 2448 1751 
Q 2684 1650 2818 1456 
Q 2953 1263 2953 975 
Q 2953 694 2789 445 
Q 2625 197 2315 61 
Q 2006 -75 1616 -75 
Q 969 -75 630 194 
Q 291 463 197 991 
z
" transform="scale(0.015625)"/>
      </defs>
      <use xlink:href="#ArialMT-43"/>
      <use xlink:href="#ArialMT-75" x="72.216797"/>
      <use xlink:href="#ArialMT-6d" x="127.832031"/>
      <use xlink:href="#ArialMT-75" x="211.132812"/>
      <use xlink:href="#ArialMT-6c" x="266.748047"/>
      <use xlink:href="#ArialMT-61" x="288.964844"/>
      <use xlink:href="#ArialMT-74" x="344.580078"/>
      <use xlink:href="#ArialMT-69" x="372.363281"/>
      <use xlink:href="#ArialMT-76" x="394.580078"/>
      <use xlink:href="#ArialMT-65" x="444.580078"/>
      <use xlink:href="#ArialMT-20" x="500.195312"/>
      <use xlink:href="#ArialMT-52" x="527.978516"/>
      <use xlink:href="#ArialMT-65" x="600.195312"/>
      <use xlink:href="#ArialMT-74" x="655.810547"/>
      <use xlink:href="#ArialMT-75" x="683.59375"/>
      <use xlink:href="#ArialMT-72" x="739.208984"/>
      <use xlink:href="#ArialMT-6e" x="772.509766"/>
      <use xlink:href="#ArialMT-73" x="828.125"/>
     </g>
    </g>
   </g>
   <g id="PolyCollection_1">
    <path d="M 75.255286 403.76952 
L 75.255286 403.880784 
L 79.647929 404.851599 
L 79.647929 403.76952 
L 79.647929 403.76952 
L 75.255286 403.76952 
z
" clip-path="url(#pc371282f1f)" style="fill: #ff0000; fill-opacity: 0.3; stroke: #ff0000; stroke-opacity: 0.3"/>
    <path d="M 92.825857 403.313768 
L 92.825857 405.021472 
L 97.2185 404.700655 
L 101.611143 405.696309 
L 106.003786 411.201479 
L 110.396429 421.819517 
L 114.789071 417.641618 
L 119.181714 406.698928 
L 123.574357 408.1753 
L 127.967 410.650313 
L 132.359643 406.941153 
L 136.752286 403.416391 
L 136.752286 403.313768 
L 136.752286 403.313768 
L 132.359643 403.313768 
L 127.967 403.313768 
L 123.574357 403.313768 
L 119.181714 403.313768 
L 114.789071 403.313768 
L 110.396429 403.313768 
L 106.003786 403.313768 
L 101.611143 403.313768 
L 97.2185 403.313768 
L 92.825857 403.313768 
z
" clip-path="url(#pc371282f1f)" style="fill: #ff0000; fill-opacity: 0.3; stroke: #ff0000; stroke-opacity: 0.3"/>
    <path d="M 145.537571 398.064844 
L 145.537571 398.407813 
L 145.537571 398.064844 
L 145.537571 398.064844 
z
" clip-path="url(#pc371282f1f)" style="fill: #ff0000; fill-opacity: 0.3; stroke: #ff0000; stroke-opacity: 0.3"/>
    <path d="M 171.893429 376.634539 
L 171.893429 380.326433 
L 176.286071 380.908954 
L 180.678714 377.919778 
L 180.678714 376.634539 
L 180.678714 376.634539 
L 176.286071 376.634539 
L 171.893429 376.634539 
z
" clip-path="url(#pc371282f1f)" style="fill: #ff0000; fill-opacity: 0.3; stroke: #ff0000; stroke-opacity: 0.3"/>
    <path d="M 220.2125 354.998638 
L 220.2125 355.54266 
L 220.2125 354.998638 
L 220.2125 354.998638 
z
" clip-path="url(#pc371282f1f)" style="fill: #ff0000; fill-opacity: 0.3; stroke: #ff0000; stroke-opacity: 0.3"/>
    <path d="M 228.997786 354.005715 
L 228.997786 355.871917 
L 228.997786 354.005715 
L 228.997786 354.005715 
z
" clip-path="url(#pc371282f1f)" style="fill: #ff0000; fill-opacity: 0.3; stroke: #ff0000; stroke-opacity: 0.3"/>
    <path d="M 250.961 343.413405 
L 250.961 345.977758 
L 250.961 343.413405 
L 250.961 343.413405 
z
" clip-path="url(#pc371282f1f)" style="fill: #ff0000; fill-opacity: 0.3; stroke: #ff0000; stroke-opacity: 0.3"/>
    <path d="M 264.138929 332.925195 
L 264.138929 338.385955 
L 264.138929 332.925195 
L 264.138929 332.925195 
z
" clip-path="url(#pc371282f1f)" style="fill: #ff0000; fill-opacity: 0.3; stroke: #ff0000; stroke-opacity: 0.3"/>
    <path d="M 272.924214 331.499563 
L 272.924214 332.482831 
L 277.316857 335.140136 
L 277.316857 331.499563 
L 277.316857 331.499563 
L 272.924214 331.499563 
z
" clip-path="url(#pc371282f1f)" style="fill: #ff0000; fill-opacity: 0.3; stroke: #ff0000; stroke-opacity: 0.3"/>
    <path d="M 290.494786 326.215301 
L 290.494786 326.221365 
L 290.494786 326.215301 
L 290.494786 326.215301 
z
" clip-path="url(#pc371282f1f)" style="fill: #ff0000; fill-opacity: 0.3; stroke: #ff0000; stroke-opacity: 0.3"/>
    <path d="M 299.280071 324.770142 
L 299.280071 326.77661 
L 303.672714 324.952121 
L 303.672714 324.770142 
L 303.672714 324.770142 
L 299.280071 324.770142 
z
" clip-path="url(#pc371282f1f)" style="fill: #ff0000; fill-opacity: 0.3; stroke: #ff0000; stroke-opacity: 0.3"/>
    <path d="M 321.243286 316.019957 
L 321.243286 318.836519 
L 325.635929 317.967493 
L 330.028571 319.40734 
L 334.421214 320.063102 
L 338.813857 320.201228 
L 343.2065 318.753508 
L 347.599143 318.061004 
L 351.991786 322.940166 
L 356.384429 330.332819 
L 360.777071 325.319952 
L 365.169714 325.64882 
L 369.562357 322.867468 
L 373.955 319.144662 
L 378.347643 319.652956 
L 382.740286 320.552774 
L 387.132929 317.356763 
L 387.132929 316.019957 
L 387.132929 316.019957 
L 382.740286 316.019957 
L 378.347643 316.019957 
L 373.955 316.019957 
L 369.562357 316.019957 
L 365.169714 316.019957 
L 360.777071 316.019957 
L 356.384429 316.019957 
L 351.991786 316.019957 
L 347.599143 316.019957 
L 343.2065 316.019957 
L 338.813857 316.019957 
L 334.421214 316.019957 
L 330.028571 316.019957 
L 325.635929 316.019957 
L 321.243286 316.019957 
z
" clip-path="url(#pc371282f1f)" style="fill: #ff0000; fill-opacity: 0.3; stroke: #ff0000; stroke-opacity: 0.3"/>
    <path d="M 395.918214 312.416919 
L 395.918214 314.914375 
L 400.310857 313.236819 
L 400.310857 312.416919 
L 400.310857 312.416919 
L 395.918214 312.416919 
z
" clip-path="url(#pc371282f1f)" style="fill: #ff0000; fill-opacity: 0.3; stroke: #ff0000; stroke-opacity: 0.3"/>
    <path d="M 413.488786 306.55179 
L 413.488786 307.641581 
L 413.488786 306.55179 
L 413.488786 306.55179 
z
" clip-path="url(#pc371282f1f)" style="fill: #ff0000; fill-opacity: 0.3; stroke: #ff0000; stroke-opacity: 0.3"/>
    <path d="M 422.274071 302.898375 
L 422.274071 306.527811 
L 426.666714 304.106394 
L 426.666714 302.898375 
L 426.666714 302.898375 
L 422.274071 302.898375 
z
" clip-path="url(#pc371282f1f)" style="fill: #ff0000; fill-opacity: 0.3; stroke: #ff0000; stroke-opacity: 0.3"/>
    <path d="M 435.452 300.661911 
L 435.452 301.046559 
L 435.452 300.661911 
L 435.452 300.661911 
z
" clip-path="url(#pc371282f1f)" style="fill: #ff0000; fill-opacity: 0.3; stroke: #ff0000; stroke-opacity: 0.3"/>
    <path d="M 444.237286 294.746759 
L 444.237286 294.991609 
L 448.629929 296.324867 
L 453.022571 296.029894 
L 457.415214 295.515624 
L 461.807857 299.705926 
L 466.2005 297.917542 
L 470.593143 301.06722 
L 474.985786 301.27597 
L 474.985786 294.746759 
L 474.985786 294.746759 
L 470.593143 294.746759 
L 466.2005 294.746759 
L 461.807857 294.746759 
L 457.415214 294.746759 
L 453.022571 294.746759 
L 448.629929 294.746759 
L 444.237286 294.746759 
z
" clip-path="url(#pc371282f1f)" style="fill: #ff0000; fill-opacity: 0.3; stroke: #ff0000; stroke-opacity: 0.3"/>
    <path d="M 483.771071 294.330088 
L 483.771071 297.544128 
L 488.163714 298.920014 
L 492.556357 297.704014 
L 492.556357 294.330088 
L 492.556357 294.330088 
L 488.163714 294.330088 
L 483.771071 294.330088 
z
" clip-path="url(#pc371282f1f)" style="fill: #ff0000; fill-opacity: 0.3; stroke: #ff0000; stroke-opacity: 0.3"/>
    <path d="M 510.126929 286.452767 
L 510.126929 286.713159 
L 510.126929 286.452767 
L 510.126929 286.452767 
z
" clip-path="url(#pc371282f1f)" style="fill: #ff0000; fill-opacity: 0.3; stroke: #ff0000; stroke-opacity: 0.3"/>
    <path d="M 523.304857 274.896761 
L 523.304857 276.199734 
L 523.304857 274.896761 
L 523.304857 274.896761 
z
" clip-path="url(#pc371282f1f)" style="fill: #ff0000; fill-opacity: 0.3; stroke: #ff0000; stroke-opacity: 0.3"/>
    <path d="M 532.090143 274.833467 
L 532.090143 278.546041 
L 536.482786 287.524374 
L 540.875429 287.210059 
L 545.268071 282.017154 
L 549.660714 277.176484 
L 554.053357 276.482075 
L 554.053357 274.833467 
L 554.053357 274.833467 
L 549.660714 274.833467 
L 545.268071 274.833467 
L 540.875429 274.833467 
L 536.482786 274.833467 
L 532.090143 274.833467 
z
" clip-path="url(#pc371282f1f)" style="fill: #ff0000; fill-opacity: 0.3; stroke: #ff0000; stroke-opacity: 0.3"/>
    <path d="M 567.231286 268.872317 
L 567.231286 271.015669 
L 567.231286 268.872317 
L 567.231286 268.872317 
z
" clip-path="url(#pc371282f1f)" style="fill: #ff0000; fill-opacity: 0.3; stroke: #ff0000; stroke-opacity: 0.3"/>
    <path d="M 580.409214 262.143583 
L 580.409214 265.130283 
L 584.801857 262.905788 
L 584.801857 262.143583 
L 584.801857 262.143583 
L 580.409214 262.143583 
z
" clip-path="url(#pc371282f1f)" style="fill: #ff0000; fill-opacity: 0.3; stroke: #ff0000; stroke-opacity: 0.3"/>
    <path d="M 602.372429 256.473464 
L 602.372429 260.498859 
L 606.765071 260.598315 
L 611.157714 263.036651 
L 615.550357 259.291349 
L 619.943 260.216048 
L 624.335643 259.977885 
L 628.728286 256.874729 
L 633.120929 258.809739 
L 637.513571 263.666792 
L 641.906214 261.842539 
L 646.298857 259.115837 
L 646.298857 256.473464 
L 646.298857 256.473464 
L 641.906214 256.473464 
L 637.513571 256.473464 
L 633.120929 256.473464 
L 628.728286 256.473464 
L 624.335643 256.473464 
L 619.943 256.473464 
L 615.550357 256.473464 
L 611.157714 256.473464 
L 606.765071 256.473464 
L 602.372429 256.473464 
z
" clip-path="url(#pc371282f1f)" style="fill: #ff0000; fill-opacity: 0.3; stroke: #ff0000; stroke-opacity: 0.3"/>
    <path d="M 685.832643 215.817151 
L 685.832643 219.349788 
L 685.832643 215.817151 
L 685.832643 215.817151 
z
" clip-path="url(#pc371282f1f)" style="fill: #ff0000; fill-opacity: 0.3; stroke: #ff0000; stroke-opacity: 0.3"/>
    <path d="M 694.617929 214.409771 
L 694.617929 214.545774 
L 694.617929 214.409771 
L 694.617929 214.409771 
z
" clip-path="url(#pc371282f1f)" style="fill: #ff0000; fill-opacity: 0.3; stroke: #ff0000; stroke-opacity: 0.3"/>
    <path d="M 712.1885 199.586046 
L 712.1885 205.117349 
L 712.1885 199.586046 
L 712.1885 199.586046 
z
" clip-path="url(#pc371282f1f)" style="fill: #ff0000; fill-opacity: 0.3; stroke: #ff0000; stroke-opacity: 0.3"/>
    <path d="M 738.544357 151.777877 
L 738.544357 158.843671 
L 742.937 162.537446 
L 747.329643 157.721734 
L 747.329643 151.777877 
L 747.329643 151.777877 
L 742.937 151.777877 
L 738.544357 151.777877 
z
" clip-path="url(#pc371282f1f)" style="fill: #ff0000; fill-opacity: 0.3; stroke: #ff0000; stroke-opacity: 0.3"/>
    <path d="M 756.114929 149.12656 
L 756.114929 153.942674 
L 760.507571 163.655923 
L 764.900214 167.068214 
L 769.292857 158.947369 
L 773.6855 153.040055 
L 778.078143 152.472014 
L 778.078143 149.12656 
L 778.078143 149.12656 
L 773.6855 149.12656 
L 769.292857 149.12656 
L 764.900214 149.12656 
L 760.507571 149.12656 
L 756.114929 149.12656 
z
" clip-path="url(#pc371282f1f)" style="fill: #ff0000; fill-opacity: 0.3; stroke: #ff0000; stroke-opacity: 0.3"/>
    <path d="M 791.256071 143.844456 
L 791.256071 152.456484 
L 795.648714 147.025537 
L 800.041357 145.554312 
L 800.041357 143.844456 
L 800.041357 143.844456 
L 795.648714 143.844456 
L 791.256071 143.844456 
z
" clip-path="url(#pc371282f1f)" style="fill: #ff0000; fill-opacity: 0.3; stroke: #ff0000; stroke-opacity: 0.3"/>
    <path d="M 808.826643 143.531241 
L 808.826643 156.312797 
L 813.219286 157.752147 
L 817.611929 162.51952 
L 822.004571 183.438858 
L 826.397214 185.005204 
L 830.789857 195.670367 
L 835.1825 184.129124 
L 839.575143 197.688393 
L 843.967786 216.498585 
L 848.360429 218.949477 
L 852.753071 199.691438 
L 857.145714 204.382118 
L 861.538357 184.971124 
L 865.931 197.16637 
L 870.323643 177.547345 
L 874.716286 174.9124 
L 879.108929 173.807363 
L 883.501571 172.737214 
L 887.894214 167.854773 
L 892.286857 171.809503 
L 896.6795 186.728254 
L 901.072143 184.173141 
L 905.464786 163.242774 
L 909.857429 148.675321 
L 914.250071 149.37724 
L 918.642714 148.213023 
L 918.642714 143.531241 
L 918.642714 143.531241 
L 914.250071 143.531241 
L 909.857429 143.531241 
L 905.464786 143.531241 
L 901.072143 143.531241 
L 896.6795 143.531241 
L 892.286857 143.531241 
L 887.894214 143.531241 
L 883.501571 143.531241 
L 879.108929 143.531241 
L 874.716286 143.531241 
L 870.323643 143.531241 
L 865.931 143.531241 
L 861.538357 143.531241 
L 857.145714 143.531241 
L 852.753071 143.531241 
L 848.360429 143.531241 
L 843.967786 143.531241 
L 839.575143 143.531241 
L 835.1825 143.531241 
L 830.789857 143.531241 
L 826.397214 143.531241 
L 822.004571 143.531241 
L 817.611929 143.531241 
L 813.219286 143.531241 
L 808.826643 143.531241 
z
" clip-path="url(#pc371282f1f)" style="fill: #ff0000; fill-opacity: 0.3; stroke: #ff0000; stroke-opacity: 0.3"/>
    <path d="M 927.428 133.899109 
L 927.428 139.82003 
L 927.428 133.899109 
L 927.428 133.899109 
z
" clip-path="url(#pc371282f1f)" style="fill: #ff0000; fill-opacity: 0.3; stroke: #ff0000; stroke-opacity: 0.3"/>
    <path d="M 953.783857 88.116831 
L 953.783857 88.870413 
L 953.783857 88.116831 
L 953.783857 88.116831 
z
" clip-path="url(#pc371282f1f)" style="fill: #ff0000; fill-opacity: 0.3; stroke: #ff0000; stroke-opacity: 0.3"/>
    <path d="M 962.569143 85.865448 
L 962.569143 92.034575 
L 962.569143 85.865448 
L 962.569143 85.865448 
z
" clip-path="url(#pc371282f1f)" style="fill: #ff0000; fill-opacity: 0.3; stroke: #ff0000; stroke-opacity: 0.3"/>
   </g>
   <g id="line2d_19">
    <path d="M 66.47 406.356644 
L 70.862643 403.76952 
L 75.255286 403.880784 
L 79.647929 404.851599 
L 84.040571 403.346885 
L 88.433214 403.313768 
L 92.825857 405.021472 
L 97.2185 404.700655 
L 101.611143 405.696309 
L 106.003786 411.201479 
L 110.396429 421.819517 
L 114.789071 417.641618 
L 119.181714 406.698928 
L 123.574357 408.1753 
L 127.967 410.650313 
L 132.359643 406.941153 
L 136.752286 403.416391 
L 141.144929 398.064844 
L 145.537571 398.407813 
L 149.930214 393.384706 
L 154.322857 391.277689 
L 158.7155 385.848159 
L 163.108143 385.147036 
L 167.500786 376.634539 
L 171.893429 380.326433 
L 176.286071 380.908954 
L 180.678714 377.919778 
L 185.071357 375.537487 
L 189.464 371.173108 
L 193.856643 370.90116 
L 198.249286 369.324082 
L 202.641929 367.556069 
L 207.034571 365.097559 
L 211.427214 358.842424 
L 215.819857 354.998638 
L 220.2125 355.54266 
L 224.605143 354.005715 
L 228.997786 355.871917 
L 233.390429 351.815151 
L 237.783071 351.667595 
L 242.175714 344.254037 
L 246.568357 343.413405 
L 250.961 345.977758 
L 255.353643 338.9281 
L 259.746286 332.925195 
L 264.138929 338.385955 
L 268.531571 331.499563 
L 272.924214 332.482831 
L 277.316857 335.140136 
L 281.7095 327.314394 
L 286.102143 326.215301 
L 290.494786 326.221365 
L 294.887429 324.770142 
L 299.280071 326.77661 
L 303.672714 324.952121 
L 312.458 318.311955 
L 316.850643 316.019957 
L 321.243286 318.836519 
L 325.635929 317.967493 
L 330.028571 319.40734 
L 334.421214 320.063102 
L 338.813857 320.201228 
L 343.2065 318.753508 
L 347.599143 318.061004 
L 351.991786 322.940166 
L 356.384429 330.332819 
L 360.777071 325.319952 
L 365.169714 325.64882 
L 369.562357 322.867468 
L 373.955 319.144662 
L 378.347643 319.652956 
L 382.740286 320.552774 
L 387.132929 317.356763 
L 391.525571 312.416919 
L 395.918214 314.914375 
L 400.310857 313.236819 
L 404.7035 309.748418 
L 409.096143 306.55179 
L 413.488786 307.641581 
L 417.881429 302.898375 
L 422.274071 306.527811 
L 426.666714 304.106394 
L 431.059357 300.661911 
L 435.452 301.046559 
L 439.844643 294.746759 
L 444.237286 294.991609 
L 448.629929 296.324867 
L 453.022571 296.029894 
L 457.415214 295.515624 
L 461.807857 299.705926 
L 466.2005 297.917542 
L 470.593143 301.06722 
L 474.985786 301.27597 
L 479.378429 294.330088 
L 483.771071 297.544128 
L 488.163714 298.920014 
L 492.556357 297.704014 
L 496.949 292.332495 
L 501.341643 287.420253 
L 505.734286 286.452767 
L 510.126929 286.713159 
L 514.519571 280.106461 
L 518.912214 274.896761 
L 523.304857 276.199734 
L 527.6975 274.833467 
L 532.090143 278.546041 
L 536.482786 287.524374 
L 540.875429 287.210059 
L 545.268071 282.017154 
L 549.660714 277.176484 
L 554.053357 276.482075 
L 558.446 272.356403 
L 562.838643 268.872317 
L 567.231286 271.015669 
L 571.623929 267.218327 
L 576.016571 262.143583 
L 580.409214 265.130283 
L 584.801857 262.905788 
L 589.1945 262.111085 
L 593.587143 259.745964 
L 597.979786 256.473464 
L 602.372429 260.498859 
L 606.765071 260.598315 
L 611.157714 263.036651 
L 615.550357 259.291349 
L 619.943 260.216048 
L 624.335643 259.977885 
L 628.728286 256.874729 
L 633.120929 258.809739 
L 637.513571 263.666792 
L 641.906214 261.842539 
L 646.298857 259.115837 
L 650.6915 251.062029 
L 655.084143 250.159927 
L 659.476786 244.176884 
L 663.869429 242.13571 
L 668.262071 240.955463 
L 672.654714 228.908532 
L 677.047357 227.270701 
L 681.44 215.817151 
L 685.832643 219.349788 
L 690.225286 214.409771 
L 694.617929 214.545774 
L 699.010571 209.929544 
L 703.403214 199.763334 
L 707.795857 199.586046 
L 712.1885 205.117349 
L 716.581143 186.970194 
L 725.366429 172.179383 
L 729.759071 155.11188 
L 734.151714 151.777877 
L 738.544357 158.843671 
L 742.937 162.537446 
L 747.329643 157.721734 
L 751.722286 149.12656 
L 756.114929 153.942674 
L 760.507571 163.655923 
L 764.900214 167.068214 
L 769.292857 158.947369 
L 773.6855 153.040055 
L 778.078143 152.472014 
L 782.470786 145.532776 
L 786.863429 143.844456 
L 791.256071 152.456484 
L 795.648714 147.025537 
L 800.041357 145.554312 
L 804.434 143.531241 
L 808.826643 156.312797 
L 813.219286 157.752147 
L 817.611929 162.51952 
L 822.004571 183.438858 
L 826.397214 185.005204 
L 830.789857 195.670367 
L 835.1825 184.129124 
L 839.575143 197.688393 
L 843.967786 216.498585 
L 848.360429 218.949477 
L 852.753071 199.691438 
L 857.145714 204.382118 
L 861.538357 184.971124 
L 865.931 197.16637 
L 870.323643 177.547345 
L 874.716286 174.9124 
L 883.501571 172.737214 
L 887.894214 167.854773 
L 892.286857 171.809503 
L 896.6795 186.728254 
L 901.072143 184.173141 
L 905.464786 163.242774 
L 909.857429 148.675321 
L 914.250071 149.37724 
L 918.642714 148.213023 
L 923.035357 133.899109 
L 927.428 139.82003 
L 931.820643 128.704698 
L 936.213286 121.423979 
L 940.605929 109.104753 
L 944.998571 101.404407 
L 949.391214 88.116831 
L 953.783857 88.870413 
L 958.1765 85.865448 
L 962.569143 92.034575 
L 966.961786 78.423329 
L 971.354429 72.335263 
L 975.747071 65.090657 
L 980.139714 54.304718 
L 984.532357 46.436773 
L 988.925 44.928608 
L 988.925 44.928608 
" clip-path="url(#pc371282f1f)" style="fill: none; stroke: #0000ff; stroke-width: 2; stroke-linecap: round"/>
   </g>
   <g id="patch_3">
    <path d="M 66.47 440.664063 
L 66.47 26.084062 
" style="fill: none; stroke: #cccccc; stroke-width: 1.25; stroke-linejoin: miter; stroke-linecap: square"/>
   </g>
   <g id="patch_4">
    <path d="M 988.925 440.664063 
L 988.925 26.084062 
" style="fill: none; stroke: #cccccc; stroke-width: 1.25; stroke-linejoin: miter; stroke-linecap: square"/>
   </g>
   <g id="patch_5">
    <path d="M 66.47 440.664062 
L 988.925 440.664062 
" style="fill: none; stroke: #cccccc; stroke-width: 1.25; stroke-linejoin: miter; stroke-linecap: square"/>
   </g>
   <g id="patch_6">
    <path d="M 66.47 26.084062 
L 988.925 26.084062 
" style="fill: none; stroke: #cccccc; stroke-width: 1.25; stroke-linejoin: miter; stroke-linecap: square"/>
   </g>
   <g id="text_21">
    <!-- Cumulative Returns and Drawdown -->
    <g style="fill: #262626" transform="translate(386.140156 20.084062) scale(0.18 -0.18)">
     <defs>
      <path id="ArialMT-64" d="M 2575 0 
L 2575 419 
Q 2259 -75 1647 -75 
Q 1250 -75 917 144 
Q 584 363 401 755 
Q 219 1147 219 1656 
Q 219 2153 384 2558 
Q 550 2963 881 3178 
Q 1213 3394 1622 3394 
Q 1922 3394 2156 3267 
Q 2391 3141 2538 2938 
L 2538 4581 
L 3097 4581 
L 3097 0 
L 2575 0 
z
M 797 1656 
Q 797 1019 1065 703 
Q 1334 388 1700 388 
Q 2069 388 2326 689 
Q 2584 991 2584 1609 
Q 2584 2291 2321 2609 
Q 2059 2928 1675 2928 
Q 1300 2928 1048 2622 
Q 797 2316 797 1656 
z
" transform="scale(0.015625)"/>
      <path id="ArialMT-77" d="M 1034 0 
L 19 3319 
L 600 3319 
L 1128 1403 
L 1325 691 
Q 1338 744 1497 1375 
L 2025 3319 
L 2603 3319 
L 3100 1394 
L 3266 759 
L 3456 1400 
L 4025 3319 
L 4572 3319 
L 3534 0 
L 2950 0 
L 2422 1988 
L 2294 2553 
L 1622 0 
L 1034 0 
z
" transform="scale(0.015625)"/>
      <path id="ArialMT-6f" d="M 213 1659 
Q 213 2581 725 3025 
Q 1153 3394 1769 3394 
Q 2453 3394 2887 2945 
Q 3322 2497 3322 1706 
Q 3322 1066 3130 698 
Q 2938 331 2570 128 
Q 2203 -75 1769 -75 
Q 1072 -75 642 372 
Q 213 819 213 1659 
z
M 791 1659 
Q 791 1022 1069 705 
Q 1347 388 1769 388 
Q 2188 388 2466 706 
Q 2744 1025 2744 1678 
Q 2744 2294 2464 2611 
Q 2184 2928 1769 2928 
Q 1347 2928 1069 2612 
Q 791 2297 791 1659 
z
" transform="scale(0.015625)"/>
     </defs>
     <use xlink:href="#ArialMT-43"/>
     <use xlink:href="#ArialMT-75" x="72.216797"/>
     <use xlink:href="#ArialMT-6d" x="127.832031"/>
     <use xlink:href="#ArialMT-75" x="211.132812"/>
     <use xlink:href="#ArialMT-6c" x="266.748047"/>
     <use xlink:href="#ArialMT-61" x="288.964844"/>
     <use xlink:href="#ArialMT-74" x="344.580078"/>
     <use xlink:href="#ArialMT-69" x="372.363281"/>
     <use xlink:href="#ArialMT-76" x="394.580078"/>
     <use xlink:href="#ArialMT-65" x="444.580078"/>
     <use xlink:href="#ArialMT-20" x="500.195312"/>
     <use xlink:href="#ArialMT-52" x="527.978516"/>
     <use xlink:href="#ArialMT-65" x="600.195312"/>
     <use xlink:href="#ArialMT-74" x="655.810547"/>
     <use xlink:href="#ArialMT-75" x="683.59375"/>
     <use xlink:href="#ArialMT-72" x="739.208984"/>
     <use xlink:href="#ArialMT-6e" x="772.509766"/>
     <use xlink:href="#ArialMT-73" x="828.125"/>
     <use xlink:href="#ArialMT-20" x="878.125"/>
     <use xlink:href="#ArialMT-61" x="905.908203"/>
     <use xlink:href="#ArialMT-6e" x="961.523438"/>
     <use xlink:href="#ArialMT-64" x="1017.138672"/>
     <use xlink:href="#ArialMT-20" x="1072.753906"/>
     <use xlink:href="#ArialMT-44" x="1100.537109"/>
     <use xlink:href="#ArialMT-72" x="1172.753906"/>
     <use xlink:href="#ArialMT-61" x="1206.054688"/>
     <use xlink:href="#ArialMT-77" x="1261.669922"/>
     <use xlink:href="#ArialMT-64" x="1333.886719"/>
     <use xlink:href="#ArialMT-6f" x="1389.501953"/>
     <use xlink:href="#ArialMT-77" x="1445.117188"/>
     <use xlink:href="#ArialMT-6e" x="1517.333984"/>
    </g>
   </g>
   <g id="legend_1">
    <g id="line2d_20">
     <path d="M 80.87 46.336563 
L 96.87 46.336563 
L 112.87 46.336563 
" style="fill: none; stroke: #0000ff; stroke-width: 2; stroke-linecap: round"/>
    </g>
    <g id="text_22">
     <!-- Cumulative Returns -->
     <g style="fill: #262626" transform="translate(125.67 51.936563) scale(0.16 -0.16)">
      <use xlink:href="#ArialMT-43"/>
      <use xlink:href="#ArialMT-75" x="72.216797"/>
      <use xlink:href="#ArialMT-6d" x="127.832031"/>
      <use xlink:href="#ArialMT-75" x="211.132812"/>
      <use xlink:href="#ArialMT-6c" x="266.748047"/>
      <use xlink:href="#ArialMT-61" x="288.964844"/>
      <use xlink:href="#ArialMT-74" x="344.580078"/>
      <use xlink:href="#ArialMT-69" x="372.363281"/>
      <use xlink:href="#ArialMT-76" x="394.580078"/>
      <use xlink:href="#ArialMT-65" x="444.580078"/>
      <use xlink:href="#ArialMT-20" x="500.195312"/>
      <use xlink:href="#ArialMT-52" x="527.978516"/>
      <use xlink:href="#ArialMT-65" x="600.195312"/>
      <use xlink:href="#ArialMT-74" x="655.810547"/>
      <use xlink:href="#ArialMT-75" x="683.59375"/>
      <use xlink:href="#ArialMT-72" x="739.208984"/>
      <use xlink:href="#ArialMT-6e" x="772.509766"/>
      <use xlink:href="#ArialMT-73" x="828.125"/>
     </g>
    </g>
    <g id="patch_7">
     <path d="M 80.87 74.569063 
L 112.87 74.569063 
L 112.87 63.369063 
L 80.87 63.369063 
z
" style="fill: #ff0000; fill-opacity: 0.3; stroke: #ff0000; stroke-opacity: 0.3; stroke-linejoin: miter"/>
    </g>
    <g id="text_23">
     <!-- Drawdown -->
     <g style="fill: #262626" transform="translate(125.67 74.569063) scale(0.16 -0.16)">
      <use xlink:href="#ArialMT-44"/>
      <use xlink:href="#ArialMT-72" x="72.216797"/>
      <use xlink:href="#ArialMT-61" x="105.517578"/>
      <use xlink:href="#ArialMT-77" x="161.132812"/>
      <use xlink:href="#ArialMT-64" x="233.349609"/>
      <use xlink:href="#ArialMT-6f" x="288.964844"/>
      <use xlink:href="#ArialMT-77" x="344.580078"/>
      <use xlink:href="#ArialMT-6e" x="416.796875"/>
     </g>
    </g>
   </g>
  </g>
 </g>
 <defs>
  <clipPath id="pc371282f1f">
   <rect x="66.47" y="26.084062" width="922.455" height="414.58"/>
  </clipPath>
 </defs>
</svg>
